<svg width="500" height="500" viewBox="0 0 500 500" fill="none" xmlns="http://www.w3.org/2000/svg">
<g clip-path="url(#clip0_25_394)">
<path d="M71.4064 420.053C92.99 433.897 119.954 433.195 145.879 429.951C149.499 429.498 153.091 429.002 156.648 428.485C156.669 428.478 156.698 428.478 156.72 428.472C156.89 428.446 157.062 428.42 157.226 428.402C157.96 428.293 158.694 428.184 159.421 428.075L159.266 428.414L158.78 429.465C158.956 429.113 159.133 428.767 159.309 428.415C159.361 428.309 159.419 428.203 159.471 428.097C165.579 416.001 171.609 403.477 172.591 389.989C173.603 375.989 167.798 360.511 155.191 354.338C153.537 353.531 151.799 352.911 150.009 352.489C149.265 352.307 148.513 352.166 147.754 352.047C139.816 350.871 131.314 353.264 125.407 358.742C117.593 366.003 114.861 378.218 118.831 388.118C107.88 378.04 108.884 360.676 111.684 346.058C114.491 331.44 117.965 315.155 109.972 302.593C105.528 295.6 98.1565 291.511 90.0578 290.141C89.8094 290.101 89.5615 290.062 89.313 290.029C79.9132 288.638 69.629 290.858 61.8223 296.391C47.0436 306.858 40.1728 325.563 38.5896 343.607C36.0367 372.644 46.867 404.311 71.4064 420.053Z" fill="#34A853"/>
<path d="M75.6194 373.499C76.5658 379.823 78.4292 385.974 81.151 391.76C83.6476 396.875 86.8949 401.588 90.7852 405.743C98.7372 414.321 108.975 420.541 119.941 424.462C128.321 427.377 137.036 429.221 145.879 429.951C149.499 429.498 153.091 429.002 156.648 428.485C156.67 428.478 156.698 428.478 156.72 428.472C156.891 428.446 157.062 428.42 157.226 428.402C157.96 428.293 158.694 428.184 159.421 428.075L159.267 428.414L158.78 429.465C158.956 429.113 159.133 428.767 159.309 428.415C159.361 428.309 159.419 428.203 159.471 428.097C152.536 421.896 147.189 414.123 143.877 405.43C140.565 396.737 139.385 387.376 140.435 378.133C141.561 368.95 144.842 360.163 150.009 352.489C149.265 352.307 148.513 352.166 147.754 352.047C145.795 355.053 144.106 358.226 142.706 361.529C137.679 373.312 136.579 386.399 139.569 398.856C142.332 410.124 148.252 420.371 156.636 428.392C155.939 428.381 155.235 428.362 154.546 428.336C141.496 427.937 128.381 425.845 116.289 420.761C106.077 416.476 96.6982 409.879 89.6999 401.245C82.0325 391.789 78.2487 380.121 77.0588 368.118C75.7904 355.268 76.7538 342.071 79.0169 329.386C81.325 316.382 85.2157 303.709 90.6022 291.651C90.7224 291.377 90.733 291.068 90.6316 290.787C90.5303 290.506 90.3249 290.275 90.0578 290.141C89.834 290.007 89.5664 289.967 89.3131 290.029C89.1897 290.069 89.0768 290.136 88.983 290.226C88.8892 290.316 88.8168 290.425 88.7712 290.547C88.1068 292.036 87.4563 293.526 86.8344 295.031C81.6548 307.563 78.0521 320.69 76.109 334.11C74.2184 347.057 73.5637 360.53 75.6194 373.499Z" fill="white"/>
<path d="M332.531 155.097H330.534V100.387C330.534 91.9891 327.198 83.9348 321.259 77.9964C315.321 72.058 307.267 68.7218 298.868 68.7218H182.955C174.557 68.7218 166.503 72.0579 160.564 77.9964C154.626 83.9348 151.29 91.9891 151.29 100.387V400.533C151.29 408.931 154.626 416.985 160.564 422.924C166.503 428.862 174.557 432.198 182.955 432.198H298.868C307.266 432.198 315.321 428.862 321.259 422.923C327.197 416.985 330.533 408.931 330.533 400.533V194.04H332.53L332.531 155.097Z" fill="#3F3D56"/>
<path d="M300.146 76.957H285.017C285.712 78.663 285.978 80.5139 285.79 82.3467C285.602 84.1795 284.966 85.938 283.938 87.4671C282.91 88.9963 281.522 90.2492 279.896 91.1154C278.27 91.9817 276.456 92.4348 274.614 92.4347H208.208C206.366 92.4346 204.552 91.9814 202.926 91.1151C201.3 90.2487 199.912 88.9958 198.884 87.4667C197.857 85.9376 197.221 84.1792 197.033 82.3465C196.845 80.5137 197.11 78.6629 197.806 76.957H183.674C180.569 76.957 177.494 77.5686 174.625 78.757C171.756 79.9454 169.149 81.6873 166.953 83.8832C164.757 86.079 163.015 88.6859 161.827 91.555C160.639 94.424 160.027 97.4991 160.027 100.605V400.314C160.027 406.586 162.518 412.6 166.953 417.035C171.388 421.47 177.403 423.961 183.674 423.961H300.146C306.418 423.961 312.432 421.47 316.867 417.035C321.302 412.6 323.793 406.586 323.793 400.314V400.314V100.604C323.793 94.3324 321.302 88.3177 316.867 83.883C312.432 79.4483 306.418 76.957 300.146 76.957V76.957Z" fill="white"/>
<path d="M451.896 425.918C443.496 431.969 432.611 432.273 422.089 431.529C420.619 431.426 419.16 431.304 417.715 431.173C417.706 431.17 417.695 431.171 417.686 431.169C417.617 431.162 417.547 431.156 417.48 431.152C417.182 431.124 416.884 431.096 416.588 431.068L416.658 431.201L416.877 431.614C416.798 431.476 416.72 431.341 416.641 431.202C416.618 431.161 416.592 431.119 416.569 431.078C413.843 426.335 411.139 421.417 410.45 416.001C409.737 410.379 411.74 404.013 416.688 401.249C417.337 400.888 418.024 400.6 418.737 400.391C419.033 400.301 419.333 400.228 419.636 400.164C421.492 399.752 423.424 399.841 425.234 400.424C427.043 401.006 428.665 402.059 429.932 403.476C431.2 404.893 432.067 406.621 432.445 408.484C432.823 410.347 432.697 412.277 432.082 414.076C436.277 409.774 435.494 402.796 434.047 396.964C432.598 391.132 430.842 384.643 433.791 379.404C435.43 376.489 438.313 374.68 441.548 373.951C441.648 373.929 441.747 373.908 441.846 373.89C445.701 373.109 449.708 373.811 453.067 375.856C459.253 379.754 462.43 387.145 463.461 394.385C465.123 406.035 461.446 419.037 451.896 425.918Z" fill="#34A853"/>
<path d="M449.184 407.242C448.94 409.811 448.323 412.332 447.352 414.724C446.457 416.84 445.25 418.811 443.772 420.57C440.7 424.167 436.809 426.972 432.426 428.752C429.111 430.109 425.638 431.043 422.089 431.529C420.62 431.426 419.161 431.304 417.715 431.173C417.707 431.17 417.695 431.171 417.686 431.169C417.617 431.162 417.547 431.156 417.481 431.152C417.182 431.124 416.884 431.096 416.588 431.068L416.658 431.201L416.877 431.614C416.799 431.476 416.72 431.341 416.641 431.202C416.618 431.161 416.592 431.119 416.569 431.078C419.23 428.427 421.216 425.177 422.362 421.6C423.508 418.023 423.78 414.224 423.155 410.521C422.501 406.843 420.988 403.372 418.737 400.391C419.033 400.301 419.333 400.228 419.637 400.164C420.492 401.333 421.242 402.575 421.878 403.877C424.161 408.517 424.89 413.769 423.956 418.856C423.087 423.459 420.923 427.719 417.719 431.135C417.999 431.115 418.282 431.092 418.56 431.067C423.812 430.622 429.054 429.493 433.818 427.18C437.89 425.251 441.425 422.35 444.112 418.733C446.997 414.754 448.268 409.968 448.487 405.104C448.655 399.863 448.106 394.624 446.854 389.532C445.641 384.339 443.796 379.315 441.362 374.571C441.308 374.464 441.297 374.339 441.331 374.224C441.366 374.108 441.444 374.011 441.549 373.951C441.636 373.892 441.743 373.87 441.846 373.89C441.897 373.903 441.944 373.928 441.984 373.962C442.024 373.996 442.055 374.038 442.076 374.086C442.376 374.672 442.671 375.259 442.955 375.852C445.316 380.791 447.054 386.005 448.129 391.373C449.173 396.551 449.731 401.968 449.184 407.242Z" fill="white"/>
<path d="M463.477 432.239H36.5226C36.384 432.239 36.2511 432.183 36.1531 432.085C36.0551 431.987 36 431.855 36 431.716C36 431.577 36.0551 431.444 36.1531 431.346C36.2511 431.248 36.384 431.193 36.5226 431.193H463.477C463.616 431.193 463.749 431.248 463.847 431.346C463.945 431.444 464 431.577 464 431.716C464 431.855 463.945 431.987 463.847 432.085C463.749 432.183 463.616 432.239 463.477 432.239Z" fill="#3F3D56"/>
<path d="M370.254 426.328L363.848 426.327L360.8 401.615L370.256 401.615L370.254 426.328Z" fill="#FFB8B8"/>
<path d="M359.271 424.496H371.627V432.276H351.492C351.492 431.255 351.693 430.243 352.084 429.299C352.475 428.355 353.048 427.498 353.77 426.775C354.493 426.053 355.35 425.48 356.294 425.089C357.238 424.698 358.25 424.496 359.271 424.496V424.496Z" fill="#2F2E41"/>
<path d="M394.294 426.328L387.887 426.327L384.839 401.615L394.295 401.615L394.294 426.328Z" fill="#FFB8B8"/>
<path d="M383.31 424.496H395.666V432.276H375.531C375.531 431.255 375.732 430.243 376.123 429.299C376.514 428.355 377.087 427.498 377.809 426.775C378.532 426.053 379.389 425.48 380.333 425.089C381.277 424.698 382.289 424.496 383.31 424.496V424.496Z" fill="#2F2E41"/>
<path d="M393.511 352.727C392.821 352.283 392.236 351.693 391.799 350.998C391.361 350.304 391.081 349.522 390.978 348.708C390.875 347.894 390.952 347.067 391.204 346.286C391.455 345.504 391.875 344.788 392.433 344.186L388.215 284.319L400.366 285.498L400.7 344.125C401.649 345.13 402.195 346.448 402.237 347.829C402.279 349.211 401.812 350.559 400.926 351.619C400.04 352.68 398.796 353.378 397.429 353.582C396.062 353.786 394.668 353.482 393.511 352.727H393.511Z" fill="#FFB8B8"/>
<path d="M369.952 413.878L362.899 413.542C362.298 413.513 361.731 413.255 361.314 412.822C360.898 412.388 360.663 411.811 360.659 411.209L360.167 339.846C360.164 339.508 360.235 339.172 360.375 338.864C360.514 338.555 360.718 338.28 360.973 338.057C361.229 337.834 361.529 337.67 361.854 337.574C362.179 337.478 362.521 337.454 362.856 337.502L391.073 341.598C391.63 341.676 392.141 341.953 392.511 342.377C392.881 342.802 393.085 343.345 393.087 343.908L396.716 410.033C396.718 410.344 396.659 410.652 396.542 410.939C396.425 411.226 396.252 411.488 396.033 411.708C395.815 411.928 395.554 412.103 395.268 412.222C394.982 412.342 394.674 412.403 394.364 412.403H386.76C386.199 412.405 385.656 412.206 385.23 411.841C384.803 411.477 384.522 410.971 384.437 410.417L379.746 380.594C379.677 380.158 379.453 379.761 379.115 379.477C378.777 379.193 378.347 379.041 377.905 379.049C377.464 379.057 377.04 379.225 376.712 379.521C376.385 379.817 376.175 380.222 376.123 380.661L372.399 411.808C372.329 412.379 372.053 412.904 371.623 413.286C371.193 413.668 370.638 413.879 370.064 413.881C370.026 413.881 369.989 413.88 369.952 413.878Z" fill="#2F2E41"/>
<path d="M374.917 343.911C368.699 340.456 363.84 339.548 361.497 339.315C361.186 339.285 360.884 339.192 360.609 339.041C360.335 338.891 360.094 338.687 359.901 338.44C359.704 338.192 359.559 337.907 359.476 337.602C359.392 337.296 359.371 336.977 359.415 336.663L366.176 286.468C366.565 283.531 367.699 280.743 369.47 278.369C371.242 275.994 373.591 274.113 376.295 272.903C378.912 271.7 381.794 271.186 384.666 271.411C387.537 271.637 390.304 272.593 392.702 274.189C392.933 274.343 393.161 274.501 393.384 274.661C396.145 276.684 398.246 279.48 399.421 282.695C400.596 285.91 400.793 289.402 399.987 292.729C395.841 309.689 394.417 337.495 394.174 342.897C394.155 343.357 394 343.802 393.728 344.174C393.457 344.547 393.081 344.83 392.649 344.99C390.098 345.917 387.406 346.396 384.692 346.406C381.274 346.427 377.907 345.568 374.917 343.911V343.911Z" fill="#34A853"/>
<path d="M390.966 304.436C390.681 304.231 390.446 303.965 390.278 303.657C390.11 303.35 390.013 303.008 389.994 302.658L389.104 286.523C389.016 284.924 389.523 283.35 390.527 282.103C391.531 280.856 392.961 280.024 394.542 279.77C396.122 279.515 397.741 279.854 399.087 280.722C400.432 281.59 401.408 282.925 401.827 284.471L405.738 298.897C405.901 299.499 405.818 300.14 405.508 300.681C405.198 301.222 404.686 301.618 404.084 301.782L392.958 304.799C392.62 304.891 392.265 304.906 391.92 304.843C391.576 304.781 391.249 304.641 390.966 304.436Z" fill="#34A853"/>
<path d="M380.572 266.087C387.661 266.087 393.408 260.341 393.408 253.252C393.408 246.163 387.661 240.417 380.572 240.417C373.484 240.417 367.737 246.163 367.737 253.252C367.737 260.341 373.484 266.087 380.572 266.087Z" fill="#FFB8B8"/>
<path d="M356.426 303.773C354.971 303.776 353.557 303.289 352.413 302.39L330.575 285.161C330.398 285.224 330.217 285.278 330.034 285.321C329.247 285.506 328.43 285.522 327.636 285.37C326.842 285.217 326.089 284.9 325.426 284.437C324.758 283.975 324.197 283.375 323.78 282.678C323.363 281.981 323.1 281.203 323.008 280.396C322.837 278.938 323.23 277.47 324.106 276.292C324.983 275.114 326.277 274.317 327.723 274.063C329.169 273.809 330.657 274.118 331.883 274.926C333.108 275.734 333.978 276.981 334.314 278.41C334.372 278.66 334.412 278.913 334.434 279.169L356.634 291.976L362.159 288.795L368.279 296.807L360.182 302.579C359.085 303.358 357.772 303.775 356.426 303.773V303.773Z" fill="#FFB8B8"/>
<path d="M357.436 291.176C357.398 290.828 357.44 290.475 357.557 290.145C357.674 289.814 357.863 289.514 358.111 289.267L369.537 277.839C370.669 276.707 372.18 276.034 373.779 275.95C375.378 275.866 376.951 276.377 378.196 277.384C379.44 278.391 380.267 279.824 380.518 281.405C380.769 282.986 380.426 284.604 379.554 285.947L371.417 298.485C371.077 299.008 370.544 299.374 369.934 299.504C369.324 299.634 368.688 299.517 368.165 299.178L358.494 292.902C358.2 292.712 357.952 292.458 357.769 292.159C357.586 291.861 357.472 291.525 357.436 291.176Z" fill="#34A853"/>
<path d="M384.179 265.257C384.361 265.467 384.583 265.638 384.832 265.761C385.081 265.883 385.352 265.955 385.629 265.971C385.907 265.986 386.184 265.947 386.446 265.853C386.707 265.76 386.948 265.615 387.152 265.428C390.014 263.111 392.284 260.147 393.775 256.78C395.443 252.802 395.688 247.948 393.789 244.22C392.183 241.069 389.302 239.062 386.425 237.423C385.322 236.728 384.113 236.217 382.846 235.91C382.206 235.765 381.543 235.755 380.899 235.882C380.255 236.009 379.645 236.269 379.107 236.645C378.537 237.079 378.096 237.66 377.831 238.325C377.566 238.99 377.487 239.715 377.603 240.422C376.287 238.689 374.513 237.357 372.481 236.578C371.234 236.041 369.841 235.948 368.533 236.313C366.686 236.93 365.318 238.796 364.557 240.8C363.942 242.335 363.716 243.998 363.901 245.641C363.982 246.426 364.221 247.186 364.605 247.875C364.988 248.564 365.508 249.168 366.132 249.65C367.639 250.69 369.581 250.585 371.333 250.125C373.086 249.664 374.787 248.884 376.57 248.666C378.354 248.449 380.33 248.921 381.393 250.511C382.141 251.631 382.317 253.107 382.47 254.513L383.264 261.829C383.32 262.875 383.545 263.906 383.932 264.88C383.997 265.016 384.08 265.143 384.179 265.257V265.257Z" fill="#2F2E41"/>
<path d="M180.921 315.74H198.628V319.205H184.514V329.685H197.261V333.107H184.514V346.365H180.921L180.921 315.74Z" fill="#3F3D56"/>
<path d="M202.905 315.74H206.539V346.362H202.905V315.74Z" fill="#3F3D56"/>
<path d="M213.833 344.735C212.449 343.196 211.757 341.043 211.759 338.276V324.55H215.392V337.724C215.392 339.805 215.863 341.331 216.803 342.3C217.302 342.794 217.898 343.178 218.553 343.428C219.208 343.679 219.908 343.79 220.609 343.755C221.774 343.774 222.917 343.431 223.879 342.772C224.828 342.123 225.594 341.239 226.101 340.206C226.625 339.171 226.896 338.028 226.893 336.869V324.55H230.53V346.362H227.064V343.196H226.893C226.212 344.359 225.219 345.307 224.027 345.934C222.751 346.666 221.305 347.049 219.834 347.045C217.217 347.045 215.217 346.275 213.833 344.735Z" fill="#3F3D56"/>
<path d="M242.06 346.611C241.353 346.351 240.706 345.952 240.157 345.436C239.595 344.898 239.157 344.244 238.874 343.52C238.567 342.668 238.422 341.767 238.446 340.862V327.843H234.641V324.55H238.447V318.39H242.08V324.55H247.384V327.843H242.08V339.997C242.007 340.951 242.247 341.903 242.764 342.708C243.057 343.036 243.422 343.294 243.83 343.461C244.238 343.628 244.678 343.7 245.118 343.671C245.969 343.664 246.801 343.412 247.512 342.944V346.493C247.097 346.689 246.659 346.832 246.209 346.921C245.65 347.015 245.085 347.058 244.518 347.049C243.679 347.054 242.846 346.906 242.06 346.611V346.611Z" fill="#3F3D56"/>
<path d="M257.497 346.611C256.79 346.351 256.143 345.952 255.595 345.436C255.033 344.898 254.595 344.244 254.311 343.52C254.005 342.668 253.86 341.767 253.884 340.862V327.843H250.078V324.55H253.884V318.39H257.517V324.55H262.821V327.843H257.517V339.997C257.444 340.951 257.684 341.903 258.201 342.708C258.495 343.036 258.859 343.294 259.267 343.461C259.675 343.628 260.115 343.7 260.555 343.671C261.406 343.664 262.238 343.412 262.949 342.944V346.493C262.534 346.689 262.096 346.832 261.646 346.921C261.088 347.015 260.522 347.058 259.956 347.049C259.116 347.054 258.283 346.905 257.497 346.611V346.611Z" fill="#3F3D56"/>
<path d="M270.395 345.547C268.748 344.556 267.409 343.128 266.526 341.422C265.581 339.592 265.103 337.557 265.135 335.498C265.113 333.485 265.559 331.494 266.438 329.682C267.265 327.961 268.544 326.498 270.139 325.449C271.792 324.377 273.729 323.826 275.699 323.866C277.649 323.818 279.574 324.313 281.259 325.297C282.818 326.243 284.072 327.616 284.872 329.254C285.74 331.054 286.173 333.032 286.135 335.03C286.141 335.404 286.098 335.778 286.007 336.141H268.772C268.805 337.618 269.218 339.062 269.971 340.334C270.625 341.42 271.563 342.308 272.685 342.9C273.745 343.462 274.927 343.755 276.127 343.755C278.922 343.755 281.075 342.444 282.586 339.822L285.664 341.32C284.778 343.03 283.457 344.476 281.835 345.513C280.096 346.516 278.126 347.047 276.119 347.052C274.113 347.058 272.139 346.539 270.395 345.547V345.547ZM282.283 333.144C282.214 332.188 281.952 331.257 281.511 330.406C281.016 329.453 280.27 328.654 279.353 328.096C278.235 327.434 276.95 327.107 275.652 327.156C274.045 327.116 272.487 327.708 271.311 328.803C270.093 329.966 269.277 331.486 268.981 333.144H282.283Z" fill="#3F3D56"/>
<path d="M290.365 324.55H293.83V328.055H294.002C294.469 326.807 295.343 325.752 296.484 325.062C297.62 324.291 298.96 323.873 300.333 323.863C301.212 323.841 302.085 324.001 302.899 324.334V328.227C301.941 327.762 300.886 327.528 299.821 327.544C298.782 327.539 297.767 327.853 296.911 328.443C296.014 329.06 295.285 329.892 294.793 330.864C294.265 331.876 293.994 333.003 294.002 334.144V346.362H290.368V324.55H290.365Z" fill="#3F3D56"/>
<path d="M253.246 245.282L300.83 293.09L255.887 292.567L239.164 275.844L253.246 245.282Z" fill="#01579B"/>
<path d="M272.533 264.66L239.164 275.844L259.58 251.54L272.533 264.66Z" fill="url(#paint0_linear_25_394)"/>
<path d="M300.511 147.053L205.384 242.19L182.991 219.802L255.746 147.053H300.511Z" fill="#54C5F8"/>
<path d="M216.432 253.634L255.626 214.44H300.568L238.903 275.583L216.432 253.634Z" fill="#54C5F8"/>
<path d="M238.953 230.996L261.345 253.378L239.164 275.845L216.693 253.896L238.953 230.996Z" fill="#29B6F6"/>
</g>
<defs>
<linearGradient id="paint0_linear_25_394" x1="244.839" y1="279.317" x2="261.497" y2="262.659" gradientUnits="userSpaceOnUse">
<stop stop-color="#1A237E" stop-opacity="0.4"/>
<stop offset="1" stop-color="#1A237E" stop-opacity="0"/>
</linearGradient>
<clipPath id="clip0_25_394">
<rect width="428" height="363.555" fill="white" transform="translate(36 68.7218)"/>
</clipPath>
</defs>
</svg>
