<svg width="500" height="500" viewBox="0 0 500 500" fill="none" xmlns="http://www.w3.org/2000/svg">
<g clip-path="url(#clip0_27_568)">
<path d="M114.911 278.502C94.0232 257.94 85.2011 236.488 90.0693 218.099C96.3167 194.5 124.071 178.184 166.215 173.334L166.371 174.687C124.813 179.47 97.4825 195.42 91.3864 218.447C86.6486 236.344 95.3426 257.327 115.867 277.532L114.911 278.502Z" fill="#F0F0F0"/>
<path d="M316.443 351.493C290.374 351.493 262.045 347.619 233.906 340.17C199.109 330.957 167.204 317.053 141.64 299.958L142.397 298.826C167.838 315.838 199.602 329.679 234.255 338.852C265.57 347.143 297.121 350.985 325.483 349.971L325.533 351.332C322.537 351.44 319.507 351.493 316.443 351.493Z" fill="#F0F0F0"/>
<path d="M376.249 342.926L375.813 341.636C399.128 333.753 413.711 321.054 417.985 304.911C423.417 284.39 411.615 260.576 384.752 237.857C357.751 215.022 318.816 196.075 275.116 184.506L275.465 183.189C319.355 194.809 358.48 213.854 385.631 236.817C412.919 259.895 424.877 284.202 419.302 305.26C414.906 321.865 400.018 334.89 376.249 342.926Z" fill="#F0F0F0"/>
<path d="M162.159 352.062C110.935 329.344 71.4623 299.869 51.0139 269.067L52.1487 268.314C72.4558 298.902 111.721 328.202 162.711 350.817L162.159 352.062Z" fill="#F0F0F0"/>
<path d="M342.261 391.421C336.978 391.421 331.604 391.303 326.14 391.067L326.198 389.706C366.975 391.471 402.953 386.591 430.249 375.591L430.759 376.855C406.947 386.45 376.597 391.421 342.261 391.421Z" fill="#F0F0F0"/>
<path d="M312.54 174.555C304.073 171.799 295.365 169.232 286.656 166.926C236.541 153.659 187.278 148.949 144.19 153.307L144.053 151.951C187.302 147.579 236.734 152.301 287.005 165.609C295.738 167.922 304.471 170.496 312.961 173.26L312.54 174.555Z" fill="#F0F0F0"/>
<path d="M82.8971 280.546C62.0093 259.983 53.1872 238.531 58.0554 220.142C64.3028 196.544 92.057 180.227 134.201 175.377L134.357 176.731C92.7994 181.513 65.4686 197.463 59.3725 220.491C54.6347 238.387 63.3287 259.37 83.8529 279.575L82.8971 280.546Z" fill="#F0F0F0"/>
<path d="M284.429 353.536C258.36 353.536 230.031 349.662 201.892 342.213C167.095 333.001 135.19 319.096 109.626 302.002L110.383 300.869C135.824 317.881 167.588 331.722 202.241 340.896C233.556 349.187 265.107 353.028 293.47 352.015L293.519 353.375C290.523 353.483 287.494 353.537 284.429 353.536Z" fill="#F0F0F0"/>
<path d="M344.235 344.97L343.799 343.679C367.114 335.796 381.697 323.097 385.971 306.955C391.403 286.433 379.601 262.62 352.737 239.9C325.737 217.065 286.802 198.118 243.102 186.55L243.451 185.233C287.341 196.852 326.466 215.897 353.617 238.86C380.905 261.938 392.863 286.245 387.288 307.303C382.892 323.909 368.004 336.933 344.235 344.97Z" fill="#F0F0F0"/>
<path d="M130.145 354.106C78.9208 331.387 39.4484 301.912 19 271.111L20.1348 270.357C40.4419 300.946 79.7071 330.246 130.698 352.861L130.145 354.106Z" fill="#F0F0F0"/>
<path d="M310.247 393.464C304.963 393.464 299.59 393.346 294.125 393.11L294.184 391.749C334.961 393.515 370.938 388.635 398.235 377.635L398.744 378.899C374.933 388.493 344.583 393.464 310.247 393.464Z" fill="#F0F0F0"/>
<path d="M280.526 176.599C272.059 173.842 263.351 171.275 254.642 168.97C204.527 155.703 155.264 150.992 112.176 155.35L112.039 153.995C155.288 149.622 204.72 154.344 254.991 167.653C263.724 169.965 272.457 172.539 280.947 175.303L280.526 176.599Z" fill="#F0F0F0"/>
<path d="M42.2197 244.057C52.0094 233.081 67.6255 226.392 81.7773 230.396C68.7217 239.635 59.3549 253.195 55.3342 268.675C53.8052 274.651 52.7268 281.456 47.757 285.11C44.6648 287.384 40.5674 287.927 36.7646 287.409C32.9615 286.891 29.3657 285.412 25.8183 283.947L24.8638 284.029C27.6082 269.58 32.43 255.034 42.2197 244.057Z" fill="#F2F2F2"/>
<path d="M81.7341 230.702C69.9022 233.567 59.2739 240.087 51.3586 249.336C49.6192 251.297 48.1999 253.519 47.1527 255.922C46.2083 258.296 45.9167 260.879 46.3083 263.404C46.6261 265.765 47.2247 268.143 46.963 270.541C46.8108 271.766 46.4014 272.945 45.7616 274.001C45.1218 275.056 44.266 275.965 43.2504 276.667C40.7653 278.482 37.7763 279.295 34.8257 279.989C31.5496 280.76 28.1346 281.508 25.4641 283.685C25.1405 283.949 24.7501 283.432 25.0732 283.168C29.7195 279.38 36.1767 279.867 41.3173 277.115C43.7161 275.831 45.7424 273.817 46.2351 271.053C46.6659 268.635 46.0508 266.182 45.7083 263.794C45.2902 261.337 45.4801 258.815 46.2614 256.448C47.1828 254 48.5142 251.726 50.1985 249.724C53.9185 245.157 58.3335 241.204 63.2817 238.008C68.9089 234.329 75.1237 231.641 81.6575 230.058C82.062 229.96 82.1359 230.605 81.7341 230.702L81.7341 230.702Z" fill="white"/>
<path d="M53.7317 246.207C52.3602 244.669 51.5803 242.693 51.5313 240.632C51.4822 238.571 52.1673 236.56 53.464 234.958C53.7275 234.635 54.2423 235.029 53.9784 235.353C52.7681 236.843 52.1302 238.716 52.1798 240.635C52.2294 242.554 52.9632 244.391 54.2488 245.817C54.5279 246.127 54.0091 246.516 53.7317 246.207H53.7317Z" fill="white"/>
<path d="M45.9895 262.228C50.1938 262.507 54.3489 261.191 57.6262 258.543C57.9507 258.28 58.3412 258.798 58.0171 259.06C54.6015 261.81 50.2747 263.17 45.9003 262.87C45.4833 262.841 45.5749 262.199 45.9895 262.228Z" fill="white"/>
<path d="M69.0546 235.177C69.4612 235.882 70.0368 236.476 70.7297 236.905C71.4225 237.333 72.211 237.583 73.0242 237.632C73.4413 237.655 73.3493 238.297 72.9349 238.274C72.0367 238.216 71.1663 237.939 70.3998 237.467C69.6332 236.995 68.9938 236.343 68.5375 235.567C68.4884 235.498 68.4675 235.412 68.4793 235.328C68.491 235.244 68.5344 235.167 68.6006 235.113C68.6693 235.062 68.7556 235.04 68.8406 235.052C68.9256 235.063 69.0025 235.108 69.0546 235.177V235.177Z" fill="white"/>
<path d="M101.866 275.961C101.605 275.954 101.344 275.947 101.08 275.944C97.5726 275.863 94.0643 276.068 90.5899 276.556C90.3207 276.589 90.0484 276.627 89.7807 276.668C81.4227 277.933 73.372 280.738 66.038 284.941C63.1211 286.616 60.336 288.511 57.7066 290.609C54.0755 293.506 50.369 296.937 46.1179 298.421C45.6761 298.581 45.2249 298.714 44.7668 298.818L25.0387 285.188C25.0094 285.134 24.9768 285.085 24.9473 285.031L24.1348 284.523C24.2628 284.405 24.3982 284.286 24.5262 284.168C24.6002 284.1 24.6786 284.034 24.7526 283.966C24.8033 283.921 24.8543 283.876 24.8975 283.833C24.9143 283.818 24.9314 283.803 24.9451 283.793C24.9883 283.75 25.033 283.714 25.0731 283.675C25.8278 283.006 26.5885 282.342 27.3552 281.681C27.3583 281.677 27.3583 281.677 27.3658 281.675C33.2205 276.657 39.5455 272.083 46.3637 268.615C46.5689 268.511 46.777 268.402 46.9912 268.304C50.0732 266.757 53.2764 265.465 56.5688 264.441C58.3735 263.886 60.2051 263.423 62.0566 263.053C66.8424 262.106 71.7474 261.918 76.5917 262.496C86.2485 263.648 95.4292 267.877 101.414 275.383C101.567 275.575 101.716 275.765 101.866 275.961Z" fill="#F2F2F2"/>
<path d="M101.648 276.181C90.4766 271.345 78.065 270.152 66.1764 272.771C63.6071 273.29 61.1355 274.21 58.8527 275.498C56.6695 276.824 54.8814 278.712 53.6742 280.963C52.5064 283.04 51.5523 285.299 49.9 287.055C49.0409 287.942 48.0041 288.637 46.8576 289.095C45.7111 289.553 44.4807 289.763 43.2472 289.712C40.1704 289.664 37.2941 288.514 34.5204 287.292C31.4408 285.935 28.2634 284.476 24.8204 284.607C24.4032 284.623 24.403 283.974 24.8196 283.959C30.8099 283.732 35.6729 288.008 41.4339 288.906C44.1221 289.325 46.9529 288.937 49.0105 287.026C50.8099 285.355 51.7957 283.026 52.96 280.914C54.1055 278.7 55.7755 276.801 57.8243 275.381C60.0342 273.981 62.4662 272.967 65.0162 272.383C70.7361 270.976 76.6417 270.477 82.5165 270.905C89.2241 271.356 95.8052 272.951 101.975 275.621C102.357 275.786 102.028 276.345 101.648 276.181V276.181Z" fill="white"/>
<path d="M69.9549 271.702C69.7863 269.648 70.3533 267.601 71.5548 265.926C72.7563 264.251 74.514 263.058 76.514 262.559C76.919 262.46 77.0926 263.085 76.6871 263.184C74.8238 263.645 73.1866 264.757 72.0709 266.318C70.9553 267.88 70.4347 269.79 70.6032 271.702C70.6393 272.117 69.9908 272.115 69.9549 271.702Z" fill="white"/>
<path d="M54.1278 279.832C57.3165 282.586 61.4262 284.037 65.6374 283.896C66.0546 283.882 66.0549 284.53 65.6382 284.544C61.2556 284.683 56.9819 283.164 53.6699 280.291C53.3544 280.017 53.814 279.559 54.1278 279.832V279.832Z" fill="white"/>
<path d="M88.8305 272.12C88.7302 272.928 88.8322 273.749 89.1274 274.508C89.4226 275.268 89.9018 275.942 90.5219 276.47C90.8407 276.74 90.3808 277.197 90.0641 276.929C89.3817 276.342 88.8534 275.597 88.5253 274.759C88.1973 273.921 88.0795 273.015 88.1823 272.121C88.1849 272.036 88.2198 271.955 88.28 271.894C88.3401 271.834 88.4209 271.799 88.506 271.796C88.5918 271.797 88.674 271.831 88.7348 271.891C88.7956 271.952 88.83 272.034 88.8305 272.12H88.8305Z" fill="white"/>
<path d="M425.814 334.035C420.282 320.407 407.823 308.858 393.149 307.873C402.34 320.962 406.604 336.881 405.188 352.812C404.62 358.954 403.348 365.727 406.8 370.838C408.949 374.019 412.625 375.907 416.381 376.698C420.137 377.488 424.02 377.304 427.854 377.116L428.725 377.515C430.997 362.984 431.345 347.663 425.814 334.035Z" fill="#F2F2F2"/>
<path d="M393.087 308.175C403.267 314.85 411.086 324.563 415.432 335.934C416.411 338.366 417.001 340.936 417.18 343.551C417.271 346.104 416.678 348.635 415.461 350.881C414.368 352.998 413.004 355.037 412.445 357.383C412.177 358.588 412.166 359.836 412.414 361.045C412.662 362.255 413.162 363.398 413.883 364.401C415.613 366.945 418.155 368.716 420.701 370.361C423.527 372.188 426.492 374.041 428.275 376.989C428.492 377.346 429.033 376.99 428.817 376.633C425.715 371.504 419.47 369.792 415.553 365.473C413.725 363.457 412.494 360.879 412.959 358.11C413.365 355.688 414.769 353.585 415.894 351.451C417.114 349.277 417.783 346.838 417.842 344.346C417.797 341.731 417.308 339.142 416.394 336.69C414.426 331.138 411.596 325.931 408.01 321.258C403.947 315.902 398.997 311.281 393.375 307.594C393.027 307.366 392.741 307.949 393.087 308.175V308.175Z" fill="white"/>
<path d="M414.248 332.19C416.057 331.202 417.456 329.603 418.195 327.679C418.934 325.755 418.964 323.63 418.281 321.685C418.142 321.292 417.525 321.491 417.664 321.884C418.303 323.694 418.275 325.673 417.583 327.463C416.891 329.254 415.583 330.738 413.893 331.648C413.526 331.847 413.884 332.387 414.248 332.19V332.19Z" fill="white"/>
<path d="M416.156 349.881C412.103 348.731 408.631 346.095 406.435 342.499C406.218 342.143 405.676 342.499 405.893 342.855C408.186 346.593 411.804 349.328 416.024 350.515C416.427 350.628 416.556 349.993 416.156 349.881V349.881Z" fill="white"/>
<path d="M403.525 316.651C402.904 317.179 402.163 317.545 401.366 317.716C400.569 317.887 399.743 317.857 398.961 317.629C398.56 317.511 398.431 318.147 398.829 318.264C399.694 318.511 400.607 318.543 401.488 318.356C402.368 318.17 403.19 317.77 403.88 317.193C403.95 317.144 403.998 317.07 404.015 316.987C404.033 316.904 404.018 316.817 403.973 316.744C403.926 316.673 403.852 316.623 403.768 316.605C403.684 316.588 403.596 316.604 403.525 316.651V316.651Z" fill="white"/>
<path d="M358.914 344.035C359.162 344.116 359.41 344.197 359.66 344.283C362.991 345.386 366.226 346.758 369.334 348.385C369.577 348.507 369.82 348.634 370.059 348.763C377.506 352.763 384.145 358.111 389.64 364.534C391.824 367.093 393.81 369.813 395.582 372.673C398.028 376.622 400.366 381.098 403.87 383.926C404.233 384.225 404.613 384.501 405.01 384.753L428.171 378.547C428.217 378.506 428.264 378.471 428.31 378.43L429.246 378.225C429.165 378.071 429.077 377.913 428.996 377.759C428.95 377.67 428.898 377.581 428.851 377.492C428.818 377.433 428.785 377.374 428.759 377.318C428.748 377.299 428.737 377.279 428.728 377.264C428.702 377.209 428.672 377.161 428.647 377.111C428.161 376.227 427.668 375.345 427.168 374.465C427.166 374.46 427.167 374.46 427.16 374.456C423.333 367.762 418.913 361.329 413.657 355.771C413.499 355.603 413.339 355.431 413.17 355.266C410.787 352.774 408.205 350.481 405.448 348.41C403.935 347.28 402.366 346.228 400.746 345.257C396.557 342.757 392.001 340.932 387.244 339.848C377.761 337.688 367.694 338.584 359.534 343.643C359.325 343.772 359.121 343.901 358.914 344.035Z" fill="#F2F2F2"/>
<path d="M359.045 344.315C371.192 343.515 383.283 346.563 393.6 353.026C395.845 354.378 397.864 356.075 399.581 358.056C401.191 360.039 402.241 362.417 402.621 364.943C403.023 367.292 403.162 369.74 404.128 371.95C404.639 373.074 405.382 374.077 406.308 374.893C407.234 375.71 408.322 376.321 409.501 376.688C412.415 377.677 415.51 377.561 418.534 377.342C421.89 377.099 425.373 376.793 428.572 378.073C428.959 378.228 429.177 377.618 428.79 377.463C423.225 375.236 417.208 377.628 411.48 376.538C408.807 376.029 406.272 374.712 404.976 372.221C403.843 370.043 403.697 367.518 403.311 365.137C402.976 362.667 402.041 360.317 400.588 358.291C398.978 356.23 397.028 354.458 394.823 353.05C389.908 349.803 384.514 347.348 378.837 345.777C372.368 343.947 365.634 343.237 358.926 343.678C358.511 343.706 358.632 344.343 359.045 344.315V344.315Z" fill="white"/>
<path d="M390.4 350.749C391.25 348.871 391.404 346.752 390.835 344.771C390.266 342.79 389.012 341.075 387.296 339.934C386.948 339.704 386.574 340.234 386.923 340.464C388.523 341.524 389.691 343.122 390.217 344.968C390.743 346.813 390.591 348.787 389.79 350.531C389.616 350.91 390.228 351.126 390.4 350.749H390.4Z" fill="white"/>
<path d="M402.574 363.726C398.645 365.248 394.287 365.233 390.368 363.685C389.98 363.531 389.762 364.142 390.15 364.295C394.231 365.899 398.766 365.905 402.851 364.312C403.24 364.16 402.961 363.574 402.574 363.726V363.726Z" fill="white"/>
<path d="M372.482 344.799C372.305 345.594 371.933 346.332 371.4 346.948C370.867 347.564 370.189 348.038 369.427 348.327C369.036 348.474 369.316 349.059 369.704 348.913C370.544 348.59 371.292 348.066 371.883 347.387C372.473 346.707 372.889 345.894 373.092 345.017C373.119 344.936 373.113 344.848 373.077 344.771C373.04 344.694 372.976 344.634 372.897 344.603C372.816 344.574 372.727 344.579 372.649 344.615C372.572 344.652 372.512 344.718 372.482 344.799V344.799Z" fill="white"/>
<path d="M318.507 380.44C321.516 380.44 323.956 378 323.956 374.99C323.956 371.981 321.516 369.541 318.507 369.541C315.497 369.541 313.057 371.981 313.057 374.99C313.057 378 315.497 380.44 318.507 380.44Z" fill="#FD6584"/>
<path d="M337.809 287.628C340.818 287.628 343.258 285.188 343.258 282.178C343.258 279.169 340.818 276.729 337.809 276.729C334.799 276.729 332.36 279.169 332.36 282.178C332.36 285.188 334.799 287.628 337.809 287.628Z" fill="#E6E6E6"/>
<path d="M236.412 136.477C239.422 136.477 241.861 134.038 241.861 131.028C241.861 128.019 239.422 125.579 236.412 125.579C233.403 125.579 230.963 128.019 230.963 131.028C230.963 134.038 233.403 136.477 236.412 136.477Z" fill="#E6E6E6"/>
<path d="M122.221 340.059C122.221 341.446 122.267 342.833 122.364 344.209C122.467 345.853 122.644 347.485 122.884 349.106C123.689 354.565 125.229 359.89 127.462 364.936C127.576 365.187 127.69 365.438 127.804 365.689L127.975 366.066C128.033 366.191 128.095 366.317 128.152 366.437C128.232 366.602 128.307 366.762 128.386 366.922C128.484 367.122 128.581 367.322 128.683 367.521C128.695 367.544 128.706 367.573 128.723 367.601C128.809 367.773 128.889 367.938 128.98 368.109C128.997 368.147 129.016 368.183 129.037 368.218C129.134 368.412 129.237 368.612 129.34 368.806C129.454 369.011 129.562 369.223 129.677 369.428C129.951 369.936 130.236 370.438 130.527 370.941C130.613 371.089 130.698 371.238 130.79 371.386C130.87 371.523 130.95 371.66 131.035 371.797C131.092 371.888 131.149 371.985 131.206 372.077C131.298 372.231 131.389 372.379 131.486 372.533C131.697 372.87 131.914 373.207 132.125 373.544H132.131C132.228 373.698 132.331 373.852 132.434 374V374.006C132.736 374.463 133.05 374.919 133.364 375.37C133.365 375.37 133.366 375.371 133.366 375.371C133.367 375.371 133.368 375.371 133.368 375.372C133.369 375.373 133.369 375.373 133.369 375.374C133.37 375.375 133.37 375.375 133.37 375.376C133.621 375.741 133.884 376.095 134.14 376.449V376.455C134.312 376.678 134.477 376.906 134.649 377.129C134.786 377.311 134.928 377.5 135.071 377.682C135.1 377.722 135.134 377.756 135.162 377.796V377.802C135.202 377.854 135.242 377.899 135.282 377.951C135.887 378.727 136.511 379.486 137.155 380.228L137.257 380.348C137.292 380.388 137.331 380.428 137.366 380.474C137.423 380.536 137.474 380.599 137.531 380.662C137.583 380.725 137.64 380.788 137.697 380.85C141.049 384.627 144.851 387.98 149.016 390.834C149.57 391.217 150.135 391.588 150.7 391.947C150.843 392.039 150.986 392.13 151.129 392.216C151.168 392.244 151.214 392.273 151.254 392.301C151.334 392.347 151.408 392.393 151.488 392.444C151.562 392.49 151.637 392.535 151.716 392.581C152.019 392.769 152.327 392.952 152.636 393.135C152.71 393.18 152.79 393.226 152.87 393.272C152.944 393.312 153.024 393.357 153.104 393.403C153.104 393.409 153.104 393.409 153.109 393.409H153.115V393.415H153.121C153.503 393.637 153.891 393.854 154.285 394.065C154.496 394.179 154.713 394.299 154.93 394.408C155.421 394.676 155.918 394.933 156.414 395.178C156.591 395.264 156.774 395.35 156.951 395.441C157.099 395.509 157.248 395.584 157.396 395.652C157.442 395.675 157.482 395.692 157.522 395.715C157.647 395.772 157.767 395.829 157.893 395.886C158.03 395.949 158.167 396.012 158.298 396.075C158.452 396.143 158.601 396.212 158.755 396.274C159.326 396.531 159.902 396.777 160.479 397.011C162.545 397.858 164.656 398.589 166.804 399.203C166.901 399.231 167.003 399.26 167.106 399.288C168.025 399.545 168.95 399.779 169.88 399.99C171.507 400.367 173.149 400.676 174.807 400.915H174.818C175.018 400.944 175.212 400.972 175.412 401.001C175.429 401.001 175.446 401.007 175.469 401.007C175.469 401.012 175.469 401.012 175.475 401.007C175.692 401.035 175.914 401.064 176.131 401.092C176.146 401.097 176.161 401.098 176.177 401.098C176.382 401.126 176.593 401.149 176.799 401.172C177.022 401.195 177.244 401.218 177.467 401.241C177.638 401.258 177.809 401.275 177.981 401.292C177.995 401.297 178.011 401.299 178.026 401.298C178.18 401.309 178.335 401.326 178.489 401.338H178.511C178.643 401.349 178.78 401.36 178.911 401.372C180.504 401.498 182.102 401.555 183.723 401.555C185.476 401.555 187.217 401.486 188.935 401.338H188.952C189.323 401.303 189.688 401.269 190.054 401.235C190.151 401.223 190.242 401.218 190.339 401.206C190.356 401.206 190.379 401.201 190.396 401.201C190.425 401.195 190.453 401.195 190.488 401.189C190.503 401.19 190.518 401.188 190.533 401.184C190.659 401.172 190.784 401.155 190.916 401.144L191.344 401.092C191.487 401.075 191.629 401.052 191.772 401.035C191.806 401.029 191.835 401.029 191.869 401.024C191.972 401.012 192.075 400.995 192.177 400.978C192.229 400.972 192.28 400.967 192.326 400.961C192.428 400.944 192.525 400.932 192.628 400.915H192.634C195.766 400.464 198.858 399.768 201.881 398.832C202.041 398.78 202.201 398.735 202.361 398.683C202.367 398.683 202.372 398.678 202.378 398.678C202.424 398.66 202.475 398.649 202.521 398.632C202.949 398.495 203.371 398.352 203.794 398.204C204.376 398.01 204.953 397.799 205.529 397.582C205.683 397.519 205.837 397.462 205.991 397.399C206.305 397.279 206.614 397.153 206.922 397.028C207.447 396.817 207.972 396.594 208.492 396.366C208.977 396.149 209.456 395.932 209.936 395.704C209.947 395.698 209.964 395.698 209.976 395.686C210.084 395.635 210.193 395.584 210.296 395.532H210.301C212.93 394.271 215.465 392.823 217.888 391.2C218.664 390.68 219.429 390.144 220.182 389.59C220.787 389.139 221.381 388.682 221.975 388.214C224.904 385.885 227.615 383.294 230.075 380.474V380.468C230.252 380.274 230.417 380.074 230.589 379.874C230.617 379.846 230.64 379.817 230.663 379.794C230.771 379.663 230.874 379.538 230.983 379.412V379.406C231.125 379.241 231.268 379.069 231.405 378.898C231.439 378.858 231.468 378.824 231.496 378.79V378.784C231.61 378.647 231.719 378.51 231.833 378.367C231.89 378.299 231.942 378.23 231.999 378.162V378.156C232.335 377.734 232.661 377.311 232.986 376.877C233.072 376.763 233.157 376.643 233.249 376.524C233.66 375.97 234.059 375.405 234.448 374.84V374.834C234.596 374.623 234.739 374.406 234.887 374.195C235.03 373.978 235.172 373.761 235.315 373.544C235.458 373.315 235.606 373.093 235.749 372.864L235.766 372.83C235.909 372.613 236.052 372.385 236.189 372.162C236.297 371.98 236.406 371.803 236.514 371.626C236.582 371.506 236.657 371.386 236.725 371.26C236.752 371.222 236.777 371.182 236.799 371.141C236.959 370.861 237.119 370.581 237.279 370.301C237.467 369.976 237.65 369.645 237.833 369.314C237.901 369.177 237.975 369.04 238.05 368.903C238.078 368.857 238.101 368.812 238.124 368.766C238.209 368.606 238.295 368.441 238.375 368.275C238.46 368.115 238.546 367.95 238.632 367.784C238.712 367.624 238.797 367.459 238.877 367.293C238.94 367.168 238.997 367.042 239.06 366.916C239.064 366.906 239.07 366.897 239.077 366.888C239.106 366.825 239.134 366.768 239.157 366.711C239.164 366.702 239.17 366.693 239.174 366.682C239.237 366.557 239.294 366.426 239.357 366.3C239.437 366.134 239.511 365.963 239.591 365.798C239.642 365.683 239.699 365.564 239.751 365.444C239.825 365.278 239.905 365.113 239.973 364.941C240.053 364.77 240.127 364.599 240.202 364.422C240.223 364.379 240.242 364.335 240.259 364.291C240.299 364.211 240.327 364.131 240.361 364.051C240.453 363.84 240.544 363.623 240.63 363.412C240.732 363.172 240.829 362.926 240.921 362.687C241.012 362.464 241.098 362.236 241.183 362.007L241.218 361.927C242.548 358.424 243.556 354.807 244.232 351.121V351.116C244.612 349.011 244.885 346.889 245.048 344.757C245.054 344.637 245.065 344.523 245.071 344.408C245.174 342.964 245.219 341.514 245.219 340.059C245.219 339.414 245.208 338.774 245.191 338.135C244.792 324.764 240.024 311.892 231.616 301.487C231.434 301.259 231.251 301.031 231.062 300.802C230.874 300.574 230.68 300.351 230.492 300.129C224.234 292.801 216.342 287.045 207.452 283.327C198.562 279.608 188.922 278.03 179.31 278.721C169.699 279.411 160.384 282.35 152.116 287.302C143.849 292.253 136.861 299.077 131.714 307.224C131.435 307.67 131.155 308.12 130.887 308.571C130.613 309.028 130.35 309.485 130.088 309.947C124.916 319.139 122.207 329.512 122.221 340.059Z" fill="#F2F2F2"/>
<path d="M181.279 299.834C191.391 302.429 201.755 303.925 212.188 304.295C213.766 304.381 215.348 304.37 216.924 304.263C220.388 303.972 223.356 302.883 226.661 302.288C228.25 302.002 230.019 301.794 231.619 301.486C231.249 301.027 230.873 300.574 230.49 300.127C227.041 300.418 223.538 301.372 220.048 301.815C214.114 302.57 207.466 301.728 202.968 299.651C200.786 298.644 199.114 297.386 196.94 296.374C196.644 296.222 196.324 296.124 195.993 296.084C195.366 296.065 194.747 296.226 194.208 296.547C190.56 298.389 185.263 299.886 180.346 299.063C179.98 299.349 180.676 299.676 181.279 299.834Z" fill="white"/>
<path d="M159.522 306.316C159.477 306.308 159.432 306.301 159.387 306.293C159.576 306.176 159.753 306.042 159.918 305.893L159.522 306.316Z" fill="white"/>
<path d="M130.089 309.95C132.142 310.114 134.206 310.236 136.281 310.316C137.859 310.401 139.441 310.391 141.017 310.284C144.481 309.991 147.449 308.904 150.754 308.309C153.783 307.764 157.463 307.502 159.386 306.293C154.416 305.433 149.266 307.184 144.141 307.836C139.995 308.346 135.793 308.139 131.717 307.223C131.15 308.115 130.607 309.024 130.089 309.95Z" fill="white"/>
<path d="M154.93 394.408C155.421 394.676 155.918 394.933 156.414 395.178C156.591 395.264 156.774 395.35 156.951 395.441C157.099 395.509 157.248 395.584 157.396 395.652C157.442 395.675 157.482 395.692 157.522 395.715C157.647 395.772 157.767 395.829 157.893 395.886C158.03 395.949 158.167 396.012 158.298 396.075C158.452 396.143 158.601 396.212 158.755 396.274C159.326 396.531 159.902 396.777 160.479 397.011C162.545 397.858 164.656 398.589 166.804 399.203C166.901 399.231 167.003 399.26 167.106 399.288C168.025 399.545 168.95 399.779 169.88 399.99C171.507 400.367 173.149 400.676 174.807 400.915H174.818C175.018 400.944 175.212 400.972 175.412 401.001C175.429 401.001 175.446 401.007 175.469 401.007C175.469 401.012 175.469 401.012 175.475 401.007C175.691 401.035 175.914 401.064 176.131 401.092C176.146 401.097 176.161 401.099 176.177 401.098C176.382 401.126 176.593 401.149 176.799 401.172C177.021 401.195 177.244 401.218 177.467 401.241C177.638 401.258 177.809 401.275 177.98 401.292C177.995 401.297 178.011 401.299 178.026 401.298C178.18 401.309 178.334 401.326 178.489 401.338H178.511C178.643 401.349 178.78 401.36 178.911 401.372C180.504 401.498 182.102 401.555 183.723 401.555C185.476 401.555 187.217 401.486 188.935 401.338H188.952C189.323 401.303 189.688 401.269 190.054 401.235C190.151 401.223 190.242 401.218 190.339 401.206C190.356 401.206 190.379 401.201 190.396 401.201C190.425 401.195 190.453 401.195 190.487 401.189C190.503 401.19 190.518 401.188 190.533 401.184C190.659 401.172 190.784 401.155 190.916 401.144L191.344 401.092C191.486 401.075 191.629 401.052 191.772 401.035C191.806 401.029 191.835 401.029 191.869 401.024C191.972 401.012 192.074 400.995 192.177 400.978C192.229 400.972 192.28 400.967 192.326 400.961C192.428 400.944 192.525 400.932 192.628 400.915H192.634C195.766 400.464 198.858 399.768 201.881 398.832C202.041 398.78 202.201 398.735 202.361 398.683C201.624 395.246 200.106 392.024 197.926 389.266C195.745 386.509 192.96 384.29 189.785 382.78C190.571 382.032 191.113 381.065 191.344 380.006C191.492 379.322 191.504 378.617 191.378 377.929C191.253 377.241 190.993 376.585 190.613 375.998C189.872 374.861 188.71 374.064 187.382 373.784L178.922 372.014C177.561 371.748 176.149 372.031 174.994 372.801C173.84 373.57 173.036 374.765 172.757 376.124C172.671 376.541 172.633 376.966 172.643 377.391C164.497 382.814 158.635 388.437 154.93 394.408Z" fill="#EA4335"/>
<path d="M179.909 368.673C189.643 368.673 197.534 360.782 197.534 351.048C197.534 341.314 189.643 333.423 179.909 333.423C170.175 333.423 162.284 341.314 162.284 351.048C162.284 360.782 170.175 368.673 179.909 368.673Z" fill="#FFB8B8"/>
<path d="M168.924 366.243C167.044 364.959 165.125 362.492 163.843 360.643C162.146 358.213 160.977 355.453 160.414 352.542C159.851 349.631 159.906 346.634 160.576 343.746C160.789 342.591 161.314 341.516 162.093 340.638C162.923 339.816 164.279 339.427 165.292 340.008C165.015 339.267 164.894 338.478 164.934 337.689C164.974 336.899 165.176 336.127 165.527 335.418C166.239 334.004 167.271 332.775 168.54 331.829C170.969 329.959 173.858 328.781 176.901 328.421C179.945 328.061 183.029 328.531 185.827 329.782C186.928 330.292 185.12 326.352 186.272 326.732C187.417 327.176 188.69 327.153 189.818 326.67C190.902 326.125 194.494 329.366 194.079 328.226C194.901 328.599 195.616 329.175 196.156 329.899C196.696 330.623 197.044 331.472 197.168 332.367C197.292 333.261 197.187 334.173 196.863 335.016C196.54 335.86 196.008 336.607 195.318 337.19C194.409 337.958 193.273 338.4 192.277 339.052C190.532 340.28 189.297 342.104 188.805 344.18C188.313 346.256 188.598 348.44 189.606 350.32C188.558 349.647 187.408 349.148 186.201 348.841C185.596 348.693 184.963 348.692 184.357 348.838C183.751 348.984 183.189 349.272 182.716 349.679C182.322 350.131 182.024 350.658 181.841 351.229C181.657 351.8 181.593 352.402 181.651 352.999C181.69 354.195 181.975 355.373 182.007 356.57C182.1 360.08 183.98 366.753 181.259 368.619C179.111 370.091 171.49 367.996 168.924 366.243Z" fill="#2F2E41"/>
<path d="M192.028 262.831C191.657 262.83 191.289 262.756 190.947 262.612C190.436 262.407 189.999 262.052 189.693 261.594C189.387 261.136 189.226 260.597 189.232 260.046V257.256C189.232 256.671 188.999 256.11 188.585 255.696C188.171 255.283 187.61 255.05 187.025 255.049C186.289 255.048 185.582 254.755 185.062 254.235C184.541 253.714 184.248 253.008 184.247 252.271V214.051C184.248 213.314 184.541 212.608 185.062 212.087C185.582 211.567 186.288 211.274 187.025 211.273H313.651C314.388 211.274 315.094 211.567 315.615 212.087C316.135 212.608 316.428 213.314 316.429 214.051V252.271C316.428 253.008 316.135 253.714 315.615 254.235C315.094 254.755 314.388 255.048 313.651 255.049H201.85C201.56 255.048 201.273 255.105 201.005 255.216C200.737 255.327 200.494 255.49 200.289 255.696L193.975 262.01C193.721 262.269 193.418 262.475 193.084 262.616C192.749 262.757 192.39 262.83 192.028 262.831V262.831Z" fill="white"/>
<path d="M192.028 263.402C191.582 263.401 191.14 263.312 190.728 263.14C190.112 262.892 189.585 262.464 189.217 261.912C188.848 261.36 188.654 260.71 188.661 260.046V257.257C188.661 256.823 188.488 256.407 188.182 256.1C187.875 255.793 187.459 255.621 187.025 255.62C186.137 255.619 185.286 255.266 184.658 254.638C184.03 254.01 183.677 253.159 183.676 252.271V214.051C183.677 213.163 184.03 212.312 184.658 211.684C185.286 211.056 186.137 210.703 187.025 210.702H313.651C314.539 210.703 315.39 211.056 316.018 211.684C316.646 212.312 316.999 213.163 317 214.051V252.271C316.999 253.159 316.646 254.01 316.018 254.638C315.39 255.266 314.539 255.619 313.651 255.62H201.85C201.635 255.619 201.422 255.661 201.223 255.744C201.025 255.826 200.844 255.947 200.693 256.099L194.378 262.414C194.071 262.726 193.706 262.974 193.302 263.143C192.899 263.313 192.465 263.401 192.028 263.402V263.402ZM187.025 211.844C186.44 211.844 185.879 212.077 185.465 212.491C185.051 212.905 184.819 213.466 184.818 214.051V252.271C184.819 252.856 185.051 253.417 185.465 253.831C185.879 254.245 186.44 254.478 187.025 254.478C187.762 254.479 188.468 254.772 188.989 255.293C189.509 255.814 189.802 256.52 189.803 257.257V260.046C189.803 260.483 189.933 260.909 190.175 261.272C190.418 261.635 190.762 261.918 191.166 262.085C191.569 262.252 192.013 262.296 192.441 262.21C192.869 262.125 193.262 261.915 193.571 261.607L199.886 255.292C200.143 255.033 200.449 254.828 200.786 254.688C201.124 254.549 201.485 254.477 201.85 254.478H313.651C314.236 254.478 314.798 254.245 315.211 253.831C315.625 253.417 315.858 252.856 315.858 252.271V214.051C315.858 213.466 315.625 212.905 315.211 212.491C314.797 212.077 314.236 211.844 313.651 211.844L187.025 211.844Z" fill="#3F3D56"/>
<path d="M302.77 228.576H200.089C199.697 228.576 199.321 228.42 199.043 228.143C198.766 227.866 198.61 227.489 198.61 227.097C198.61 226.705 198.766 226.329 199.043 226.051C199.321 225.774 199.697 225.618 200.089 225.618H302.77C303.162 225.618 303.538 225.774 303.816 226.051C304.093 226.329 304.249 226.705 304.249 227.097C304.249 227.489 304.093 227.866 303.816 228.143C303.538 228.42 303.162 228.576 302.77 228.576Z" fill="#EA4335"/>
<path d="M302.581 234.859H200.089C199.697 234.859 199.321 234.703 199.043 234.426C198.766 234.149 198.61 233.773 198.61 233.38C198.61 232.988 198.766 232.612 199.043 232.335C199.321 232.057 199.697 231.901 200.089 231.901H302.581C302.973 231.901 303.349 232.057 303.627 232.335C303.904 232.612 304.06 232.988 304.06 233.38C304.06 233.773 303.904 234.149 303.627 234.426C303.349 234.703 302.973 234.859 302.581 234.859V234.859Z" fill="#E6E6E6"/>
<path d="M302.479 241.142H200.089C199.697 241.142 199.321 240.986 199.043 240.709C198.766 240.432 198.61 240.055 198.61 239.663C198.61 239.271 198.766 238.895 199.043 238.617C199.321 238.34 199.697 238.184 200.089 238.184H302.479C302.871 238.184 303.247 238.34 303.525 238.617C303.802 238.895 303.958 239.271 303.958 239.663C303.958 240.055 303.802 240.432 303.525 240.709C303.247 240.986 302.871 241.142 302.479 241.142V241.142Z" fill="#E6E6E6"/>
<path d="M464.471 205.342C464.471 206.729 464.425 208.116 464.328 209.492C464.225 211.136 464.048 212.768 463.809 214.389C463.003 219.848 461.463 225.173 459.231 230.219C459.116 230.47 459.002 230.721 458.888 230.972L458.717 231.349C458.66 231.475 458.597 231.6 458.54 231.72C458.46 231.886 458.386 232.045 458.306 232.205C458.209 232.405 458.112 232.605 458.009 232.805C457.998 232.827 457.986 232.856 457.969 232.884C457.883 233.056 457.804 233.221 457.712 233.393C457.695 233.43 457.676 233.466 457.655 233.501C457.558 233.695 457.455 233.895 457.353 234.089C457.238 234.294 457.13 234.506 457.016 234.711C456.742 235.219 456.456 235.722 456.165 236.224C456.08 236.372 455.994 236.521 455.903 236.669C455.823 236.806 455.743 236.943 455.657 237.08C455.6 237.171 455.543 237.268 455.486 237.36C455.395 237.514 455.303 237.662 455.206 237.816C454.995 238.153 454.778 238.49 454.567 238.827H454.561C454.464 238.981 454.361 239.135 454.259 239.284V239.289C453.956 239.746 453.642 240.203 453.328 240.653C453.327 240.653 453.327 240.654 453.326 240.654C453.325 240.654 453.325 240.655 453.324 240.655C453.324 240.656 453.323 240.656 453.323 240.657C453.323 240.658 453.322 240.658 453.322 240.659C453.071 241.025 452.809 241.378 452.552 241.732V241.738C452.381 241.961 452.215 242.189 452.044 242.412C451.907 242.594 451.764 242.783 451.621 242.965C451.593 243.005 451.559 243.04 451.53 243.08V243.085C451.49 243.137 451.45 243.182 451.41 243.234C450.805 244.01 450.181 244.769 449.538 245.511L449.435 245.631C449.401 245.671 449.361 245.711 449.327 245.757C449.27 245.82 449.218 245.882 449.161 245.945C449.11 246.008 449.053 246.071 448.996 246.133C445.643 249.91 441.842 253.263 437.676 256.117C437.122 256.5 436.557 256.871 435.992 257.231C435.849 257.322 435.707 257.413 435.564 257.499C435.524 257.527 435.478 257.556 435.438 257.584C435.358 257.63 435.284 257.676 435.204 257.727C435.13 257.773 435.056 257.818 434.976 257.864C434.673 258.053 434.365 258.235 434.057 258.418C433.983 258.464 433.903 258.509 433.823 258.555C433.749 258.595 433.669 258.641 433.589 258.686C433.589 258.692 433.589 258.692 433.583 258.692H433.577V258.698H433.572C433.189 258.92 432.801 259.137 432.407 259.348C432.196 259.463 431.979 259.582 431.762 259.691C431.271 259.959 430.774 260.216 430.278 260.461C430.101 260.547 429.918 260.633 429.741 260.724C429.593 260.793 429.444 260.867 429.296 260.935C429.25 260.958 429.21 260.975 429.17 260.998C429.045 261.055 428.925 261.112 428.799 261.169C428.662 261.232 428.525 261.295 428.394 261.358C428.24 261.426 428.092 261.495 427.937 261.557C427.367 261.814 426.79 262.06 426.214 262.294C424.147 263.141 422.036 263.873 419.889 264.486C419.792 264.514 419.689 264.543 419.586 264.571C418.667 264.828 417.742 265.062 416.812 265.274C415.185 265.65 413.543 265.959 411.886 266.198H411.874C411.674 266.227 411.48 266.255 411.28 266.284C411.263 266.284 411.246 266.29 411.223 266.29C411.223 266.295 411.223 266.295 411.218 266.29C411.001 266.318 410.778 266.347 410.561 266.375C410.546 266.38 410.531 266.382 410.516 266.381C410.31 266.41 410.099 266.432 409.893 266.455C409.671 266.478 409.448 266.501 409.225 266.524C409.054 266.541 408.883 266.558 408.712 266.575C408.697 266.58 408.682 266.582 408.666 266.581C408.512 266.592 408.358 266.609 408.204 266.621H408.181C408.05 266.632 407.913 266.644 407.781 266.655C406.189 266.781 404.59 266.838 402.969 266.838C401.217 266.838 399.476 266.769 397.757 266.621H397.74C397.369 266.587 397.004 266.552 396.639 266.518C396.542 266.507 396.45 266.501 396.353 266.489C396.336 266.489 396.313 266.484 396.296 266.484C396.268 266.478 396.239 266.478 396.205 266.472C396.189 266.473 396.174 266.471 396.159 266.467C396.033 266.455 395.908 266.438 395.777 266.427L395.348 266.375C395.206 266.358 395.063 266.335 394.92 266.318C394.886 266.312 394.858 266.312 394.823 266.307C394.721 266.295 394.618 266.278 394.515 266.261C394.464 266.255 394.412 266.25 394.367 266.244C394.264 266.227 394.167 266.215 394.064 266.198H394.058C390.926 265.747 387.834 265.051 384.811 264.115C384.651 264.063 384.491 264.018 384.331 263.966C384.326 263.966 384.32 263.961 384.314 263.961C384.269 263.944 384.217 263.932 384.172 263.915C383.743 263.778 383.321 263.635 382.899 263.487C382.316 263.293 381.74 263.082 381.163 262.865C381.009 262.802 380.855 262.745 380.701 262.682C380.387 262.562 380.079 262.437 379.77 262.311C379.245 262.1 378.72 261.877 378.201 261.649C377.715 261.432 377.236 261.215 376.756 260.987C376.745 260.981 376.728 260.981 376.716 260.97C376.608 260.918 376.5 260.867 376.397 260.815H376.391C373.762 259.554 371.227 258.106 368.805 256.483C368.028 255.963 367.263 255.427 366.51 254.873C365.905 254.422 365.311 253.965 364.718 253.497C361.789 251.168 359.078 248.577 356.617 245.757V245.751C356.44 245.557 356.275 245.357 356.104 245.157C356.075 245.129 356.052 245.1 356.029 245.077C355.921 244.946 355.818 244.821 355.71 244.695V244.689C355.567 244.524 355.424 244.353 355.287 244.181C355.253 244.141 355.225 244.107 355.196 244.073V244.067C355.082 243.93 354.973 243.793 354.859 243.65C354.802 243.582 354.751 243.513 354.694 243.445V243.439C354.357 243.017 354.031 242.594 353.706 242.161C353.62 242.046 353.535 241.926 353.444 241.807C353.033 241.253 352.633 240.688 352.245 240.123V240.117C352.096 239.906 351.954 239.689 351.805 239.478C351.663 239.261 351.52 239.044 351.377 238.827C351.234 238.599 351.086 238.376 350.943 238.148L350.926 238.113C350.783 237.896 350.641 237.668 350.504 237.445C350.395 237.263 350.287 237.086 350.178 236.909C350.11 236.789 350.036 236.669 349.967 236.544C349.94 236.505 349.916 236.465 349.893 236.424C349.733 236.144 349.573 235.864 349.413 235.585C349.225 235.259 349.042 234.928 348.86 234.597C348.791 234.46 348.717 234.323 348.643 234.186C348.614 234.14 348.591 234.095 348.569 234.049C348.483 233.889 348.397 233.724 348.317 233.558C348.232 233.398 348.146 233.233 348.061 233.067C347.981 232.907 347.895 232.742 347.815 232.576C347.752 232.451 347.695 232.325 347.632 232.199C347.628 232.189 347.622 232.18 347.615 232.171C347.587 232.108 347.558 232.051 347.535 231.994C347.528 231.985 347.523 231.976 347.518 231.965C347.455 231.84 347.398 231.709 347.336 231.583C347.256 231.417 347.181 231.246 347.102 231.081C347.05 230.967 346.993 230.847 346.942 230.727C346.868 230.561 346.788 230.396 346.719 230.224C346.639 230.053 346.565 229.882 346.491 229.705C346.469 229.662 346.45 229.618 346.434 229.574C346.394 229.494 346.365 229.414 346.331 229.334C346.24 229.123 346.148 228.906 346.063 228.695C345.96 228.455 345.863 228.209 345.772 227.97C345.68 227.747 345.595 227.519 345.509 227.29L345.475 227.21C344.145 223.707 343.136 220.09 342.461 216.405V216.399C342.08 214.294 341.807 212.172 341.644 210.04C341.639 209.92 341.627 209.806 341.622 209.692C341.519 208.247 341.473 206.797 341.473 205.342C341.473 204.697 341.485 204.057 341.502 203.418C341.9 190.047 346.668 177.175 355.076 166.77C355.259 166.542 355.441 166.314 355.63 166.085C355.818 165.857 356.012 165.635 356.201 165.412C362.458 158.084 370.35 152.328 379.241 148.61C388.131 144.891 397.77 143.313 407.382 144.004C416.994 144.694 426.309 147.634 434.576 152.585C442.843 157.536 449.832 164.36 454.978 172.507C455.258 172.953 455.537 173.404 455.806 173.855C456.08 174.311 456.342 174.768 456.605 175.23C461.776 184.423 464.486 194.795 464.471 205.342V205.342Z" fill="#F2F2F2"/>
<path d="M405.413 165.117C395.301 167.712 384.937 169.208 374.504 169.578C372.926 169.664 371.344 169.654 369.768 169.546C366.304 169.255 363.336 168.166 360.031 167.571C358.442 167.286 356.673 167.077 355.073 166.769C355.443 166.31 355.819 165.857 356.202 165.41C359.651 165.701 363.154 166.655 366.644 167.099C372.577 167.853 379.226 167.011 383.724 164.935C385.906 163.927 387.578 162.669 389.752 161.657C390.048 161.505 390.368 161.407 390.698 161.367C391.325 161.349 391.945 161.509 392.484 161.831C396.132 163.672 401.429 165.169 406.346 164.346C406.712 164.632 406.016 164.959 405.413 165.117Z" fill="white"/>
<path d="M427.17 171.599C427.215 171.591 427.26 171.584 427.305 171.576C427.116 171.459 426.939 171.325 426.774 171.176L427.17 171.599Z" fill="white"/>
<path d="M456.604 175.233C454.55 175.397 452.486 175.519 450.411 175.599C448.833 175.684 447.252 175.674 445.675 175.567C442.211 175.274 439.243 174.187 435.938 173.592C432.909 173.047 429.229 172.785 427.306 171.577C432.276 170.716 437.426 172.468 442.551 173.119C446.697 173.629 450.899 173.422 454.975 172.506C455.542 173.399 456.085 174.307 456.604 175.233Z" fill="white"/>
<path d="M396.036 232.252C406.237 232.252 414.507 223.797 414.507 213.369C414.507 202.94 406.237 194.486 396.036 194.486C385.835 194.486 377.565 202.94 377.565 213.369C377.565 223.797 385.835 232.252 396.036 232.252Z" fill="#FFB6B6"/>
<path d="M431.762 259.691C431.271 259.959 430.774 260.216 430.278 260.461C430.101 260.547 429.918 260.633 429.741 260.724C429.593 260.793 429.444 260.867 429.296 260.935C429.25 260.958 429.21 260.975 429.17 260.998C429.045 261.055 428.925 261.112 428.799 261.169C428.662 261.232 428.525 261.295 428.394 261.358C428.24 261.426 428.091 261.495 427.937 261.557C427.367 261.814 426.79 262.06 426.213 262.294C424.147 263.141 422.036 263.873 419.889 264.486C419.792 264.514 419.689 264.543 419.586 264.571C418.667 264.828 417.742 265.062 416.812 265.274C415.185 265.65 413.543 265.959 411.885 266.198H411.874C411.674 266.227 411.48 266.255 411.28 266.284C411.263 266.284 411.246 266.29 411.223 266.29C411.223 266.295 411.223 266.295 411.218 266.29C411.001 266.318 410.778 266.347 410.561 266.375C410.546 266.38 410.531 266.382 410.515 266.381C410.31 266.41 410.099 266.432 409.893 266.455C409.671 266.478 409.448 266.501 409.225 266.524C409.054 266.541 408.883 266.558 408.712 266.575C408.697 266.58 408.681 266.582 408.666 266.581C408.512 266.592 408.358 266.609 408.204 266.621H408.181C408.049 266.632 407.912 266.644 407.781 266.655C406.189 266.781 404.59 266.838 402.969 266.838C401.217 266.838 399.476 266.769 397.757 266.621H397.74C397.369 266.587 397.004 266.552 396.638 266.518C396.541 266.507 396.45 266.501 396.353 266.489C396.336 266.489 396.313 266.484 396.296 266.484C396.267 266.478 396.239 266.478 396.205 266.472C396.189 266.473 396.174 266.471 396.159 266.467C396.033 266.455 395.908 266.438 395.777 266.427L395.348 266.375C395.206 266.358 395.063 266.335 394.92 266.318C394.886 266.313 394.857 266.313 394.823 266.307C394.72 266.295 394.618 266.278 394.515 266.261C394.464 266.255 394.412 266.25 394.367 266.244C394.264 266.227 394.167 266.215 394.064 266.198H394.058C390.926 265.747 387.834 265.051 384.811 264.115C384.651 264.063 384.491 264.018 384.331 263.966C385.068 260.529 386.586 257.307 388.766 254.55C390.947 251.792 393.732 249.573 396.907 248.063C396.121 247.315 395.579 246.349 395.348 245.289C395.2 244.606 395.188 243.9 395.314 243.212C395.439 242.524 395.699 241.868 396.079 241.281C396.82 240.144 397.982 239.347 399.31 239.067L407.77 237.297C409.132 237.032 410.543 237.314 411.698 238.084C412.852 238.854 413.656 240.048 413.935 241.407C414.021 241.824 414.059 242.249 414.049 242.674C422.195 248.097 428.057 253.72 431.762 259.691Z" fill="#EA4335"/>
<path d="M445.463 205.179C442.324 201.518 440.831 196.66 438.321 192.502C435.811 188.344 431.443 184.623 426.829 185.591C423.648 186.258 421.19 189.065 419.945 192.194C418.701 195.323 418.467 198.774 418.249 202.155C418.326 195.207 413.749 188.472 407.444 186.255C401.139 184.038 393.593 186.511 389.631 192.093C387.902 190.49 385.645 189.578 383.288 189.528C380.931 189.479 378.638 190.296 376.843 191.824C373.299 194.992 372.515 201.02 375.121 205.06C377.728 209.101 383.372 210.606 387.514 208.365L388.978 209.712C388.154 212.595 389.752 216 392.439 217.085C394.618 217.965 397.694 217.819 398.509 220.105C399.079 221.703 398.014 223.408 396.881 224.636C395.749 225.863 394.404 227.131 394.268 228.83C394.062 231.393 396.711 233.189 399.119 233.73C404.925 235.034 411.368 232.345 414.714 227.221C414.779 227.122 414.849 227.023 414.924 226.924C416.802 224.523 418.17 221.765 418.946 218.817C419.721 215.869 419.887 212.794 419.434 209.78C419.246 208.596 419.436 207.715 420.252 207.434C423.782 206.222 433.669 208.767 436.662 211.066C439.655 213.366 442.051 216.409 444.933 218.857C447.816 221.305 451.489 223.193 455.149 222.526C458.08 221.992 460.574 219.864 462.251 217.297C463.928 214.731 464.894 211.739 465.758 208.765C459.277 212.51 450.405 210.942 445.463 205.179Z" fill="#2F2E41"/>
<path d="M66.2796 167.096C66.2796 168.483 66.3253 169.87 66.4223 171.246C66.5251 172.89 66.702 174.522 66.9418 176.144C67.7475 181.602 69.2875 186.927 71.5199 191.973C71.634 192.224 71.7482 192.475 71.8624 192.726L72.0336 193.103C72.0907 193.229 72.1535 193.354 72.2106 193.474C72.2905 193.64 72.3647 193.799 72.4446 193.959C72.5416 194.159 72.6387 194.359 72.7414 194.559C72.7528 194.581 72.7643 194.61 72.7814 194.639C72.867 194.81 72.9469 194.975 73.0383 195.147C73.0551 195.184 73.0741 195.22 73.0954 195.255C73.1924 195.449 73.2952 195.649 73.3979 195.843C73.5121 196.049 73.6205 196.26 73.7347 196.465C74.0087 196.973 74.2941 197.476 74.5852 197.978C74.6709 198.126 74.7565 198.275 74.8478 198.423C74.9277 198.56 75.0077 198.697 75.0933 198.834C75.1504 198.926 75.2074 199.023 75.2645 199.114C75.3559 199.268 75.4472 199.416 75.5442 199.571C75.7554 199.907 75.9724 200.244 76.1836 200.581H76.1893C76.2863 200.735 76.3891 200.889 76.4918 201.038V201.043C76.7944 201.5 77.1083 201.957 77.4223 202.408C77.423 202.408 77.4238 202.408 77.4245 202.408C77.4252 202.408 77.4258 202.409 77.4264 202.409C77.4269 202.41 77.4273 202.41 77.4276 202.411C77.4279 202.412 77.428 202.413 77.428 202.413C77.6792 202.779 77.9417 203.133 78.1986 203.486V203.492C78.3699 203.715 78.5354 203.943 78.7067 204.166C78.8437 204.348 78.9864 204.537 79.1291 204.719C79.1576 204.759 79.1919 204.794 79.2204 204.834V204.839C79.2604 204.891 79.3003 204.936 79.3403 204.988C79.9454 205.764 80.5695 206.523 81.2126 207.265L81.3154 207.385C81.3496 207.425 81.3896 207.465 81.4238 207.511C81.4809 207.574 81.5323 207.636 81.5894 207.699C81.6407 207.762 81.6978 207.825 81.7549 207.888C85.1075 211.664 88.9088 215.017 93.0746 217.871C93.6283 218.254 94.1934 218.625 94.7585 218.985C94.9012 219.076 95.0439 219.167 95.1866 219.253C95.2266 219.281 95.2723 219.31 95.3122 219.339C95.3921 219.384 95.4663 219.43 95.5463 219.481C95.6205 219.527 95.6947 219.573 95.7746 219.618C96.0771 219.807 96.3854 219.989 96.6936 220.172C96.7679 220.218 96.8478 220.263 96.9277 220.309C97.0019 220.349 97.0818 220.395 97.1617 220.44C97.1617 220.446 97.1617 220.446 97.1674 220.446H97.1731V220.452H97.1788C97.5613 220.674 97.9495 220.891 98.3433 221.102C98.5546 221.217 98.7715 221.336 98.9884 221.445C99.4793 221.713 99.9759 221.97 100.473 222.216C100.65 222.301 100.832 222.387 101.009 222.478C101.158 222.547 101.306 222.621 101.454 222.689C101.5 222.712 101.54 222.729 101.58 222.752C101.706 222.809 101.825 222.866 101.951 222.923C102.088 222.986 102.225 223.049 102.356 223.112C102.51 223.18 102.659 223.249 102.813 223.312C103.384 223.568 103.96 223.814 104.537 224.048C106.603 224.895 108.715 225.627 110.862 226.24C110.959 226.268 111.062 226.297 111.164 226.326C112.083 226.582 113.008 226.816 113.939 227.028C115.565 227.404 117.208 227.713 118.865 227.952H118.876C119.076 227.981 119.27 228.01 119.47 228.038C119.487 228.038 119.504 228.044 119.527 228.044C119.527 228.049 119.527 228.049 119.533 228.044C119.75 228.072 119.972 228.101 120.189 228.129C120.204 228.134 120.219 228.136 120.235 228.135C120.44 228.164 120.652 228.186 120.857 228.209C121.08 228.232 121.302 228.255 121.525 228.278C121.696 228.295 121.867 228.312 122.039 228.329C122.053 228.334 122.069 228.336 122.084 228.335C122.238 228.346 122.393 228.363 122.547 228.375H122.57C122.701 228.386 122.838 228.398 122.969 228.409C124.562 228.535 126.16 228.592 127.781 228.592C129.534 228.592 131.275 228.523 132.993 228.375H133.01C133.381 228.341 133.747 228.306 134.112 228.272C134.209 228.261 134.3 228.255 134.397 228.244C134.414 228.244 134.437 228.238 134.454 228.238C134.483 228.232 134.511 228.232 134.546 228.226C134.561 228.227 134.577 228.225 134.591 228.221C134.717 228.209 134.843 228.192 134.974 228.181L135.402 228.129C135.545 228.112 135.687 228.089 135.83 228.072C135.864 228.067 135.893 228.067 135.927 228.061C136.03 228.049 136.133 228.032 136.235 228.015C136.287 228.01 136.338 228.004 136.384 227.998C136.487 227.981 136.584 227.97 136.686 227.952H136.692C139.824 227.502 142.916 226.805 145.94 225.869C146.099 225.818 146.259 225.772 146.419 225.72C146.425 225.72 146.43 225.715 146.436 225.715C146.482 225.698 146.533 225.686 146.579 225.669C147.007 225.532 147.429 225.389 147.852 225.241C148.434 225.047 149.011 224.836 149.587 224.619C149.741 224.556 149.895 224.499 150.05 224.436C150.363 224.316 150.672 224.191 150.98 224.065C151.505 223.854 152.03 223.631 152.55 223.403C153.035 223.186 153.514 222.969 153.994 222.741C154.005 222.735 154.023 222.735 154.034 222.724C154.142 222.672 154.251 222.621 154.354 222.569H154.359C156.988 221.308 159.523 219.86 161.946 218.237C162.722 217.717 163.487 217.181 164.24 216.627C164.846 216.176 165.439 215.719 166.033 215.251C168.962 212.922 171.673 210.331 174.133 207.511V207.505C174.31 207.311 174.476 207.111 174.647 206.912C174.675 206.883 174.698 206.854 174.721 206.832C174.829 206.7 174.932 206.575 175.041 206.449V206.443C175.183 206.278 175.326 206.107 175.463 205.935C175.497 205.895 175.526 205.861 175.554 205.827V205.821C175.669 205.684 175.777 205.547 175.891 205.405C175.948 205.336 176 205.267 176.057 205.199V205.193C176.394 204.771 176.719 204.348 177.044 203.915C177.13 203.8 177.216 203.681 177.307 203.561C177.718 203.007 178.117 202.442 178.506 201.877V201.871C178.654 201.66 178.797 201.443 178.945 201.232C179.088 201.015 179.231 200.798 179.373 200.581C179.516 200.353 179.664 200.13 179.807 199.902L179.824 199.867C179.967 199.651 180.11 199.422 180.247 199.2C180.355 199.017 180.464 198.84 180.572 198.663C180.641 198.543 180.715 198.423 180.783 198.298C180.81 198.259 180.835 198.219 180.857 198.178C181.017 197.898 181.177 197.618 181.337 197.339C181.525 197.013 181.708 196.682 181.891 196.351C181.959 196.214 182.033 196.077 182.108 195.94C182.136 195.894 182.159 195.849 182.182 195.803C182.267 195.643 182.353 195.478 182.433 195.312C182.519 195.152 182.604 194.987 182.69 194.821C182.77 194.661 182.855 194.496 182.935 194.33C182.998 194.205 183.055 194.079 183.118 193.954C183.122 193.943 183.128 193.934 183.135 193.925C183.164 193.862 183.192 193.805 183.215 193.748C183.222 193.739 183.228 193.73 183.232 193.72C183.295 193.594 183.352 193.463 183.415 193.337C183.495 193.172 183.569 193 183.649 192.835C183.7 192.721 183.757 192.601 183.809 192.481C183.883 192.315 183.963 192.15 184.031 191.979C184.111 191.807 184.185 191.636 184.26 191.459C184.281 191.416 184.3 191.373 184.317 191.328C184.357 191.248 184.385 191.168 184.419 191.088C184.511 190.877 184.602 190.66 184.688 190.449C184.791 190.209 184.888 189.963 184.979 189.724C185.07 189.501 185.156 189.273 185.241 189.044L185.276 188.965C186.606 185.461 187.615 181.844 188.29 178.159V178.153C188.67 176.049 188.943 173.926 189.106 171.794C189.112 171.674 189.123 171.56 189.129 171.446C189.232 170.001 189.277 168.551 189.277 167.096C189.277 166.451 189.266 165.811 189.249 165.172C188.85 151.801 184.082 138.929 175.674 128.525C175.492 128.296 175.309 128.068 175.121 127.84C174.932 127.611 174.738 127.389 174.55 127.166C168.292 119.838 160.4 114.082 151.51 110.364C142.62 106.645 132.98 105.068 123.369 105.758C113.757 106.448 104.442 109.388 96.1744 114.339C87.907 119.29 80.9186 126.114 75.7726 134.261C75.4929 134.707 75.2132 135.158 74.9449 135.609C74.6709 136.065 74.4083 136.522 74.1457 136.984C68.9743 146.177 66.2648 156.549 66.2796 167.096V167.096Z" fill="#F2F2F2"/>
<path d="M125.337 126.871C135.45 129.466 145.813 130.962 156.247 131.332C157.824 131.418 159.406 131.408 160.982 131.3C164.447 131.009 167.414 129.92 170.719 129.325C172.308 129.04 174.078 128.831 175.677 128.523C175.308 128.064 174.931 127.611 174.549 127.164C171.099 127.456 167.597 128.409 164.106 128.853C158.173 129.607 151.525 128.765 147.027 126.689C144.844 125.681 143.173 124.424 140.998 123.411C140.702 123.26 140.382 123.161 140.052 123.122C139.425 123.103 138.805 123.263 138.267 123.585C134.618 125.427 129.321 126.923 124.405 126.1C124.038 126.387 124.734 126.713 125.337 126.871Z" fill="white"/>
<path d="M103.58 133.353C103.535 133.345 103.49 133.338 103.445 133.331C103.634 133.214 103.812 133.08 103.976 132.93L103.58 133.353Z" fill="white"/>
<path d="M74.147 136.987C76.2005 137.151 78.2647 137.273 80.3396 137.353C81.9174 137.439 83.4989 137.428 85.0754 137.321C88.5398 137.028 91.5073 135.941 94.8122 135.346C97.8411 134.801 101.522 134.539 103.445 133.331C98.4744 132.47 93.3246 134.222 88.1993 134.874C84.0536 135.383 79.851 135.176 75.7756 134.26C75.2082 135.153 74.6653 136.062 74.147 136.987Z" fill="white"/>
<path d="M98.9885 221.445C99.4794 221.713 99.9761 221.97 100.473 222.216C100.65 222.301 100.832 222.387 101.009 222.478C101.158 222.547 101.306 222.621 101.455 222.689C101.5 222.712 101.54 222.729 101.58 222.752C101.706 222.809 101.826 222.866 101.951 222.923C102.088 222.986 102.225 223.049 102.356 223.112C102.511 223.18 102.659 223.249 102.813 223.312C103.384 223.568 103.96 223.814 104.537 224.048C106.603 224.895 108.715 225.627 110.862 226.24C110.959 226.269 111.062 226.297 111.164 226.326C112.084 226.582 113.008 226.817 113.939 227.028C115.566 227.404 117.208 227.713 118.865 227.952H118.876C119.076 227.981 119.27 228.01 119.47 228.038C119.487 228.038 119.504 228.044 119.527 228.044C119.527 228.05 119.527 228.05 119.533 228.044C119.75 228.072 119.972 228.101 120.189 228.129C120.204 228.134 120.22 228.136 120.235 228.135C120.441 228.164 120.652 228.187 120.857 228.209C121.08 228.232 121.302 228.255 121.525 228.278C121.696 228.295 121.868 228.312 122.039 228.329C122.054 228.334 122.069 228.336 122.085 228.335C122.239 228.346 122.393 228.363 122.547 228.375H122.57C122.701 228.386 122.838 228.398 122.969 228.409C124.562 228.535 126.16 228.592 127.781 228.592C129.534 228.592 131.275 228.523 132.993 228.375H133.01C133.381 228.341 133.747 228.306 134.112 228.272C134.209 228.261 134.3 228.255 134.397 228.244C134.415 228.244 134.437 228.238 134.454 228.238C134.483 228.232 134.512 228.232 134.546 228.226C134.561 228.227 134.577 228.225 134.591 228.221C134.717 228.209 134.843 228.192 134.974 228.181L135.402 228.129C135.545 228.112 135.687 228.089 135.83 228.072C135.864 228.067 135.893 228.067 135.927 228.061C136.03 228.05 136.133 228.032 136.235 228.015C136.287 228.01 136.338 228.004 136.384 227.998C136.487 227.981 136.584 227.97 136.686 227.953H136.692C139.825 227.502 142.917 226.805 145.94 225.869C146.1 225.818 146.259 225.772 146.419 225.721C145.682 222.283 144.165 219.061 141.984 216.304C139.804 213.546 137.018 211.327 133.844 209.817C134.629 209.069 135.172 208.103 135.402 207.043C135.55 206.36 135.562 205.654 135.437 204.966C135.311 204.279 135.051 203.622 134.671 203.036C133.931 201.898 132.769 201.101 131.44 200.821L122.981 199.051C121.619 198.786 120.207 199.068 119.053 199.838C117.898 200.608 117.094 201.802 116.816 203.161C116.729 203.578 116.691 204.003 116.702 204.428C108.556 209.851 102.693 215.474 98.9885 221.445Z" fill="#EA4335"/>
<path d="M132.456 193.341C143.828 193.341 153.047 184.121 153.047 172.749C153.047 161.376 143.828 152.157 132.456 152.157C121.083 152.157 111.864 161.376 111.864 172.749C111.864 184.121 121.083 193.341 132.456 193.341Z" fill="#9E616A"/>
<path d="M129.529 192.24C124.374 193.632 118.691 191.781 114.668 188.27C110.645 184.759 108.128 179.783 106.678 174.644C105.616 170.88 105.113 166.702 106.789 163.169C108.464 159.635 112.975 157.251 116.454 159.036C114.308 156.535 115.38 152.399 117.887 150.259C120.394 148.12 123.837 147.506 127.116 147.171C131.874 146.684 136.789 146.63 141.317 148.172C145.846 149.713 149.96 153.083 151.377 157.652C152.824 158.326 154.454 158.501 156.011 158.149C157.569 157.797 158.966 156.939 159.983 155.709C160.245 157.122 160.035 158.582 159.384 159.863C158.732 161.145 157.677 162.176 156.381 162.797L163.319 160.548C164.512 163.073 162.421 166.199 159.748 167.008C157.074 167.817 154.188 166.933 151.651 165.764C149.114 164.596 146.656 163.118 143.9 162.663C141.144 162.207 137.907 163.093 136.632 165.578C135.965 166.88 135.93 168.404 135.542 169.815C135.155 171.226 134.173 172.688 132.714 172.804C131.793 172.877 130.891 172.386 129.972 172.486C129.408 172.597 128.889 172.87 128.478 173.272C128.067 173.673 127.782 174.186 127.657 174.747C127.429 175.874 127.426 177.034 127.649 178.161L129.412 191.632L129.529 192.24Z" fill="#2F2E41"/>
</g>
<defs>
<clipPath id="clip0_27_568">
<rect width="462" height="359.555" fill="white" transform="translate(19 42)"/>
</clipPath>
</defs>
</svg>
