<svg width="500" height="500" viewBox="0 0 500 500" fill="none" xmlns="http://www.w3.org/2000/svg">
<g clip-path="url(#clip0_24_210)">
<path d="M284.221 96.7871C288.07 104.977 279.915 107.297 270.573 111.687C261.231 116.077 254.24 120.874 250.392 112.684C246.543 104.494 243.42 88.238 256.636 82.0279C270.307 75.6038 280.373 88.597 284.221 96.7871Z" fill="#2F2E41"/>
<path d="M265.162 112.894C272.107 112.894 277.738 107.263 277.738 100.318C277.738 93.372 272.107 87.7415 265.162 87.7415C258.216 87.7415 252.585 93.372 252.585 100.318C252.585 107.263 258.216 112.894 265.162 112.894Z" fill="#FFB8B8"/>
<path d="M327.466 156.09C327.031 155.522 326.595 154.964 326.155 154.421C325.587 153.714 325.015 153.03 324.44 152.368C317.922 144.846 310.989 140.109 303.354 139.603H303.344L303.231 139.592L288.019 154.421L282.847 159.459L282.96 159.736L285.75 166.684H334.645C332.442 163.028 330.045 159.492 327.466 156.09V156.09Z" fill="#2F2E41"/>
<path d="M251.486 105.381L255.988 103.265L255.361 96.7709L258.371 102.145L260.523 101.134L260.157 97.3459L261.913 100.481L277.901 92.9681C276.399 89.7725 273.69 87.3044 270.368 86.1066C267.047 84.9088 263.386 85.0794 260.19 86.5811L257.873 87.6699C254.678 89.1715 252.209 91.8811 251.012 95.2025C249.814 98.5239 249.984 102.185 251.486 105.381V105.381Z" fill="#2F2E41"/>
<path d="M355.679 333.658H93.0877C90.8478 333.655 88.7004 332.764 87.1165 331.18C85.5326 329.597 84.6417 327.449 84.6392 325.209V167.424C84.641 165.783 85.2937 164.209 86.454 163.049C87.6143 161.888 89.1876 161.236 90.8286 161.234H357.831C359.501 161.236 361.101 161.9 362.281 163.08C363.462 164.261 364.126 165.861 364.128 167.531V325.209C364.125 327.449 363.234 329.597 361.65 331.18C360.066 332.764 357.919 333.655 355.679 333.658Z" fill="#F2F2F2"/>
<path d="M101.28 325.209H347.487C349.659 325.209 351.743 324.346 353.28 322.81C354.816 321.273 355.679 319.189 355.679 317.017V183.095C355.679 180.922 354.816 178.838 353.28 177.302C351.743 175.765 349.659 174.902 347.487 174.902H101.28C99.1075 174.902 97.0237 175.765 95.4873 177.302C93.9509 178.838 93.0878 180.922 93.0878 183.095V317.017C93.0878 319.189 93.9509 321.273 95.4873 322.81C97.0237 324.346 99.1075 325.209 101.28 325.209Z" fill="white"/>
<path d="M364.01 166.94H84.5205V162.639C84.5238 160.392 85.4183 158.237 87.008 156.649C88.5976 155.06 90.7525 154.167 92.9998 154.165H355.531C357.778 154.167 359.933 155.06 361.523 156.649C363.112 158.237 364.007 160.392 364.01 162.639V166.94Z" fill="#FBBC05"/>
<path d="M99.9304 162.759C101.142 162.759 102.124 161.777 102.124 160.565C102.124 159.354 101.142 158.372 99.9304 158.372C98.7191 158.372 97.7372 159.354 97.7372 160.565C97.7372 161.777 98.7191 162.759 99.9304 162.759Z" fill="white"/>
<path d="M108.255 162.759C109.467 162.759 110.449 161.777 110.449 160.565C110.449 159.354 109.467 158.372 108.255 158.372C107.044 158.372 106.062 159.354 106.062 160.565C106.062 161.777 107.044 162.759 108.255 162.759Z" fill="white"/>
<path d="M116.581 162.759C117.792 162.759 118.774 161.777 118.774 160.565C118.774 159.354 117.792 158.372 116.581 158.372C115.369 158.372 114.387 159.354 114.387 160.565C114.387 161.777 115.369 162.759 116.581 162.759Z" fill="white"/>
<path d="M232.066 296.166H210.048C208.758 296.164 207.522 295.652 206.61 294.74C205.698 293.828 205.185 292.591 205.184 291.302V269.284C205.185 267.994 205.698 266.758 206.61 265.846C207.522 264.934 208.758 264.421 210.048 264.42H232.066C233.355 264.421 234.592 264.934 235.504 265.846C236.415 266.758 236.928 267.994 236.93 269.284V291.302C236.928 292.591 236.415 293.828 235.504 294.74C234.592 295.652 233.355 296.164 232.066 296.166V296.166ZM210.048 265.444C209.03 265.445 208.054 265.85 207.334 266.57C206.614 267.29 206.209 268.266 206.208 269.284V291.302C206.209 292.32 206.614 293.296 207.334 294.016C208.054 294.736 209.03 295.141 210.048 295.142H232.066C233.084 295.141 234.06 294.736 234.78 294.016C235.5 293.296 235.905 292.32 235.906 291.302V269.284C235.905 268.266 235.5 267.29 234.78 266.57C234.06 265.85 233.084 265.445 232.066 265.444H210.048Z" fill="#CCCCCC"/>
<path d="M227.713 290.022H214.4C213.993 290.021 213.603 289.859 213.315 289.571C213.027 289.283 212.865 288.893 212.864 288.485V272.1C212.865 271.693 213.027 271.303 213.315 271.015C213.603 270.727 213.993 270.565 214.4 270.564H224.047C224.397 270.565 224.736 270.684 225.009 270.903L228.675 273.849C228.855 273.993 229 274.175 229.099 274.382C229.199 274.59 229.25 274.817 229.25 275.047V288.485C229.249 288.893 229.087 289.283 228.799 289.571C228.511 289.859 228.121 290.021 227.713 290.022V290.022ZM214.4 271.588C214.265 271.588 214.135 271.642 214.039 271.738C213.943 271.834 213.889 271.965 213.888 272.1V288.485C213.889 288.621 213.943 288.751 214.039 288.847C214.135 288.943 214.265 288.997 214.4 288.997H227.713C227.849 288.997 227.979 288.943 228.075 288.847C228.171 288.751 228.225 288.621 228.225 288.485V275.047C228.226 274.97 228.209 274.894 228.175 274.825C228.142 274.756 228.094 274.695 228.034 274.647L224.367 271.701C224.276 271.628 224.163 271.588 224.047 271.588H214.4Z" fill="#CCCCCC"/>
<path d="M225.153 277.733H216.961C216.825 277.733 216.695 277.679 216.599 277.583C216.503 277.487 216.449 277.356 216.449 277.221C216.449 277.085 216.503 276.955 216.599 276.859C216.695 276.763 216.825 276.709 216.961 276.709H225.153C225.289 276.709 225.419 276.763 225.515 276.859C225.611 276.955 225.665 277.085 225.665 277.221C225.665 277.356 225.611 277.487 225.515 277.583C225.419 277.679 225.289 277.733 225.153 277.733Z" fill="#CCCCCC"/>
<path d="M225.153 280.805H216.961C216.825 280.805 216.695 280.751 216.599 280.655C216.503 280.559 216.449 280.429 216.449 280.293C216.449 280.157 216.503 280.027 216.599 279.931C216.695 279.835 216.825 279.781 216.961 279.781H225.153C225.289 279.781 225.419 279.835 225.515 279.931C225.611 280.027 225.665 280.157 225.665 280.293C225.665 280.429 225.611 280.559 225.515 280.655C225.419 280.751 225.289 280.805 225.153 280.805Z" fill="#CCCCCC"/>
<path d="M225.153 283.877H216.961C216.825 283.877 216.695 283.823 216.599 283.727C216.503 283.631 216.449 283.501 216.449 283.365C216.449 283.229 216.503 283.099 216.599 283.003C216.695 282.907 216.825 282.853 216.961 282.853H225.153C225.289 282.853 225.419 282.907 225.515 283.003C225.611 283.099 225.665 283.229 225.665 283.365C225.665 283.501 225.611 283.631 225.515 283.727C225.419 283.823 225.289 283.877 225.153 283.877Z" fill="#CCCCCC"/>
<path d="M284.293 296.166H262.276C260.986 296.164 259.75 295.652 258.838 294.74C257.926 293.828 257.413 292.591 257.411 291.302V269.284C257.413 267.994 257.926 266.758 258.838 265.846C259.75 264.934 260.986 264.421 262.276 264.42H284.293C285.583 264.421 286.819 264.934 287.731 265.846C288.643 266.758 289.156 267.994 289.158 269.284V291.302C289.156 292.591 288.643 293.828 287.731 294.74C286.819 295.652 285.583 296.164 284.293 296.166V296.166ZM262.276 265.444C261.258 265.445 260.281 265.85 259.561 266.57C258.842 267.29 258.437 268.266 258.435 269.284V291.302C258.437 292.32 258.842 293.296 259.561 294.016C260.281 294.736 261.258 295.141 262.276 295.142H284.293C285.311 295.141 286.288 294.736 287.007 294.016C287.727 293.296 288.132 292.32 288.133 291.302V269.284C288.132 268.266 287.727 267.29 287.007 266.57C286.288 265.85 285.311 265.445 284.293 265.444H262.276Z" fill="#CCCCCC"/>
<path d="M280.453 285.925H266.116C265.709 285.925 265.318 285.763 265.03 285.475C264.742 285.187 264.58 284.796 264.58 284.389V276.197C264.58 275.789 264.742 275.399 265.03 275.111C265.318 274.823 265.709 274.661 266.116 274.66H280.453C280.86 274.661 281.251 274.823 281.539 275.111C281.827 275.399 281.989 275.789 281.989 276.197V284.389C281.989 284.796 281.827 285.187 281.539 285.475C281.251 285.763 280.86 285.925 280.453 285.925V285.925ZM266.116 275.685C265.98 275.685 265.85 275.739 265.754 275.835C265.658 275.931 265.604 276.061 265.604 276.197V284.389C265.604 284.525 265.658 284.655 265.754 284.751C265.85 284.847 265.98 284.901 266.116 284.901H280.453C280.589 284.901 280.719 284.847 280.815 284.751C280.911 284.655 280.965 284.525 280.965 284.389V276.197C280.965 276.061 280.911 275.931 280.815 275.835C280.719 275.739 280.589 275.685 280.453 275.685H266.116Z" fill="#CCCCCC"/>
<path d="M273.284 281.644C272.997 281.644 272.715 281.564 272.47 281.412L264.82 276.631C264.705 276.559 264.624 276.444 264.594 276.312C264.563 276.18 264.587 276.041 264.658 275.926C264.73 275.811 264.845 275.729 264.977 275.698C265.109 275.668 265.248 275.691 265.363 275.762L273.013 280.543C273.095 280.594 273.189 280.621 273.285 280.621C273.381 280.621 273.475 280.594 273.556 280.543L281.206 275.762C281.321 275.691 281.46 275.668 281.592 275.698C281.724 275.729 281.839 275.811 281.91 275.926C281.982 276.041 282.006 276.18 281.975 276.312C281.945 276.444 281.863 276.559 281.749 276.631L274.099 281.412C273.855 281.564 273.572 281.644 273.284 281.644V281.644Z" fill="#CCCCCC"/>
<path d="M179.838 296.166H157.821C156.531 296.164 155.294 295.652 154.383 294.74C153.471 293.828 152.958 292.591 152.956 291.302V269.284C152.958 267.994 153.471 266.758 154.383 265.846C155.294 264.934 156.531 264.421 157.821 264.42H179.838C181.128 264.421 182.364 264.934 183.276 265.846C184.188 266.758 184.701 267.994 184.702 269.284V291.302C184.701 292.591 184.188 293.828 183.276 294.74C182.364 295.652 181.128 296.164 179.838 296.166V296.166ZM157.821 265.444C156.802 265.445 155.826 265.85 155.106 266.57C154.386 267.29 153.981 268.266 153.98 269.284V291.302C153.981 292.32 154.386 293.296 155.106 294.016C155.826 294.736 156.802 295.141 157.821 295.142H179.838C180.856 295.141 181.832 294.736 182.552 294.016C183.272 293.296 183.677 292.32 183.678 291.302V269.284C183.677 268.266 183.272 267.29 182.552 266.57C181.832 265.85 180.856 265.445 179.838 265.444H157.821Z" fill="#CCCCCC"/>
<path d="M175.998 285.925H161.661C161.254 285.925 160.863 285.763 160.575 285.475C160.287 285.187 160.125 284.796 160.125 284.389V276.197C160.125 275.789 160.287 275.399 160.575 275.111C160.863 274.823 161.254 274.661 161.661 274.66H175.998C176.405 274.661 176.796 274.823 177.084 275.111C177.372 275.399 177.534 275.789 177.534 276.197V284.389C177.534 284.796 177.372 285.187 177.084 285.475C176.796 285.763 176.405 285.925 175.998 285.925V285.925ZM161.661 275.685C161.525 275.685 161.395 275.739 161.299 275.835C161.203 275.931 161.149 276.061 161.149 276.197V284.389C161.149 284.525 161.203 284.655 161.299 284.751C161.395 284.847 161.525 284.901 161.661 284.901H175.998C176.134 284.901 176.264 284.847 176.36 284.751C176.456 284.655 176.51 284.525 176.51 284.389V276.197C176.51 276.061 176.456 275.931 176.36 275.835C176.264 275.739 176.134 275.685 175.998 275.685H161.661Z" fill="#CCCCCC"/>
<path d="M173.725 285.925H163.421C163.241 285.925 163.065 285.878 162.909 285.788C162.753 285.698 162.624 285.569 162.534 285.413C162.444 285.258 162.397 285.081 162.397 284.901C162.397 284.721 162.444 284.545 162.534 284.389L165.638 279.013C165.728 278.857 165.857 278.728 166.013 278.638C166.169 278.548 166.345 278.501 166.525 278.501C166.705 278.501 166.881 278.548 167.037 278.638C167.193 278.728 167.322 278.857 167.412 279.013L169.417 282.485L170.578 280.473C170.668 280.318 170.797 280.188 170.953 280.099C171.108 280.009 171.285 279.961 171.465 279.961C171.645 279.961 171.821 280.009 171.977 280.099C172.133 280.188 172.262 280.318 172.352 280.473L174.612 284.389C174.702 284.545 174.75 284.721 174.75 284.901C174.75 285.081 174.702 285.258 174.612 285.413C174.522 285.569 174.393 285.698 174.237 285.788C174.082 285.878 173.905 285.925 173.725 285.925H173.725ZM173.725 284.901L171.465 280.985L169.86 283.765C169.815 283.843 169.751 283.908 169.673 283.953C169.595 283.998 169.506 284.021 169.417 284.021V284.021C169.327 284.021 169.238 283.998 169.16 283.953C169.083 283.908 169.018 283.843 168.973 283.765L166.525 279.525L163.421 284.901H173.725Z" fill="#CCCCCC"/>
<path d="M174.462 278.757C175.027 278.757 175.486 278.298 175.486 277.733C175.486 277.167 175.027 276.708 174.462 276.708C173.896 276.708 173.438 277.167 173.438 277.733C173.438 278.298 173.896 278.757 174.462 278.757Z" fill="#CCCCCC"/>
<path d="M419.325 412.178L413.047 412.178L410.061 387.965L419.326 387.965L419.325 412.178Z" fill="#FFB8B8"/>
<path d="M420.925 418.263L400.684 418.262V418.006C400.684 416.972 400.888 415.947 401.284 414.992C401.68 414.036 402.26 413.167 402.992 412.436C403.724 411.704 404.592 411.124 405.548 410.728C406.504 410.332 407.528 410.128 408.563 410.128H408.563L420.926 410.129L420.925 418.263Z" fill="#2F2E41"/>
<path d="M444.926 412.178L438.649 412.178L435.662 387.965L444.927 387.965L444.926 412.178Z" fill="#FFB8B8"/>
<path d="M446.527 418.263L426.286 418.262V418.006C426.286 416.972 426.49 415.947 426.886 414.992C427.282 414.036 427.862 413.167 428.594 412.436C429.325 411.704 430.194 411.124 431.149 410.728C432.105 410.332 433.13 410.128 434.164 410.128H434.165L446.527 410.129L446.527 418.263Z" fill="#2F2E41"/>
<path d="M443.044 401.682L437.23 399.913C436.797 399.782 436.412 399.526 436.124 399.176C435.835 398.827 435.657 398.401 435.609 397.95L430.189 346.58C430.185 346.518 430.157 346.46 430.112 346.417C430.066 346.375 430.006 346.351 429.944 346.351C429.882 346.345 429.82 346.363 429.771 346.403C429.722 346.442 429.69 346.498 429.683 346.56L420.604 396.33C420.549 396.632 420.434 396.92 420.266 397.177C420.098 397.434 419.88 397.654 419.626 397.826C419.371 397.998 419.085 398.117 418.784 398.177C418.483 398.236 418.173 398.235 417.872 398.173L410.442 396.642C409.897 396.528 409.411 396.222 409.075 395.778C408.738 395.335 408.572 394.785 408.608 394.23L414.13 312.656L451.58 308.615L446.015 399.618C445.979 400.203 445.721 400.752 445.295 401.154C444.868 401.556 444.305 401.781 443.719 401.782C443.49 401.782 443.263 401.748 443.044 401.682V401.682Z" fill="#2F2E41"/>
<path d="M443.009 241.618C449.954 241.618 455.585 235.988 455.585 229.042C455.585 222.097 449.954 216.466 443.009 216.466C436.063 216.466 430.433 222.097 430.433 229.042C430.433 235.988 436.063 241.618 443.009 241.618Z" fill="#FFB8B8"/>
<path d="M414.073 313.135L422.193 262.008C422.624 259.289 423.63 256.694 425.143 254.395C426.656 252.095 428.641 250.144 430.966 248.672C433.292 247.199 435.904 246.239 438.63 245.854C441.355 245.47 444.131 245.67 446.773 246.442V246.442C451.392 247.778 455.348 250.788 457.866 254.885C460.385 258.981 461.286 263.869 460.394 268.594L451.899 314.253L414.073 313.135Z" fill="#FBBC05"/>
<path d="M446.481 322.283C447.109 321.868 447.638 321.321 448.032 320.679C448.426 320.038 448.674 319.318 448.759 318.57C448.844 317.822 448.765 317.064 448.526 316.351C448.286 315.637 447.894 314.984 447.375 314.439L455.771 298.181L446.316 299.19L439.793 314.474C438.934 315.406 438.447 316.621 438.424 317.888C438.401 319.155 438.844 320.386 439.668 321.349C440.492 322.312 441.641 322.938 442.897 323.11C444.152 323.283 445.428 322.988 446.481 322.283V322.283Z" fill="#FFB8B8"/>
<path d="M448.278 311.571C447.814 311.505 447.381 311.3 447.036 310.982L443.824 308.014C443.477 307.692 443.237 307.271 443.137 306.808C443.037 306.345 443.082 305.862 443.265 305.426L449.684 290.209L448.774 260.142C448.905 259.176 449.225 258.245 449.716 257.402C450.207 256.559 450.859 255.821 451.635 255.231C452.412 254.64 453.297 254.209 454.24 253.961C455.183 253.712 456.166 253.652 457.132 253.784C458.099 253.916 459.03 254.237 459.872 254.729C460.714 255.221 461.451 255.874 462.041 256.65C462.631 257.427 463.062 258.313 463.309 259.256C463.557 260.2 463.616 261.183 463.483 262.149L465.04 281.049C465.513 286.786 463.887 292.499 460.464 297.126L450.452 310.66C450.26 310.92 450.014 311.137 449.733 311.296C449.451 311.455 449.138 311.553 448.816 311.583C448.637 311.601 448.457 311.596 448.278 311.571V311.571Z" fill="#FBBC05"/>
<path d="M370.587 222.19C370.724 222.93 371.022 223.631 371.459 224.244C371.896 224.857 372.462 225.366 373.118 225.736C373.773 226.106 374.502 226.328 375.253 226.386C376.003 226.444 376.757 226.337 377.462 226.072L389.16 240.142L391.917 231.042L380.386 219.077C379.862 217.922 378.933 217 377.776 216.485C376.618 215.97 375.311 215.897 374.103 216.281C372.895 216.665 371.87 217.478 371.222 218.567C370.574 219.657 370.348 220.946 370.587 222.19V222.19Z" fill="#FFB8B8"/>
<path d="M379.75 228.022C379.992 227.62 380.35 227.301 380.777 227.108L384.763 225.307C385.195 225.113 385.676 225.057 386.141 225.145C386.606 225.233 387.033 225.463 387.364 225.801L398.874 237.646L426.916 248.53C427.755 249.027 428.488 249.685 429.073 250.466C429.658 251.247 430.083 252.135 430.324 253.08C430.565 254.025 430.618 255.009 430.479 255.974C430.34 256.94 430.011 257.868 429.513 258.707C429.015 259.546 428.356 260.278 427.575 260.862C426.793 261.446 425.905 261.87 424.959 262.11C424.014 262.35 423.03 262.402 422.065 262.261C421.099 262.121 420.171 261.792 419.333 261.293L401.321 255.358C395.854 253.557 391.228 249.832 388.302 244.875L379.742 230.379C379.577 230.101 379.473 229.79 379.437 229.469C379.4 229.147 379.432 228.821 379.529 228.513C379.583 228.341 379.657 228.176 379.75 228.022V228.022Z" fill="#FBBC05"/>
<path opacity="0.1" d="M453.21 272.65L452.698 289.035L443.265 305.426L451.141 287.16L453.21 272.65Z" fill="black"/>
<path d="M441.568 231.406C440.778 231.508 439.978 231.321 439.316 230.878C438.654 230.435 438.175 229.767 437.968 228.998C437.769 228.113 437.332 227.298 436.705 226.642C436.078 225.986 435.285 225.513 434.409 225.273C432.102 224.746 429.283 225.832 427.592 224.084C427.23 223.685 426.968 223.206 426.828 222.686C426.688 222.166 426.673 221.62 426.786 221.093C427.097 219.394 428.312 218.111 429.634 217.085C432.417 214.935 435.784 213.677 439.294 213.475C441.111 213.422 442.93 213.513 444.732 213.745C446.62 213.864 448.487 214.206 450.295 214.762C452.355 215.539 454.185 216.823 455.617 218.495C457.049 220.167 458.037 222.172 458.489 224.327C458.902 226.488 458.838 228.713 458.303 230.847C457.767 232.981 456.772 234.973 455.387 236.682C453.729 238.747 451.592 240.374 449.16 241.423C448.581 241.697 447.918 241.73 447.314 241.517C445.8 240.915 446.047 239.039 446.738 237.788C447.476 236.449 448.613 235.153 448.019 233.523C447.721 232.768 447.149 232.152 446.418 231.8C444.913 231.032 443.229 231.214 441.61 231.401L441.568 231.406Z" fill="#2F2E41"/>
<path d="M366.384 238.507H210.725C208.486 238.505 206.338 237.614 204.754 236.03C203.17 234.446 202.279 232.299 202.277 230.059V196.777C202.279 194.537 203.17 192.389 204.754 190.805C206.338 189.221 208.486 188.331 210.725 188.328H366.384C368.624 188.331 370.772 189.222 372.355 190.805C373.939 192.389 374.83 194.537 374.833 196.777V230.059C374.83 232.299 373.939 234.446 372.355 236.03C370.772 237.614 368.624 238.505 366.384 238.507V238.507Z" fill="white"/>
<path d="M366.384 238.764H210.725C208.418 238.761 206.205 237.843 204.573 236.211C202.941 234.579 202.023 232.367 202.021 230.059V196.777C202.023 194.469 202.941 192.256 204.573 190.624C206.205 188.993 208.418 188.075 210.725 188.072H366.384C368.692 188.075 370.904 188.993 372.536 190.624C374.168 192.256 375.086 194.469 375.089 196.777V230.059C375.086 232.367 374.168 234.579 372.536 236.211C370.904 237.843 368.692 238.761 366.384 238.764ZM210.725 189.096C208.689 189.098 206.737 189.908 205.297 191.348C203.857 192.788 203.047 194.74 203.045 196.777V230.059C203.047 232.095 203.857 234.048 205.297 235.487C206.737 236.927 208.689 237.737 210.725 237.739H366.384C368.42 237.737 370.373 236.927 371.812 235.487C373.252 234.048 374.062 232.095 374.065 230.059V196.777C374.062 194.74 373.252 192.788 371.812 191.348C370.373 189.908 368.42 189.098 366.384 189.096H210.725Z" fill="#3F3D56"/>
<path d="M347.439 230.315H229.671C227.431 230.312 225.283 229.422 223.7 227.838C222.116 226.254 221.225 224.106 221.222 221.866V204.457C221.225 202.217 222.116 200.07 223.7 198.486C225.283 196.902 227.431 196.011 229.671 196.009H347.439C349.679 196.011 351.826 196.902 353.41 198.486C354.994 200.07 355.885 202.217 355.888 204.457V221.866C355.885 224.106 354.994 226.254 353.41 227.838C351.826 229.422 349.679 230.312 347.439 230.315V230.315Z" fill="#F2F2F2"/>
<path d="M255.014 220.932C260.594 220.932 265.118 216.408 265.118 210.828C265.118 205.248 260.594 200.724 255.014 200.724C249.434 200.724 244.91 205.248 244.91 210.828C244.91 216.408 249.434 220.932 255.014 220.932Z" fill="#FF6584"/>
<path d="M340.12 229.295L325.859 217.334L311.844 205.58C311.474 205.27 311.006 205.1 310.523 205.101C310.041 205.102 309.574 205.273 309.205 205.585L295.235 217.393L291.823 220.278L286.678 215.963L271.042 202.849C270.672 202.539 270.204 202.369 269.722 202.37C269.239 202.371 268.772 202.543 268.404 202.854L252.818 216.028L236.988 229.409C236.907 229.477 236.85 229.568 236.823 229.669C236.796 229.771 236.801 229.878 236.838 229.977C236.874 230.075 236.939 230.16 237.026 230.22C237.112 230.28 237.214 230.313 237.319 230.312L269.775 230.25L280.049 230.23L279.948 230.315L310.572 230.256L339.792 230.2C339.897 230.2 340 230.167 340.086 230.107C340.172 230.046 340.237 229.961 340.273 229.862C340.309 229.764 340.313 229.656 340.286 229.555C340.259 229.453 340.201 229.363 340.12 229.295Z" fill="#3F3D56"/>
<path d="M473.829 419H375.518C375.382 419 375.252 418.946 375.156 418.85C375.06 418.754 375.006 418.624 375.006 418.488C375.006 418.352 375.06 418.222 375.156 418.126C375.252 418.03 375.382 417.976 375.518 417.976H473.829C473.965 417.976 474.095 418.03 474.191 418.126C474.287 418.222 474.341 418.352 474.341 418.488C474.341 418.624 474.287 418.754 474.191 418.85C474.095 418.946 473.965 419 473.829 419Z" fill="#CCCCCC"/>
<path d="M334.957 147.846C334.548 147.182 334.008 146.607 333.37 146.159C332.731 145.71 332.008 145.395 331.245 145.235C330.965 145.176 330.681 145.14 330.395 145.127L291.383 110.248C290.616 109.46 289.594 108.972 288.5 108.87C288.284 108.845 288.067 108.839 287.85 108.85C286.95 108.891 286.081 109.193 285.35 109.72C284.619 110.246 284.057 110.975 283.733 111.815C283.41 112.656 283.338 113.573 283.527 114.454C283.716 115.335 284.158 116.142 284.798 116.776L299.734 129.797L324.261 151.175C324.281 151.577 324.341 151.977 324.44 152.368C324.733 153.5 325.364 154.516 326.248 155.281C327.133 156.047 328.229 156.525 329.391 156.653C330.451 156.777 331.525 156.6 332.489 156.141C333.253 155.784 333.931 155.265 334.476 154.621C334.532 154.554 334.583 154.493 334.634 154.421C335.35 153.488 335.765 152.359 335.823 151.184C335.88 150.009 335.578 148.845 334.957 147.846H334.957Z" fill="#FFB8B8"/>
<path d="M268.229 181.461L267.865 166.684L267.558 154.421L267.348 145.839L266.933 129.111C266.851 128.215 266.51 127.363 265.952 126.658C265.393 125.953 264.642 125.426 263.789 125.141C262.936 124.855 262.018 124.825 261.148 125.053C260.278 125.28 259.493 125.756 258.889 126.423C258.747 126.575 258.618 126.74 258.505 126.914C257.875 127.817 257.591 128.917 257.706 130.012L258.618 154.421L259.073 166.684L259.657 182.327C259.489 182.557 259.336 182.798 259.201 183.049C258.837 183.739 258.617 184.497 258.555 185.275C258.492 186.053 258.589 186.835 258.838 187.575C259.098 188.351 259.52 189.063 260.075 189.664C260.63 190.265 261.306 190.741 262.059 191.062C262.812 191.383 263.624 191.541 264.442 191.525C265.26 191.509 266.065 191.32 266.805 190.97C267.664 190.564 268.41 189.952 268.977 189.189C269.543 188.426 269.914 187.536 270.054 186.596C270.195 185.656 270.102 184.696 269.784 183.8C269.465 182.905 268.931 182.102 268.229 181.461H268.229Z" fill="#FFB8B8"/>
<path d="M303.354 139.603L299.734 129.797L293.876 113.914C293.454 112.758 292.776 111.712 291.894 110.854C291.012 109.996 289.948 109.348 288.782 108.957C288.69 108.927 288.592 108.896 288.5 108.87C287.37 108.527 286.179 108.433 285.008 108.594C283.838 108.754 282.717 109.167 281.721 109.802L261.992 122.316C260.185 123.46 258.894 125.261 258.39 127.339C257.887 129.417 258.211 131.609 259.294 133.453C261.761 137.719 264.449 141.854 267.348 145.839C269.647 148.968 273.928 149.3 274.67 154.421H289.217L303.943 141.2L303.354 139.603Z" fill="#CCCCCC"/>
<path d="M77.4588 259.44C84.0115 259.44 89.3235 254.128 89.3235 247.575C89.3235 241.023 84.0115 235.711 77.4588 235.711C70.9061 235.711 65.5941 241.023 65.5941 247.575C65.5941 254.128 70.9061 259.44 77.4588 259.44Z" fill="#A0616A"/>
<path d="M106.587 239.408C106.704 239.501 106.817 239.6 106.927 239.704C107.472 240.218 107.902 240.841 108.19 241.532C108.477 242.223 108.616 242.968 108.595 243.716C108.575 244.465 108.397 245.201 108.073 245.875C107.748 246.55 107.285 247.149 106.713 247.632C106.58 247.744 106.441 247.849 106.296 247.947L107.099 275.056C107.122 275.944 106.858 276.815 106.347 277.541C105.836 278.266 105.104 278.808 104.26 279.084L104.211 279.095L82.1996 281.439C81.6011 281.503 80.996 281.447 80.4192 281.276C79.8423 281.104 79.3052 280.82 78.8387 280.44C78.3723 280.059 77.9858 279.591 77.7015 279.06C77.4173 278.53 77.241 277.948 77.1828 277.349C77.1245 276.75 77.1855 276.146 77.3622 275.57C77.539 274.995 77.8279 274.46 78.2123 273.997C78.5968 273.534 79.0692 273.152 79.6022 272.873C80.1352 272.593 80.7183 272.422 81.3178 272.369L97.0087 270.988L99.7223 247.51C99.5448 247.353 99.3786 247.184 99.2248 247.003C98.374 245.996 97.9278 244.709 97.9728 243.392C98.0178 242.074 98.5508 240.82 99.4683 239.874C100.386 238.927 101.622 238.355 102.938 238.269C104.253 238.183 105.554 238.589 106.587 239.408H106.587Z" fill="#A0616A"/>
<path d="M96.9998 412.703H102.923L105.74 389.859H96.9988L96.9998 412.703Z" fill="#A0616A"/>
<path d="M95.4895 410.769L107.153 410.769H107.153C108.129 410.769 109.096 410.961 109.998 411.334C110.899 411.708 111.719 412.255 112.409 412.945C113.099 413.636 113.647 414.455 114.02 415.357C114.394 416.259 114.586 417.225 114.586 418.201V418.443L95.4898 418.443L95.4895 410.769Z" fill="#2F2E41"/>
<path d="M38.1351 404.514L43.2237 407.544L57.3318 389.358L49.8213 384.886L38.1351 404.514Z" fill="#A0616A"/>
<path d="M37.8265 402.08L47.8478 408.047L47.8482 408.047C48.6869 408.546 49.419 409.206 50.0027 409.988C50.5865 410.771 51.0104 411.66 51.2503 412.606C51.4902 413.552 51.5414 414.537 51.401 415.503C51.2606 416.468 50.9313 417.397 50.4319 418.236L50.3083 418.443L33.9004 408.674L37.8265 402.08Z" fill="#2F2E41"/>
<path d="M104.32 404.634H97.6881C97.1512 404.635 96.6329 404.437 96.2336 404.078C95.8344 403.719 95.5825 403.224 95.5266 402.69L88.8408 339.844C88.824 339.686 88.7555 339.538 88.646 339.422C88.5366 339.307 88.3921 339.231 88.2351 339.206C88.078 339.18 87.917 339.208 87.7769 339.283C87.6368 339.358 87.5253 339.478 87.4598 339.623L75.3986 366.33L54.0449 401.149C53.7685 401.596 53.3406 401.928 52.8395 402.084C52.3384 402.241 51.7977 402.212 51.3163 402.002L42.7857 398.249C42.5036 398.125 42.2512 397.942 42.0451 397.713C41.839 397.484 41.684 397.214 41.5903 396.92C41.4966 396.626 41.4664 396.316 41.5017 396.01C41.537 395.704 41.637 395.409 41.795 395.144L61.4249 362.276L67.4453 334.582C65.5518 322.572 73.6691 304.717 73.7514 304.538L73.7916 304.45L96.1509 295.711L96.263 295.848C105.081 324.786 110.454 355.927 106.487 402.643C106.438 403.185 106.189 403.689 105.788 404.057C105.387 404.425 104.864 404.631 104.32 404.634V404.634Z" fill="#2F2E41"/>
<path d="M72.8908 307.377L72.7867 307.158C72.7369 307.053 67.7652 296.567 63.9326 285.36C63.196 283.192 62.9176 280.896 63.1149 278.615C63.3122 276.335 63.9809 274.12 65.0788 272.112C66.1909 270.082 67.7124 268.306 69.5469 266.895C71.3813 265.485 73.4887 264.471 75.7356 263.917V263.917C79.6363 262.982 83.743 263.479 87.3076 265.319C90.8722 267.158 93.6575 270.217 95.156 273.937C98.196 281.539 97.2271 289.654 96.3153 296.035L96.2972 296.163L96.1809 296.219L72.8908 307.377Z" fill="#3F3D56"/>
<path d="M91.8445 240.873H73.0048V232.661C77.1399 231.018 81.1863 229.621 83.6323 232.661C85.8103 232.661 87.8991 233.526 89.4392 235.066C90.9793 236.607 91.8445 238.695 91.8445 240.873V240.873Z" fill="#2F2E41"/>
<path d="M71.9616 231.212C60.6988 231.212 57.5464 245.329 57.5464 253.294C57.5464 257.735 59.5551 259.324 62.7116 259.861L63.8263 253.916L66.4372 260.117C67.3238 260.122 68.2553 260.105 69.221 260.087L70.1062 258.264L72.0802 260.054C79.9865 260.066 86.3766 261.218 86.3766 253.294C86.3766 245.329 83.6119 231.212 71.9616 231.212Z" fill="#2F2E41"/>
<path d="M124.482 419H26.171C26.0352 419 25.9049 418.946 25.8089 418.85C25.7129 418.754 25.6589 418.624 25.6589 418.488C25.6589 418.352 25.7129 418.222 25.8089 418.126C25.9049 418.03 26.0352 417.976 26.171 417.976H124.482C124.618 417.976 124.748 418.03 124.844 418.126C124.94 418.222 124.994 418.352 124.994 418.488C124.994 418.624 124.94 418.754 124.844 418.85C124.748 418.946 124.618 419 124.482 419Z" fill="#CCCCCC"/>
<path d="M126.33 250.54H104.313C103.023 250.539 101.787 250.026 100.875 249.114C99.9629 248.202 99.45 246.966 99.4485 245.676V223.659C99.45 222.369 99.9629 221.132 100.875 220.221C101.787 219.309 103.023 218.796 104.313 218.794H126.33C127.62 218.796 128.856 219.309 129.768 220.221C130.68 221.132 131.193 222.369 131.195 223.659V245.676C131.193 246.966 130.68 248.202 129.768 249.114C128.856 250.026 127.62 250.539 126.33 250.54V250.54Z" fill="white"/>
<path d="M126.33 250.54H104.313C103.023 250.539 101.787 250.026 100.875 249.114C99.9629 248.202 99.45 246.966 99.4485 245.676V223.659C99.45 222.369 99.9629 221.132 100.875 220.221C101.787 219.309 103.023 218.796 104.313 218.794H126.33C127.62 218.796 128.856 219.309 129.768 220.221C130.68 221.132 131.193 222.369 131.195 223.659V245.676C131.193 246.966 130.68 248.202 129.768 249.114C128.856 250.026 127.62 250.539 126.33 250.54V250.54ZM104.313 219.818C103.295 219.819 102.319 220.224 101.599 220.944C100.879 221.664 100.474 222.64 100.473 223.659V245.676C100.474 246.694 100.879 247.67 101.599 248.39C102.319 249.11 103.295 249.515 104.313 249.516H126.33C127.348 249.515 128.325 249.11 129.045 248.39C129.765 247.67 130.169 246.694 130.171 245.676V223.659C130.169 222.64 129.765 221.664 129.045 220.944C128.325 220.224 127.348 219.819 126.33 219.818H104.313Z" fill="#3F3D56"/>
<path d="M122.49 241.58H108.153C107.746 241.579 107.355 241.417 107.067 241.129C106.779 240.841 106.617 240.451 106.617 240.044V229.291C106.617 228.884 106.779 228.493 107.067 228.205C107.355 227.917 107.746 227.755 108.153 227.755H112.189C112.452 227.754 112.71 227.821 112.939 227.949C113.168 228.077 113.361 228.262 113.497 228.486L114.623 230.315H122.49C122.897 230.315 123.288 230.477 123.576 230.765C123.864 231.053 124.026 231.444 124.026 231.851V240.044C124.026 240.451 123.864 240.841 123.576 241.129C123.288 241.417 122.897 241.579 122.49 241.58V241.58Z" fill="#FBBC05"/>
<path d="M122.024 247.012C122.095 247.143 122.162 247.278 122.222 247.417C122.525 248.101 122.68 248.842 122.677 249.591C122.674 250.34 122.512 251.08 122.203 251.762C121.894 252.444 121.445 253.053 120.884 253.549C120.323 254.045 119.664 254.417 118.949 254.641C118.783 254.692 118.614 254.735 118.443 254.769L108.663 280.066C108.34 280.892 107.759 281.593 107.006 282.063C106.253 282.533 105.368 282.749 104.484 282.676L104.434 282.667L83.2379 276.286C82.6616 276.112 82.1254 275.827 81.6602 275.445C81.1951 275.063 80.8102 274.592 80.5278 274.061C80.2454 273.529 80.0711 272.947 80.015 272.348C79.9588 271.749 80.022 271.144 80.2008 270.57C80.3795 269.995 80.6704 269.461 81.0565 269C81.4427 268.538 81.9164 268.158 82.4505 267.88C82.9845 267.603 83.5683 267.434 84.168 267.383C84.7677 267.332 85.3715 267.401 85.9446 267.585L100.942 272.4L112.553 251.815C112.451 251.602 112.363 251.381 112.292 251.155C111.898 249.897 111.987 248.537 112.539 247.341C113.092 246.144 114.07 245.195 115.283 244.679C116.496 244.163 117.857 244.115 119.103 244.547C120.348 244.978 121.39 245.856 122.024 247.012H122.024Z" fill="#A0616A"/>
</g>
<defs>
<clipPath id="clip0_24_210">
<rect width="448.682" height="338.697" fill="white" transform="translate(25.6589 80.3026)"/>
</clipPath>
</defs>
</svg>
