<svg width="500" height="500" viewBox="0 0 500 500" fill="none" xmlns="http://www.w3.org/2000/svg">
<path d="M469.605 264.694L468.096 278.26L464.348 311.956H389.067C389.655 304.404 390.459 293.533 391.317 281.798C391.402 280.626 391.491 279.447 391.575 278.26C393.728 248.761 396.084 215.38 396.084 215.38L405.981 217.461L425.183 221.489L433.007 223.13L453.96 227.533C464.407 229.723 471.593 246.791 469.605 264.694V264.694Z" fill="#F2F2F2"/>
<path d="M412.662 160.792L421.92 179.072L404.127 193.301L396.536 170.832L412.662 160.792Z" fill="#FFB6B6"/>
<path d="M400.876 178.086C413.543 178.086 423.811 166.5 423.811 152.208C423.811 137.915 413.543 126.329 400.876 126.329C388.21 126.329 377.942 137.915 377.942 152.208C377.942 166.5 388.21 178.086 400.876 178.086Z" fill="#FFB6B6"/>
<path d="M399.23 157.993C397.409 154.866 398.123 153.23 396.599 152.081C396.599 152.081 395.985 151.618 391.595 151.355C390.612 143.371 389.384 142.403 389.384 142.403C387.97 141.287 385.871 141.65 384.565 142.332C381.804 143.775 382.124 146.893 380.264 147.49C377.696 148.314 373.022 143.668 372.562 138.349C372.186 134.01 374.664 129.796 375.646 130.019C376.62 130.24 378.953 126.879 380.212 126.931C381.073 126.967 384.587 125.243 385.532 125.378C386.565 125.525 389.969 127.53 390.111 127.072C391.096 123.889 390.807 123.006 391.643 122.096C393.125 120.483 395.55 121.606 399.353 122.209C407.18 123.45 408.546 120.538 412.556 122.512C414.582 123.509 416.278 126.198 419.586 131.534C424.212 138.998 426.525 142.73 426.539 147.082C426.555 151.521 424.65 151.239 423.813 157.81C422.882 165.125 424.86 168.47 422.699 170.846C421.028 172.683 417.631 173.119 415.847 171.507C412.792 168.747 416.79 162.088 413.409 157.222C411.334 154.236 407.16 152.907 405.248 154.383C403.086 156.052 404.277 160.952 402.757 161.417C401.455 161.815 399.547 158.538 399.23 157.993L399.23 157.993Z" fill="#2F2E41"/>
<path d="M452.654 259.916C452.014 272.258 449.473 276.154 448.583 290.73C448.389 293.93 448.272 297.644 448.272 302.074C448.272 303.203 448.278 304.295 448.278 305.362C448.278 307.633 448.239 309.779 448.005 311.956C447.828 313.694 447.522 315.445 447.016 317.289H397.621C397.615 317.277 397.615 317.264 397.609 317.252C397.32 315.834 397.137 314.478 396.998 313.18C396.953 312.766 396.914 312.358 396.881 311.956C396.837 311.486 396.797 311.021 396.759 310.563C396.609 308.737 396.459 307.012 396.102 305.362C395.625 303.084 394.757 300.938 392.977 298.868C392.249 298.021 391.521 297.362 390.809 296.785C390.67 296.678 390.536 296.571 390.397 296.465C388.429 294.94 386.566 293.842 384.953 290.73C384.926 290.686 384.904 290.636 384.881 290.592C384.603 290.046 383.88 288.615 383.358 286.708C382.807 284.725 382.473 282.234 383.074 279.687C384.503 273.651 389.797 273.048 394.123 266.95C394.59 266.291 395.052 265.563 395.491 264.754C397.448 261.164 397.976 258.002 398.599 254.244C398.699 253.635 398.788 253.033 398.86 252.449C398.916 252.01 398.966 251.577 399.005 251.15C399.35 247.568 399.183 244.481 398.777 241.72C397.454 232.679 393.55 227.082 396.308 218.969C397.176 216.422 398.405 214.508 399.645 212.87C402.269 209.4 404.966 207.148 404.499 202.668C404.026 198.15 400.99 197.529 400.651 193.583C400.479 191.587 401.057 189.485 402.141 187.421V187.415C405.611 180.77 414.275 174.653 419.78 174.847C420.797 174.879 421.698 175.136 422.449 175.631C425.168 177.438 424.034 181.385 428.199 186.919C431.296 191.029 434.799 192.673 436.128 193.451C441.394 196.551 445.676 205.692 448.583 217.382C448.606 217.469 448.628 217.557 448.65 217.651C450.447 224.974 451.715 233.287 452.343 241.72C452.609 245.29 452.765 248.879 452.798 252.43C452.827 255.267 452.771 257.726 452.654 259.916V259.916Z" fill="#FBBC05"/>
<path d="M415.665 302.2L414.658 305.362L414.025 307.344L412.556 311.956L410.855 317.289H399.917L401.752 311.956L402.603 309.472L404.015 305.362L406.384 298.46L415.665 302.2Z" fill="#FFB6B6"/>
<path d="M448.756 216.302C448.728 216.71 448.689 217.162 448.65 217.651C448.217 222.633 447.193 231.549 445.698 241.72C444.908 247.085 443.985 252.801 442.945 258.479C440.71 270.733 437.93 282.799 434.788 290.73C434.226 292.16 433.648 293.453 433.058 294.595C432.608 295.467 432.135 296.326 431.64 297.174C430.039 299.953 428.243 302.589 426.38 305.048C426.308 305.155 426.224 305.255 426.141 305.362C425.841 305.763 425.529 306.159 425.218 306.554C423.694 308.493 422.137 310.3 420.63 311.956C418.796 313.977 417.027 315.765 415.442 317.289H397.682L397.609 317.252L395.052 315.972C395.052 315.972 395.78 315.005 396.998 313.18C397.248 312.809 397.515 312.402 397.804 311.956C398.16 311.41 398.544 310.808 398.955 310.155C399.811 308.788 400.784 307.181 401.83 305.362C403.854 301.842 406.161 297.512 408.492 292.499C408.759 291.916 409.031 291.326 409.303 290.73C409.309 290.711 409.32 290.692 409.326 290.673C409.787 289.657 410.243 288.609 410.699 287.542C414.564 278.469 415.67 270.94 415.988 268.5C416.432 265.049 417.049 260.223 416.882 254.915C416.771 251.414 416.321 247.712 415.248 244.035V244.029C415.025 243.257 414.775 242.486 414.492 241.72C413.985 240.346 413.385 238.991 412.673 237.654C409.532 231.769 406.979 231.524 404.949 225.112C404.349 223.211 402.986 218.919 403.403 214.389V214.383C403.454 213.824 403.537 213.259 403.648 212.694V212.688C403.676 212.531 403.715 212.368 403.754 212.212C404.071 210.825 404.594 209.451 405.389 208.145C406.94 205.611 409.059 204.105 410.955 203.208L410.961 203.201C413.151 202.172 415.042 201.953 415.409 201.915C423.533 201.1 429.833 208.804 433.275 213.015C434.604 214.64 435.822 216.001 436.934 217.112C445.592 225.833 447.967 220.261 448.583 217.382C448.678 216.936 448.728 216.553 448.756 216.302V216.302Z" fill="#FBBC05"/>
<path d="M448.785 215.976C448.785 216.008 448.779 216.114 448.756 216.29C448.767 216.196 448.774 216.102 448.779 216.014C448.779 215.995 448.779 215.982 448.785 215.976V215.976Z" fill="#FBBC05"/>
<path d="M404.621 348.373H106.545C103.775 348.373 101.518 350.914 101.518 354.039C101.518 357.17 103.775 359.711 106.545 359.711H404.621C407.39 359.711 409.643 357.17 409.643 354.039C409.643 350.914 407.39 348.373 404.621 348.373Z" fill="#4285F4"/>
<path d="M338.472 377.662H172.688C169.919 377.662 167.667 380.203 167.667 383.328C167.667 386.453 169.919 389 172.688 389H338.472C341.242 389 343.499 386.453 343.499 383.328C343.499 380.203 341.242 377.662 338.472 377.662V377.662Z" fill="#4285F4"/>
<path d="M139.713 161.995L158.499 153.075L166.557 171.713L146.815 180.805L139.713 161.995Z" fill="#FFB6B6"/>
<path opacity="0.1" d="M139.713 161.995L158.499 153.075L166.557 171.713L146.815 180.805L139.713 161.995Z" fill="black"/>
<path d="M142.384 154.893L160.916 178.987C160.916 178.987 148.024 224.901 135.132 228.992C122.24 233.084 98.4698 253.086 98.4698 253.086L68.6567 231.265L83.1604 207.172C83.1604 207.172 118.211 153.075 127.477 153.075C136.743 153.075 142.384 154.893 142.384 154.893V154.893Z" fill="#34A853"/>
<path d="M117.345 311.956H74.2044L71.4769 307.842L60.3413 291.045L57.779 287.181C57.779 287.181 48.1099 267.179 50.1243 248.995C52.1387 230.811 73.0884 226.719 73.0884 226.719H73.9506L99.5979 252.149L98.067 275.816L106.189 291.045L117.345 311.956V311.956Z" fill="#2F2E41"/>
<path d="M83.0396 311.956H71.4769V292.636L83.0396 311.956Z" fill="#2F2E41"/>
<path d="M332.43 282.626L330.992 291.045L327.422 311.956H255.714C256.274 307.269 257.039 300.523 257.857 293.241C257.938 292.513 258.022 291.781 258.103 291.045C260.154 272.738 262.398 252.022 262.398 252.022L271.825 253.313L290.116 255.814L297.569 256.832L317.528 259.564C327.479 260.923 334.324 271.515 332.43 282.626H332.43Z" fill="#F2F2F2"/>
<path d="M433.912 311.956H395.018C395.61 311.17 395.944 310.715 395.944 310.715L407.604 308.542L431.627 304.069C431.627 304.069 432.723 307.265 433.912 311.956V311.956Z" fill="#2F2E41"/>
<path d="M268.934 171.088L285.848 198.079L256.344 199.074L253.177 173.708L268.934 171.088Z" fill="#A0616A"/>
<path opacity="0.1" d="M268.934 171.088L285.848 198.079L256.344 199.074L253.177 173.708L268.934 171.088Z" fill="black"/>
<path d="M185.52 227.012C183.349 219.948 178.36 215.485 174.376 217.044C170.391 218.603 168.922 225.593 171.094 232.66C171.927 235.496 173.35 238.066 175.244 240.154L184.775 269.956L197.073 264.611L186.372 235.8C186.714 232.836 186.422 229.822 185.52 227.012V227.012Z" fill="#A0616A"/>
<path d="M300.013 213.259L299.99 240.766L297.722 250.927L293.057 271.824L289.66 291.045L287.13 305.365L286.228 310.479C285.547 310.993 284.87 311.484 284.193 311.956H225.264C221.916 309.688 220.043 307.924 220.043 307.924C220.043 307.924 220.969 306.942 222.029 305.365C223.818 302.701 225.981 298.337 224.656 294.168C224.378 293.295 224.305 292.231 224.39 291.045C224.93 283.217 232.206 269.979 232.206 269.979L230.699 250.331L230.038 241.721L234.697 199.739L249.881 189.779L252.503 189.492L278.38 187.915L289.075 188.61L289.563 188.76L300.013 213.259V213.259Z" fill="#EA4335"/>
<path d="M301.163 311.956H288.271L287.702 305.365L287.69 305.233L291.34 304.951L300.836 304.219L301.002 308.165L301.13 311.193L301.163 311.956Z" fill="#FFB6B6"/>
<path d="M304.336 219.909L309.752 255.764L305.332 291.045L304.644 296.536L303.427 306.233L303.052 309.215L303.064 309.538L303.157 311.956H287.848L287.283 305.365L287.235 304.774L286.083 291.272L286.063 291.045L283.617 262.414L288.412 241.721L288.766 240.198V240.194L290.852 204.762L289.236 188.66L289.22 188.51C289.253 188.533 289.281 188.556 289.313 188.579C289.398 188.638 289.482 188.697 289.563 188.76C298.974 195.498 304.582 207.317 304.336 219.909V219.909Z" fill="#EA4335"/>
<path d="M240.182 206.609L234.294 199.738C234.294 199.738 221.691 206.149 221.063 209.706C220.435 213.263 198.183 265.502 198.183 265.502L188.502 236.326L175.901 245.82C175.901 245.82 186.012 291.116 195.469 293.243C204.925 295.369 236.618 239.63 236.618 239.63L240.181 206.609H240.182Z" fill="#EA4335"/>
<path d="M479.228 290.73H20.7664C14.2772 290.73 9 296.69 9 304.013C9 311.335 14.2772 317.289 20.7664 317.289H479.228C485.717 317.289 491 311.335 491 304.013C491 296.69 485.717 290.73 479.228 290.73Z" fill="#4285F4"/>
<path d="M297.33 250.255L296.439 297.189C296.353 301.732 293.064 305.365 289.037 305.365H212.521C208.589 305.365 205.342 301.896 205.128 297.466L202.854 250.532C202.622 245.746 205.999 241.721 210.247 241.721H289.928C294.079 241.721 297.419 245.572 297.33 250.255V250.255Z" fill="#3F3D56"/>
<path d="M173.808 173.325C183.919 173.325 192.115 164.077 192.115 152.668C192.115 141.26 183.919 132.012 173.808 132.012C163.698 132.012 155.502 141.26 155.502 152.668C155.502 164.077 163.698 173.325 173.808 173.325Z" fill="#FFB6B6"/>
<path d="M143.189 206.717L145.204 231.265L158.902 293.545L147.068 298.225L127.074 230.356L124.313 203.08L143.189 206.717Z" fill="#FFB6B6"/>
<path d="M137.741 250.255L136.849 297.189C136.763 301.732 133.474 305.365 129.447 305.365H52.9313C48.9991 305.365 45.7528 301.896 45.5381 297.466L43.2642 250.532C43.0323 245.746 46.4093 241.721 50.6574 241.721H130.338C134.489 241.721 137.83 245.572 137.741 250.255V250.255Z" fill="#3F3D56"/>
<path d="M161.083 305.682C169.068 305.682 175.541 302.451 175.541 298.466C175.541 294.481 169.068 291.251 161.083 291.251C153.098 291.251 146.625 294.481 146.625 298.466C146.625 302.451 153.098 305.682 161.083 305.682Z" fill="#FFB6B6"/>
<path d="M114.786 210.47L123.046 160.803C123.046 160.803 146.01 157.166 146.815 165.803C147.621 174.441 146.24 216.653 146.24 216.653L114.786 210.47V210.47Z" fill="#34A853"/>
<path d="M166.418 155.916C166.418 155.916 177.743 151.356 182.52 148.902C187.297 146.448 196.787 163.563 196.998 154.524C197.209 145.485 193.93 141.695 193.93 141.695C193.93 141.695 193.111 121.921 175.455 124.393C175.455 124.393 179.339 114.5 166.591 112.97C153.844 111.44 134.012 146.175 135.788 151.366C137.564 156.557 139.693 160.848 134.654 166.399C129.616 171.949 120.18 203.273 127.359 211.702C134.538 220.131 135.009 223.789 130.09 229.033C125.172 234.277 113.545 245.679 126.116 247.658C138.687 249.638 124.966 248.16 134.338 238.858C143.709 229.556 157.385 229.936 152.279 215.012C147.173 200.088 156.044 178.702 154.934 175.458C153.824 172.214 157.421 151.612 157.421 151.612C157.421 151.612 165.792 150.224 166.418 155.916V155.916Z" fill="#2F2E41"/>
<path d="M259.89 180.857C270.896 180.857 279.818 170.79 279.818 158.371C279.818 145.952 270.896 135.885 259.89 135.885C248.884 135.885 239.962 145.952 239.962 158.371C239.962 170.79 248.884 180.857 259.89 180.857Z" fill="#A0616A"/>
<path d="M261.481 128.14C260.904 128.52 260.132 127.945 259.947 127.221C259.762 126.497 259.977 125.729 260.191 125.015L261.266 121.422C262.028 118.873 262.838 116.235 264.489 114.296C266.982 111.368 270.944 110.623 274.51 111.162C279.089 111.855 283.608 114.654 285.737 119.281C287.867 123.908 286.96 130.364 283.113 133.251C288.596 140.344 290.508 148.248 290.206 157.654C289.904 167.06 280.82 175.716 274.896 182.342C273.573 181.437 272.371 177.197 273.098 175.656C273.826 174.116 272.783 172.331 273.684 170.912C274.585 169.493 275.339 171.752 274.428 170.341C273.853 169.451 276.097 167.403 275.242 166.87C271.11 164.292 269.735 158.48 267.14 154.029C264.009 148.661 258.651 145.025 252.981 144.422C249.858 144.09 246.559 144.692 243.998 146.738C241.438 148.784 239.781 152.44 240.374 155.916C238.837 154.155 238.072 151.573 238.36 149.122C238.649 146.671 239.985 144.405 241.877 143.158C240.727 138.865 241.712 133.927 244.382 130.605C247.053 127.284 257.884 127.849 261.782 128.724L261.481 128.14V128.14Z" fill="#2F2E41"/>
<path d="M262.086 144.552C267.249 145.181 270.977 150.228 274.124 154.888C275.939 157.574 277.839 160.54 277.794 163.917C277.748 167.332 275.725 170.26 274.758 173.496C273.177 178.784 274.718 185.077 278.48 188.7C274.762 189.496 270.744 186.351 270.102 182.144C269.355 177.246 272.646 172.519 272.256 167.569C271.913 163.207 268.867 159.851 266.277 156.59C263.688 153.329 261.256 149.002 262.447 144.835L262.086 144.552V144.552Z" fill="#2F2E41"/>
<path d="M339.271 293.572C334.157 296.854 331.513 302.492 333.365 306.164C335.216 309.836 340.862 310.151 345.978 306.867C348.037 305.587 349.795 303.769 351.104 301.565L372.616 287.35L366.489 276.101L345.932 291.309C343.584 291.452 341.3 292.228 339.271 293.572Z" fill="#FFB6B6"/>
<path d="M412.108 189.331C411.466 189.043 405.825 186.633 400.675 189.815C394.76 193.471 393.846 201.816 393.525 204.743C392.785 211.504 394.966 213.02 395.426 219.865C396.288 232.671 398.559 218.061 394.932 223.907C393.676 225.93 380.854 257.286 373.782 263.427C360.029 275.372 351.296 283.784 351.296 283.784L361.266 296.005C361.266 296.005 377.021 291.269 390.946 281.066C405.231 270.6 412.373 265.367 417.898 255.13C418.374 254.249 429.76 232.432 423.645 208.308C422.25 202.805 419.695 192.723 412.108 189.331V189.331Z" fill="#FBBC05"/>
<path d="M463.593 250.255L462.702 297.189C462.615 301.732 459.326 305.365 455.299 305.365H378.783C374.851 305.365 371.605 301.896 371.39 297.466L369.116 250.532C368.885 245.746 372.262 241.721 376.51 241.721H456.19C460.342 241.721 463.682 245.572 463.593 250.255V250.255Z" fill="#3F3D56"/>
</svg>
