<svg width="500" height="500" viewBox="0 0 500 500" fill="none" xmlns="http://www.w3.org/2000/svg">
<g clip-path="url(#clip0_27_568)">
<path d="M217.695 408.877H226.688L230.966 374.187L217.693 374.188L217.695 408.877Z" fill="#FFB8B8"/>
<path d="M244.033 417.227L215.768 417.228L215.767 406.307L233.112 406.307C234.546 406.306 235.966 406.589 237.291 407.138C238.616 407.686 239.82 408.491 240.834 409.505C241.848 410.519 242.653 411.723 243.202 413.048C243.751 414.373 244.033 415.793 244.033 417.227V417.227Z" fill="#2F2E41"/>
<path d="M134.696 403.717L143.503 405.538L154.718 372.434L141.72 369.746L134.696 403.717Z" fill="#FFB8B8"/>
<path d="M158.797 417.228L131.117 411.505L133.329 400.81L150.314 404.322C153.15 404.909 155.637 406.598 157.228 409.018C158.819 411.438 159.384 414.392 158.797 417.228V417.228L158.797 417.228Z" fill="#2F2E41"/>
<path d="M159.09 292.105C158.332 291.338 157.751 290.414 157.388 289.399C157.025 288.383 156.889 287.301 156.99 286.227C157.091 285.153 157.426 284.115 157.972 283.184C158.518 282.254 159.26 281.455 160.148 280.843L153.17 255.575L166.128 259.776L170.768 283.127C171.698 284.687 172.022 286.533 171.681 288.317C171.34 290.1 170.356 291.696 168.917 292.803C167.478 293.909 165.682 294.45 163.871 294.321C162.06 294.192 160.359 293.404 159.09 292.105V292.105Z" fill="#FFB8B8"/>
<path d="M215.067 396.158C214.282 396.159 213.523 395.88 212.925 395.371C212.328 394.862 211.931 394.157 211.807 393.382L195.046 301.026C195.01 300.79 194.898 300.573 194.727 300.406C194.556 300.239 194.335 300.133 194.099 300.102C193.862 300.072 193.621 300.119 193.414 300.237C193.207 300.355 193.043 300.538 192.948 300.757L155.608 387.149C155.276 387.906 154.674 388.511 153.919 388.848C153.165 389.184 152.311 389.228 151.527 388.969L138.41 384.562C137.982 384.418 137.589 384.188 137.253 383.886C136.918 383.585 136.648 383.217 136.46 382.807C136.272 382.397 136.171 381.953 136.161 381.501C136.152 381.05 136.235 380.602 136.405 380.185L154.458 335.963L169.528 269.241L169.635 269.16C169.925 268.939 198.919 247.299 218.731 264.609C236.861 280.449 233.487 370.967 232.627 388.951C232.596 389.662 232.334 390.343 231.882 390.892C231.429 391.441 230.811 391.828 230.119 391.994L215.868 396.06C215.606 396.125 215.337 396.158 215.067 396.158Z" fill="#2F2E41"/>
<path d="M186.656 190.979C196.607 190.979 204.673 182.913 204.673 172.962C204.673 163.011 196.607 154.945 186.656 154.945C176.705 154.945 168.638 163.011 168.638 172.962C168.638 182.913 176.705 190.979 186.656 190.979Z" fill="#FFB8B8"/>
<path d="M221.688 284.035C220.93 283.269 220.349 282.345 219.986 281.33C219.623 280.314 219.487 279.231 219.588 278.158C219.689 277.084 220.024 276.045 220.57 275.115C221.115 274.185 221.858 273.386 222.746 272.774L215.767 247.505L228.726 251.707L233.366 275.058C234.295 276.618 234.62 278.464 234.279 280.247C233.938 282.031 232.954 283.627 231.515 284.734C230.075 285.84 228.28 286.38 226.469 286.252C224.658 286.123 222.957 285.334 221.688 284.035V284.035Z" fill="#FFB8B8"/>
<path d="M166.686 276.833C166.436 276.833 166.189 276.784 165.957 276.688C158.348 273.596 164.415 213.224 164.677 210.655L164.706 210.545C164.895 210.115 165.085 209.695 165.277 209.283C167.152 205.114 170.292 201.643 174.252 199.36C178.212 197.078 182.79 196.101 187.336 196.569C191.957 196.924 196.353 198.704 199.918 201.664C203.483 204.625 206.041 208.618 207.239 213.095L221.338 264.75C221.488 265.299 221.494 265.878 221.355 266.429C221.216 266.981 220.936 267.487 220.543 267.899C220.15 268.311 219.658 268.614 219.113 268.779C218.569 268.944 217.991 268.966 217.436 268.841C206.466 266.391 179.882 262.042 169.972 274.539C168.755 276.075 167.672 276.833 166.686 276.833Z" fill="#4285F4"/>
<path d="M221.318 271.873C220.957 271.873 220.598 271.814 220.255 271.697C219.833 271.556 219.444 271.33 219.113 271.034C218.781 270.737 218.513 270.376 218.325 269.972L206.055 243.814L194.116 209.446C193.605 207.969 193.53 206.375 193.9 204.856C194.27 203.337 195.069 201.957 196.203 200.88V200.88C197.139 199.992 198.274 199.339 199.512 198.977C200.751 198.614 202.058 198.552 203.325 198.795C204.593 199.038 205.784 199.579 206.801 200.373C207.818 201.168 208.631 202.193 209.173 203.365L225.06 237.689L237.456 260.079C237.669 260.465 237.803 260.889 237.85 261.328C237.897 261.766 237.855 262.209 237.728 262.631C237.601 263.053 237.39 263.445 237.109 263.785C236.828 264.124 236.481 264.403 236.09 264.607L222.837 271.499C222.368 271.744 221.847 271.873 221.318 271.873V271.873Z" fill="#4285F4"/>
<path d="M167.705 278.304C167.586 278.304 167.467 278.298 167.349 278.285L152.494 276.709C152.052 276.663 151.623 276.527 151.235 276.31C150.846 276.093 150.505 275.8 150.233 275.449C149.96 275.097 149.762 274.694 149.649 274.264C149.536 273.833 149.511 273.385 149.576 272.944L153.797 244.361L162.827 209.118C163.217 207.604 164.035 206.234 165.182 205.172C166.33 204.11 167.759 203.401 169.298 203.129V203.129C170.57 202.906 171.876 202.989 173.108 203.371C174.341 203.753 175.465 204.423 176.388 205.325C177.31 206.228 178.004 207.337 178.413 208.561C178.822 209.785 178.933 211.089 178.738 212.365L173.022 249.753L170.988 275.265C170.922 276.091 170.548 276.862 169.939 277.425C169.331 277.988 168.534 278.302 167.705 278.304V278.304Z" fill="#4285F4"/>
<path d="M189.502 163.273L204.476 162.183C204.981 158.796 204.335 155.337 202.642 152.359C200.949 149.382 198.307 147.059 195.137 145.761C188.755 143.337 180.834 146.03 178.382 149.892C175.153 149.612 171.904 150.072 168.879 151.236C165.855 152.401 163.137 154.241 160.931 156.614C158.724 158.988 157.089 161.834 156.148 164.935C155.207 168.036 154.986 171.311 155.501 174.51C156.016 177.709 157.254 180.749 159.121 183.398C160.988 186.047 163.435 188.235 166.275 189.796C169.115 191.357 172.273 192.25 175.51 192.406C178.747 192.563 181.977 191.979 184.954 190.7C178.775 182.026 181.947 168.242 189.502 163.273Z" fill="#2F2E41"/>
<path d="M162.272 155.003C157.625 150.758 151.946 147.364 145.698 146.615C139.449 145.865 132.622 148.155 129.024 153.318C125.427 158.482 126.054 166.509 131.114 170.251C133.192 171.787 134.768 173.905 135.643 176.336C136.519 178.767 136.655 181.404 136.033 183.912C135.412 186.42 134.062 188.688 132.153 190.43C130.244 192.172 127.862 193.309 125.307 193.698C116.016 195.113 109.02 204.686 109.716 214.058C110.411 223.431 118.091 231.602 127.251 233.704C136.411 235.807 146.433 232.191 152.826 225.302C159.219 218.414 162.082 208.634 161.353 199.264C160.625 189.894 156.511 180.968 150.598 173.664C148.992 171.68 150.198 168.535 152.261 167.033C154.325 165.531 156.952 165.112 159.367 164.287C161.782 163.462 164.275 161.909 164.832 159.419C165.389 156.928 162.565 154.02 162.272 155.003Z" fill="#2F2E41"/>
<path d="M433.409 210.376H329.975C326.669 210.372 323.499 209.057 321.161 206.719C318.823 204.381 317.508 201.211 317.504 197.905V94.4708C317.508 91.1645 318.823 87.9946 321.161 85.6567C323.499 83.3188 326.669 82.0037 329.975 82H433.409C436.716 82.0037 439.885 83.3188 442.223 85.6567C444.561 87.9946 445.876 91.1645 445.88 94.4708V197.905C445.876 201.211 444.561 204.381 442.223 206.719C439.885 209.057 436.716 210.372 433.409 210.376ZM329.975 83.4672C327.058 83.4705 324.261 84.6308 322.198 86.6937C320.135 88.7566 318.975 91.5535 318.971 94.4708V197.905C318.975 200.822 320.135 203.619 322.198 205.682C324.261 207.745 327.058 208.905 329.975 208.909H433.409C436.327 208.905 439.123 207.745 441.186 205.682C443.249 203.619 444.41 200.822 444.413 197.905V94.4708C444.41 91.5535 443.249 88.7566 441.186 86.6937C439.123 84.6308 436.327 83.4705 433.409 83.4672H329.975Z" fill="#3F3D56"/>
<path d="M334.226 417.917H54.7336C54.539 417.917 54.3524 417.84 54.2149 417.703C54.0773 417.565 54 417.378 54 417.184C54 416.989 54.0773 416.803 54.2149 416.665C54.3524 416.528 54.539 416.45 54.7336 416.45H334.226C334.421 416.45 334.607 416.528 334.745 416.665C334.882 416.803 334.96 416.989 334.96 417.184C334.96 417.378 334.882 417.565 334.745 417.703C334.607 417.84 334.421 417.917 334.226 417.917Z" fill="#CCCCCC"/>
<path d="M425.065 145.99C425.065 143.093 424.808 140.343 424.368 137.667H382.935V154.203H406.658C405.595 159.63 402.478 164.213 397.858 167.33V178.33H412.011C420.298 170.667 425.065 159.373 425.065 145.99Z" fill="#4285F4"/>
<path d="M382.935 189C394.815 189 404.751 185.04 412.011 178.33L397.858 167.33C393.898 169.97 388.875 171.583 382.935 171.583C371.458 171.583 361.741 163.847 358.258 153.397H343.665V164.727C350.888 179.1 365.738 189 382.935 189Z" fill="#34A853"/>
<path d="M358.258 153.397C357.341 150.757 356.865 147.933 356.865 145C356.865 142.067 357.378 139.243 358.258 136.603V125.273H343.665C340.658 131.213 338.935 137.887 338.935 145C338.935 152.113 340.658 158.787 343.665 164.727L358.258 153.397Z" fill="#FBBC05"/>
<path d="M382.935 118.417C389.425 118.417 395.218 120.653 399.801 125.017L412.341 112.477C404.751 105.363 394.815 101 382.935 101C365.738 101 350.888 110.9 343.665 125.273L358.258 136.603C361.741 126.153 371.458 118.417 382.935 118.417Z" fill="#EA4335"/>
</g>
<defs>
<clipPath id="clip0_27_568">
<rect width="391.88" height="335.917" fill="white" transform="translate(54 82)"/>
</clipPath>
</defs>
</svg>
