<svg width="500" height="500" viewBox="0 0 500 500" fill="none" xmlns="http://www.w3.org/2000/svg">
<g clip-path="url(#clip0_26_488)">
<path d="M81.1393 428.605C80.6103 428.629 80.0866 428.49 79.6391 428.207C79.1917 427.924 78.8421 427.51 78.6378 427.021C78.4335 426.532 78.3843 425.993 78.4969 425.475C78.6096 424.958 78.8785 424.487 79.2674 424.128C79.3325 423.869 79.3793 423.683 79.4444 423.424C79.4211 423.368 79.3977 423.312 79.3741 423.255C78.8411 421.996 77.948 420.923 76.807 420.17C75.666 419.417 74.328 419.018 72.9609 419.023C71.5939 419.028 70.2588 419.437 69.1235 420.199C67.9881 420.96 67.103 422.04 66.5794 423.303C64.4868 428.343 61.8225 433.392 61.1665 438.721C60.8776 441.076 60.9994 443.464 61.5267 445.778C56.6117 435.056 54.0595 423.403 54.043 411.609C54.042 408.649 54.2064 405.692 54.5355 402.751C54.8076 400.339 55.185 397.945 55.6677 395.568C58.302 382.671 63.9581 370.583 72.1713 360.297C76.1465 358.128 79.3613 354.792 81.3825 350.74C82.1148 349.283 82.6322 347.728 82.9189 346.123C82.4705 346.182 82.0148 346.219 81.5663 346.248C81.4267 346.256 81.2796 346.263 81.1399 346.27L81.0873 346.273C80.5944 346.295 80.1057 346.174 79.6799 345.925C79.2542 345.676 78.9095 345.309 78.6874 344.868C78.4653 344.428 78.3753 343.932 78.4282 343.442C78.4811 342.951 78.6746 342.487 78.9855 342.104C79.1791 341.865 79.3729 341.627 79.5668 341.389C79.8608 341.022 80.1622 340.661 80.4563 340.294C80.4902 340.259 80.5221 340.222 80.5518 340.184C80.89 339.764 81.2281 339.353 81.5663 338.934C80.9491 337.976 80.1188 337.173 79.1404 336.589C75.7514 334.604 71.076 335.979 68.628 339.044C66.1727 342.11 65.7096 346.41 66.5623 350.24C67.4008 353.499 68.788 356.592 70.6643 359.385C70.4805 359.62 70.2894 359.848 70.1056 360.084C66.746 364.404 63.8179 369.042 61.3633 373.933C61.9602 368.454 61.2477 362.911 59.2845 357.761C57.2947 352.96 53.5653 348.918 50.281 344.768C46.3361 339.784 38.2467 341.959 37.5517 348.278C37.5449 348.339 37.5384 348.4 37.532 348.461C38.0198 348.736 38.4973 349.028 38.9645 349.337C39.5514 349.73 40.0062 350.29 40.2693 350.945C40.5324 351.6 40.5914 352.319 40.4387 353.008C40.2861 353.698 39.9287 354.325 39.4136 354.807C38.8985 355.29 38.2496 355.606 37.552 355.713L37.4805 355.724C37.6543 357.482 37.9615 359.225 38.3994 360.936C39.6684 365.714 41.9108 370.179 44.986 374.05C48.0613 377.921 51.903 381.115 56.2705 383.431C56.5572 383.578 56.8366 383.725 57.1233 383.865C54.6571 390.854 53.1101 398.134 52.5214 405.522C52.188 409.881 52.2077 414.259 52.5802 418.615L52.5581 418.46C51.6171 413.617 49.0334 409.247 45.2435 406.088C39.6146 401.464 31.6619 399.761 25.5893 396.044C24.9439 395.63 24.1935 395.409 23.4265 395.407C22.6596 395.405 21.9081 395.623 21.2607 396.034C20.6133 396.445 20.097 397.033 19.7727 397.728C19.4484 398.423 19.3296 399.196 19.4304 399.956C19.4385 400.011 19.4468 400.065 19.4552 400.119C20.3604 400.487 21.2418 400.912 22.0943 401.39C22.5821 401.666 23.0596 401.958 23.5268 402.267C24.1138 402.659 24.5686 403.219 24.8316 403.874C25.0947 404.529 25.1537 405.249 25.0011 405.938C24.8484 406.627 24.4911 407.254 23.9759 407.737C23.4608 408.219 22.8119 408.535 22.1143 408.643L22.0428 408.654C21.9913 408.661 21.9472 408.668 21.8959 408.676C23.4426 412.369 25.6135 415.768 28.3135 418.725C31.6489 422.304 35.6802 425.164 40.1602 427.13C44.6401 429.095 49.4744 430.125 54.3665 430.156H54.3739C55.7019 435.927 57.6261 441.544 60.1153 446.917H80.6254C80.699 446.689 80.7651 446.454 80.8313 446.226C78.9328 446.345 77.0269 446.232 75.156 445.888C76.6778 444.021 78.1995 442.139 79.7212 440.271C79.7551 440.237 79.7871 440.2 79.8168 440.161C80.5887 439.206 81.3679 438.257 82.1398 437.302L82.1402 437.3C82.1813 434.371 81.8445 431.448 81.1393 428.605Z" fill="#4285F4"/>
<path d="M417.883 428.605C418.412 428.629 418.936 428.49 419.384 428.207C419.831 427.924 420.181 427.51 420.385 427.021C420.589 426.532 420.638 425.993 420.526 425.475C420.413 424.958 420.144 424.487 419.755 424.128C419.69 423.869 419.643 423.683 419.578 423.424C419.602 423.368 419.625 423.312 419.649 423.255C420.182 421.996 421.075 420.923 422.216 420.17C423.357 419.417 424.695 419.018 426.062 419.023C427.429 419.028 428.764 419.437 429.899 420.199C431.035 420.96 431.92 422.04 432.443 423.303C434.536 428.343 437.2 433.392 437.856 438.721C438.145 441.076 438.023 443.464 437.496 445.778C442.411 435.056 444.963 423.403 444.98 411.609C444.981 408.649 444.816 405.692 444.487 402.751C444.215 400.339 443.838 397.945 443.355 395.568C440.721 382.671 435.065 370.583 426.851 360.297C422.876 358.128 419.661 354.792 417.64 350.74C416.908 349.283 416.39 347.728 416.104 346.123C416.552 346.182 417.008 346.219 417.456 346.248C417.596 346.256 417.743 346.263 417.883 346.27L417.935 346.273C418.428 346.295 418.917 346.174 419.343 345.925C419.769 345.676 420.113 345.309 420.335 344.868C420.557 344.428 420.647 343.932 420.594 343.442C420.542 342.951 420.348 342.487 420.037 342.104C419.844 341.865 419.65 341.627 419.456 341.389C419.162 341.022 418.861 340.661 418.566 340.294C418.533 340.259 418.501 340.222 418.471 340.184C418.133 339.764 417.795 339.353 417.456 338.934C418.074 337.976 418.904 337.173 419.882 336.589C423.271 334.604 427.947 335.979 430.395 339.044C432.85 342.11 433.313 346.41 432.461 350.24C431.622 353.499 430.235 356.592 428.358 359.385C428.542 359.62 428.733 359.848 428.917 360.084C432.277 364.404 435.205 369.042 437.659 373.933C437.063 368.454 437.775 362.911 439.738 357.761C441.728 352.96 445.457 348.918 448.742 344.768C452.687 339.784 460.776 341.959 461.471 348.278C461.478 348.339 461.484 348.4 461.491 348.461C461.003 348.736 460.525 349.028 460.058 349.337C459.471 349.73 459.017 350.29 458.753 350.945C458.49 351.6 458.431 352.319 458.584 353.008C458.737 353.698 459.094 354.325 459.609 354.807C460.124 355.29 460.773 355.606 461.471 355.713L461.542 355.724C461.368 357.482 461.061 359.225 460.623 360.936C459.354 365.714 457.112 370.179 454.037 374.05C450.962 377.921 447.12 381.115 442.752 383.431C442.466 383.578 442.186 383.725 441.9 383.865C444.366 390.854 445.913 398.134 446.501 405.522C446.835 409.881 446.815 414.259 446.443 418.615L446.465 418.46C447.406 413.617 449.989 409.247 453.779 406.088C459.408 401.464 467.361 399.761 473.434 396.044C474.079 395.63 474.829 395.409 475.596 395.407C476.363 395.405 477.115 395.623 477.762 396.034C478.409 396.445 478.926 397.033 479.25 397.728C479.574 398.423 479.693 399.196 479.592 399.956C479.584 400.011 479.576 400.065 479.568 400.119C478.662 400.487 477.781 400.912 476.929 401.39C476.441 401.666 475.963 401.958 475.496 402.267C474.909 402.659 474.454 403.219 474.191 403.874C473.928 404.529 473.869 405.249 474.022 405.938C474.174 406.627 474.532 407.254 475.047 407.737C475.562 408.219 476.211 408.535 476.909 408.643L476.98 408.654C477.031 408.661 477.076 408.668 477.127 408.676C475.58 412.369 473.409 415.768 470.709 418.725C467.374 422.304 463.343 425.164 458.863 427.13C454.383 429.095 449.548 430.125 444.656 430.156H444.649C443.321 435.927 441.397 441.544 438.908 446.917H418.397C418.324 446.689 418.258 446.454 418.191 446.226C420.09 446.345 421.996 446.232 423.867 445.888C422.345 444.021 420.823 442.139 419.302 440.272C419.268 440.237 419.236 440.2 419.206 440.161C418.434 439.206 417.655 438.257 416.883 437.302L416.883 437.3C416.841 434.371 417.178 431.449 417.883 428.605L417.883 428.605Z" fill="#4285F4"/>
<path d="M163.914 437.746H168.879L171.243 418.593H163.914V437.746Z" fill="#9E616A"/>
<path d="M162.293 434.345L170.227 433.871V437.27L177.769 442.479C178.141 442.737 178.422 443.106 178.57 443.534C178.717 443.962 178.724 444.426 178.59 444.858C178.455 445.291 178.185 445.668 177.821 445.937C177.456 446.205 177.015 446.35 176.562 446.35H167.118L165.49 442.988L164.854 446.35H161.293L162.293 434.345Z" fill="#2F2E41"/>
<path d="M101.677 433.527L106.291 435.364L115.57 418.443L108.761 415.732L101.677 433.527Z" fill="#9E616A"/>
<path d="M101.43 429.768L108.975 432.262L107.718 435.42L112.799 443.049C113.05 443.426 113.174 443.873 113.153 444.326C113.132 444.778 112.967 445.211 112.682 445.563C112.397 445.915 112.007 446.166 111.569 446.281C111.131 446.395 110.668 446.366 110.247 446.199L101.472 442.706L101.203 438.98L99.3689 441.869L96.0603 440.552L101.43 429.768Z" fill="#2F2E41"/>
<path d="M153.904 380.753L145.624 342.111L132.694 385.045L112.22 425.758L112.111 425.974L105.626 422.483C104.711 405.951 106.884 390.46 114.835 376.914L118.6 339.734C118.715 338.464 121.524 308.639 130.416 303.35L133.021 297.411L158.923 291.014L159.017 291.12C161.508 293.92 163.153 297.369 163.762 301.066L171.502 347.954L171.506 347.98L169.431 380.69L172.27 428.947H161.998C155.644 416.991 152.946 400.926 153.904 380.753Z" fill="#2F2E41"/>
<path d="M280.409 223.073C280.409 234.056 296.718 253.343 300.295 242.959C304.674 230.246 314.016 222.188 320.181 223.073C331.052 224.635 311.277 203.187 300.295 203.187C295.021 203.187 289.963 205.283 286.234 209.012C282.504 212.741 280.409 217.799 280.409 223.073V223.073Z" fill="#E6E6E6"/>
<path d="M276.232 160.796C273.653 171.472 285.135 180.682 296.118 180.682C298.729 180.682 301.315 180.168 303.728 179.168C306.14 178.169 308.333 176.704 310.179 174.858C312.026 173.011 313.49 170.819 314.49 168.406C315.489 165.993 316.003 163.408 316.003 160.796C316.003 149.814 301.201 150.646 296.118 140.911C290.299 129.766 281.776 137.849 276.232 160.796Z" fill="#E6E6E6"/>
<path d="M184.337 159.961C184.337 165.235 186.432 170.293 190.162 174.022C193.891 177.751 198.949 179.847 204.223 179.847C215.205 179.847 224.428 170.939 224.109 159.961C223.44 136.963 214.531 127.952 204.223 140.075C197.109 148.442 184.337 148.978 184.337 159.961Z" fill="#E6E6E6"/>
<path d="M182.666 223.073C173.386 219.061 189.504 239.621 202.552 242.959C213.192 245.68 222.438 234.056 222.438 223.073C222.438 220.462 221.923 217.876 220.924 215.463C219.925 213.051 218.46 210.858 216.613 209.012C214.767 207.165 212.575 205.701 210.162 204.701C207.749 203.702 205.163 203.187 202.552 203.187C191.569 203.187 192.747 227.431 182.666 223.073Z" fill="#E6E6E6"/>
<path d="M298.07 151.771H271.471C270.918 151.771 270.37 151.88 269.86 152.091C269.349 152.303 268.885 152.613 268.494 153.004C268.103 153.395 267.793 153.859 267.581 154.369C267.37 154.88 267.261 155.428 267.261 155.98V182.58C267.261 183.696 267.704 184.767 268.494 185.556C269.283 186.346 270.354 186.789 271.471 186.789H298.07C299.186 186.789 300.257 186.346 301.047 185.556C301.836 184.767 302.279 183.696 302.279 182.58V155.98C302.279 154.864 301.836 153.793 301.047 153.004C300.257 152.214 299.186 151.771 298.07 151.771ZM293.075 160.751H290.025C287.942 160.751 287.537 161.737 287.537 163.193V166.28H292.504L291.859 171.128H287.528V183.767C285.676 184.115 283.775 184.11 281.925 183.754V171.128H277.953V166.28H281.998V162.696C281.998 158.41 284.975 156.07 288.808 156.07C290.652 156.07 292.624 156.208 293.075 156.272V160.751Z" fill="#4285F4"/>
<path d="M231.535 151.771H204.935C203.819 151.771 202.748 152.214 201.959 153.004C201.169 153.793 200.726 154.864 200.726 155.98V182.58C200.726 183.696 201.169 184.767 201.959 185.556C202.748 186.346 203.819 186.789 204.935 186.789H231.535C232.651 186.789 233.722 186.346 234.511 185.556C235.301 184.767 235.744 183.696 235.744 182.58V155.98C235.744 154.864 235.301 153.793 234.511 153.004C233.722 152.214 232.651 151.771 231.535 151.771V151.771ZM218.235 178.618C216.388 178.618 214.583 178.071 213.047 177.045C211.511 176.018 210.314 174.56 209.608 172.854C208.901 171.147 208.716 169.27 209.076 167.458C209.437 165.647 210.326 163.983 211.632 162.677C212.938 161.371 214.602 160.482 216.413 160.121C218.225 159.761 220.102 159.946 221.809 160.653C223.515 161.359 224.973 162.556 226 164.092C227.026 165.628 227.573 167.433 227.573 169.28C227.573 171.757 226.589 174.132 224.838 175.883C223.087 177.634 220.712 178.618 218.235 178.618H218.235ZM228.741 159.942C228.279 159.942 227.828 159.805 227.444 159.548C227.06 159.292 226.76 158.927 226.584 158.501C226.407 158.074 226.361 157.605 226.451 157.152C226.541 156.699 226.763 156.283 227.09 155.956C227.416 155.63 227.832 155.408 228.285 155.318C228.738 155.227 229.207 155.274 229.634 155.45C230.061 155.627 230.425 155.926 230.682 156.31C230.938 156.694 231.075 157.146 231.075 157.607C231.075 158.226 230.829 158.82 230.391 159.258C229.954 159.696 229.36 159.942 228.741 159.942H228.741Z" fill="#4285F4"/>
<path d="M304.478 214.596C305.237 214.602 305.985 214.773 306.67 215.099C307.355 215.425 307.96 215.897 308.443 216.482C308.926 217.067 309.275 217.751 309.465 218.485C309.655 219.219 309.682 219.986 309.543 220.732L319.481 227.199L317.025 234.197L303.118 224.868C301.881 224.552 300.802 223.793 300.086 222.735C299.371 221.677 299.068 220.394 299.236 219.128C299.404 217.862 300.03 216.701 300.996 215.866C301.962 215.031 303.201 214.579 304.478 214.596V214.596Z" fill="#FFB6B6"/>
<path d="M308.018 231.601L315.111 223.411L324.277 227.662L343.006 242.568C345.462 242.855 364.094 245.259 363.751 252.102C363.743 252.901 363.561 253.69 363.22 254.412C362.878 255.135 362.383 255.776 361.77 256.289C358.83 258.717 353.733 258.028 353.543 258L341.35 257.39C340.712 257.543 334.093 259.064 330.589 256.888C329.527 256.228 308.018 231.601 308.018 231.601Z" fill="#3F3D56"/>
<path d="M328.474 440.782L322.665 440.782L319.901 418.373H328.475L328.474 440.782Z" fill="#FFB6B6"/>
<path d="M329.956 446.413L311.223 446.413V446.176C311.224 444.242 311.992 442.388 313.359 441.02C314.726 439.653 316.581 438.885 318.515 438.885H318.515L321.937 436.289L328.321 438.885L329.956 438.885L329.956 446.413Z" fill="#2F2E41"/>
<path d="M392.24 436.235L386.64 437.782L378.009 416.918L386.274 414.635L392.24 436.235Z" fill="#FFB6B6"/>
<path d="M395.168 441.269L377.111 446.256L377.048 446.028C376.533 444.164 376.78 442.172 377.734 440.49C378.688 438.808 380.271 437.573 382.135 437.058L382.135 437.058L384.742 433.645L391.587 434.448L393.163 434.012L395.168 441.269Z" fill="#2F2E41"/>
<path d="M328.73 305.169L372.629 307.409L372.644 307.448C375.273 314.753 375.887 322.63 374.421 330.254V330.254L375.765 341.453L382.484 376.393L391.443 421.187C391.443 421.187 403.09 424.323 387.859 429.699C372.629 435.074 375.765 431.938 378.005 427.907C380.244 423.875 367.03 378.408 367.03 378.408L350.904 342.125L335.226 379.752L333.434 421.411C333.434 421.411 338.137 427.011 324.699 429.251C311.26 431.49 311.932 427.235 315.068 424.099C318.203 420.964 320.891 379.304 320.891 379.304L324.027 339.885C324.027 339.885 323.131 317.04 328.73 305.169Z" fill="#2F2E41"/>
<path d="M371.655 253.992L368.125 244.735L356.759 233.539L342.364 232.409L331.785 241.882L328.793 251.305C332.717 269.473 332.636 286.206 327.077 302.418C326.682 303.538 326.536 304.732 326.65 305.915C326.763 307.097 327.134 308.241 327.735 309.266C328.336 310.291 329.154 311.173 330.131 311.849C331.108 312.526 332.22 312.981 333.391 313.183C349.699 315.924 380.066 320.033 377.974 312.21C375.207 301.862 365.581 279.589 369.147 267.812C370.444 263.72 371.261 259.491 371.58 255.21L371.655 253.992Z" fill="#3F3D56"/>
<path d="M347.141 228.797C354.237 228.797 359.989 223.045 359.989 215.949C359.989 208.854 354.237 203.102 347.141 203.102C340.046 203.102 334.294 208.854 334.294 215.949C334.294 223.045 340.046 228.797 347.141 228.797Z" fill="#FFB6B6"/>
<path d="M343.635 228.122L353.428 227.622C354.683 227.558 356.053 227.447 356.965 226.584C357.456 226.051 357.834 225.423 358.076 224.74C358.981 222.637 359.886 220.534 360.769 218.421C361.989 215.498 363.187 212.413 362.876 209.261C362.803 207.822 362.199 206.461 361.181 205.44C360.662 204.948 359.995 204.643 359.283 204.571C358.571 204.498 357.856 204.664 357.249 205.042C357.098 204.045 356.722 203.095 356.15 202.265C355.578 201.435 354.825 200.745 353.948 200.249C352.175 199.27 350.152 198.841 348.135 199.016C345.208 199.205 342.414 200.306 340.145 202.165C339.507 202.754 338.826 203.294 338.107 203.78C337.745 204.022 337.338 204.188 336.91 204.267C336.483 204.346 336.043 204.337 335.619 204.241C335.199 204.128 334.834 203.868 334.591 203.507C334.348 203.146 334.244 202.71 334.298 202.278C333.608 202.794 333.135 203.548 332.971 204.394C332.807 205.239 332.965 206.115 333.412 206.851C332.903 207.064 332.349 207.142 331.801 207.077C331.254 207.013 330.732 206.807 330.288 206.482C329.811 206.718 329.39 207.051 329.05 207.46C328.709 207.869 328.458 208.344 328.313 208.856C328.167 209.367 328.129 209.903 328.203 210.43C328.276 210.957 328.459 211.462 328.739 211.914C329.019 212.366 329.39 212.755 329.829 213.055C330.268 213.355 330.765 213.561 331.288 213.658C331.811 213.755 332.348 213.742 332.866 213.619C333.383 213.497 333.869 213.267 334.293 212.946C334.887 213.779 334.666 214.91 334.589 215.93C334.511 216.95 334.785 218.217 335.768 218.499C337.097 218.88 338.174 217.091 339.557 217.11C339.898 217.137 340.227 217.249 340.514 217.434C340.802 217.62 341.039 217.873 341.206 218.172C341.532 218.773 341.755 219.425 341.866 220.099L343.635 228.066" fill="#2F2E41"/>
<path d="M278.038 248.563C273.146 248.566 268.359 247.147 264.259 244.479L262.195 243.138L264.641 243.409C265.282 243.48 265.972 243.522 266.692 243.532C269.989 243.535 273.216 242.586 275.987 240.8C274.341 240.444 272.816 239.663 271.563 238.536C270.311 237.409 269.374 235.974 268.846 234.374L268.54 233.43L269.514 233.621C269.956 233.709 270.405 233.759 270.855 233.772C269.312 232.978 268.017 231.775 267.112 230.295C266.206 228.815 265.725 227.114 265.721 225.379V224.379L266.591 224.764C267.108 225.054 267.654 225.287 268.222 225.457C266.88 223.951 266.046 222.061 265.84 220.055C265.633 218.049 266.064 216.029 267.071 214.282L267.497 213.548L268.03 214.206C271.916 219.015 277.484 222.166 283.606 223.023C283.774 223.047 283.945 223.035 284.108 222.986C284.27 222.938 284.42 222.854 284.548 222.742C284.678 222.629 284.782 222.489 284.854 222.332C284.925 222.175 284.962 222.005 284.962 221.833C284.948 219.967 285.489 218.139 286.518 216.582C287.546 215.025 289.015 213.81 290.737 213.091C292.458 212.372 294.355 212.182 296.186 212.545C298.016 212.908 299.696 213.808 301.013 215.13C302.815 214.737 304.542 214.059 306.13 213.121L307.47 212.327L306.982 213.806C306.529 215.177 305.77 216.428 304.762 217.462C305.657 217.229 306.531 216.926 307.377 216.554L309.193 215.756L308.099 217.41C306.94 219.165 305.493 220.711 303.817 221.982V222.826C303.817 235.477 294.194 248.563 278.09 248.563L278.038 248.563Z" fill="#4285F4"/>
<path d="M289.575 239.555C290.333 239.524 291.088 239.659 291.788 239.952C292.488 240.244 293.115 240.686 293.626 241.247C294.136 241.808 294.518 242.475 294.743 243.199C294.968 243.923 295.032 244.688 294.929 245.44L305.168 251.42L303.051 258.528L288.711 249.88C287.46 249.624 286.346 248.918 285.58 247.896C284.815 246.874 284.451 245.607 284.557 244.334C284.663 243.061 285.233 241.872 286.158 240.991C287.083 240.11 288.298 239.599 289.575 239.555V239.555Z" fill="#FFB6B6"/>
<path d="M301.63 261.871L293.983 253.596L299.284 245.67L304.997 250.464L311.244 251.958L320.058 255.3C321.285 253.154 330.806 236.959 336.965 239.958C337.698 240.28 338.352 240.756 338.882 241.354C339.413 241.952 339.808 242.658 340.041 243.423C341.12 247.08 338.487 251.498 338.386 251.662L333.042 262.639C332.933 263.286 331.735 269.971 328.359 272.34C327.882 272.689 327.338 272.935 326.761 273.062C326.183 273.19 325.586 273.196 325.006 273.081C314.516 271.096 307.124 268.028 303.352 264.126C302.687 263.448 302.109 262.691 301.63 261.871V261.871Z" fill="#3F3D56"/>
<path d="M165.609 229.878C164.432 227.346 166.3 224.52 166.967 221.794C168.211 216.709 164.705 211.202 159.954 209.44C155.203 207.678 149.743 209.151 145.662 212.234C141.661 215.257 138.849 216.681 136.093 220.953C135.168 222.385 134.19 226.832 134.015 228.548C133.84 230.263 134.727 232.229 136.346 232.605C136.191 232.911 136.123 233.254 136.149 233.596C136.175 233.938 136.295 234.266 136.495 234.545C136.694 234.824 136.967 235.042 137.282 235.177C137.598 235.312 137.944 235.357 138.284 235.309C141.381 234.711 147.07 236.355 147.07 236.355C152.373 236.659 157.677 236.962 162.98 237.266C164.339 237.344 165.749 237.414 166.97 236.664C167.308 236.466 167.599 236.197 167.823 235.876C168.047 235.556 168.199 235.19 168.269 234.805C168.579 232.796 166.42 231.624 165.609 229.878Z" fill="#2F2E41"/>
<path d="M169.614 252.03L168.453 259.755L166.613 271.994L166.301 276.528L164.011 309.763L157.703 314.615C154.051 317.425 149.492 318.791 144.897 318.454C140.301 318.117 135.991 316.1 132.788 312.787L125.128 309.099C129.234 305.061 128.47 286.344 128.47 286.344L128.424 249.581L138.807 246.09L142.227 239.357H154.497L157.564 246.514L163.131 249.06L165.667 250.226L169.614 252.03Z" fill="#E6E6E6"/>
<path d="M148.869 235.904C154.598 235.904 159.243 231.259 159.243 225.53C159.243 219.801 154.598 215.156 148.869 215.156C143.139 215.156 138.495 219.801 138.495 225.53C138.495 231.259 143.139 235.904 148.869 235.904Z" fill="#9E616A"/>
<path d="M142.942 222.276C140.201 222.281 137.526 221.437 135.284 219.86L135.209 219.808C135.209 218.483 135.47 217.171 135.977 215.946C136.484 214.722 137.228 213.61 138.165 212.673C139.102 211.736 140.214 210.992 141.438 210.485C142.663 209.978 143.975 209.717 145.3 209.717H149.419C150.735 209.719 152.038 209.98 153.254 210.486C154.469 210.991 155.573 211.732 156.501 212.665C157.43 213.598 158.166 214.705 158.666 215.922C159.167 217.14 159.422 218.444 159.418 219.76C159.409 220.361 159.167 220.935 158.741 221.36C158.316 221.784 157.742 222.026 157.141 222.033L143.178 222.274C143.099 222.275 143.02 222.276 142.942 222.276Z" fill="#2F2E41"/>
<path d="M173.308 273.357L163.911 273.434L163.221 290.159L155.586 299.506C154.657 299.663 153.79 300.073 153.079 300.691C152.369 301.31 151.843 302.112 151.56 303.011C151.278 303.909 151.249 304.868 151.477 305.782C151.705 306.696 152.181 307.529 152.853 308.189C153.525 308.849 154.366 309.311 155.283 309.523C156.201 309.735 157.16 309.69 158.053 309.391C158.946 309.093 159.74 308.553 160.346 307.832C160.952 307.111 161.347 306.237 161.487 305.305L172.004 290.725L173.308 273.357Z" fill="#9E616A"/>
<path d="M123.761 273.857L114.128 269.354L103.61 282.376L91.9094 285.335C91.0703 284.908 90.1292 284.72 89.1903 284.794C88.2513 284.867 87.3509 285.199 86.5886 285.752C85.8262 286.305 85.2316 287.058 84.8704 287.928C84.5092 288.798 84.3955 289.751 84.5417 290.681C84.688 291.612 85.0886 292.483 85.6993 293.2C86.31 293.918 87.107 294.452 88.0023 294.744C88.8975 295.037 89.8563 295.076 90.7725 294.858C91.6888 294.64 92.5269 294.173 93.1943 293.508L110.328 288.063L123.761 273.857Z" fill="#9E616A"/>
<path d="M154.059 235.103L157.651 230.623C158.039 230.23 158.291 229.724 158.372 229.178C158.391 228.63 157.874 228.044 157.354 228.215C156.871 228.375 154.087 221.401 153.579 221.402C153.051 221.404 152.879 220.701 152.873 220.174C152.847 218.176 154.471 220.321 155.008 218.397C155.545 216.472 157.637 218.127 159.441 217.267C161.244 216.408 163.695 216.798 164.81 218.456C165.636 219.685 165.606 221.282 165.496 222.759C165.241 226.187 164.726 229.591 163.953 232.94C163.763 233.763 163.481 234.682 162.723 235.054C162.305 235.219 161.856 235.287 161.408 235.251L155.878 235.223" fill="#2F2E41"/>
<path d="M162.676 215.841C165.5 215.841 167.789 213.552 167.789 210.728C167.789 207.905 165.5 205.616 162.676 205.616C159.853 205.616 157.564 207.905 157.564 210.728C157.564 213.552 159.853 215.841 162.676 215.841Z" fill="#2F2E41"/>
<path d="M174.174 273.195C173.622 274.156 172.446 274.54 171.372 274.836C169.92 275.24 169.496 275.649 168.044 276.053C167.466 276.216 166.884 276.38 166.301 276.528C165.344 276.786 164.373 276.986 163.392 277.126C162.569 277.244 161.598 277.244 161.061 276.605C160.705 276.056 160.561 275.396 160.657 274.749C160.867 266.897 161.078 259.044 161.291 251.192L161.736 251.345C161.936 251.213 162.144 251.094 162.359 250.987C163.383 250.466 164.519 250.204 165.667 250.226C166.324 250.231 166.977 250.333 167.604 250.527C168.579 250.837 169.474 251.354 170.228 252.045C170.982 252.735 171.577 253.582 171.97 254.525C172.48 255.949 172.723 257.455 172.686 258.968C172.691 259.198 172.691 259.428 172.696 259.658C172.727 261.621 171.73 263.584 171.761 265.547C171.737 266.1 171.814 266.652 171.986 267.178C172.19 267.699 172.589 268.134 172.742 268.676C172.896 269.213 172.645 269.949 172.088 269.99C172.482 269.948 172.879 270.015 173.237 270.185C173.594 270.355 173.898 270.621 174.114 270.953C174.33 271.285 174.449 271.67 174.46 272.065C174.471 272.461 174.372 272.852 174.174 273.195V273.195Z" fill="#E6E6E6"/>
<path d="M128.467 249.626C129.489 249.687 130.485 249.974 131.384 250.465C132.283 250.956 133.062 251.639 133.667 252.466C134.271 253.293 134.686 254.243 134.88 255.248C135.075 256.254 135.046 257.29 134.794 258.282C134.26 259.941 133.42 261.485 132.317 262.834L128.881 267.617C128.533 268.045 128.265 268.533 128.09 269.058C127.945 269.6 128.002 270.188 127.804 270.713C127.606 271.238 126.969 271.678 126.495 271.377C126.836 271.578 127.115 271.869 127.301 272.219C127.487 272.568 127.573 272.962 127.549 273.357C127.525 273.753 127.392 274.133 127.166 274.458C126.939 274.782 126.627 275.038 126.264 275.196C125.245 275.641 124.073 275.244 123.034 274.847L118.815 273.232C117.314 272.696 115.852 272.059 114.438 271.324C113.708 270.923 112.928 270.346 112.876 269.514C112.836 268.867 113.383 268.37 113.658 267.782C117.094 260.424 122.147 254.57 128.424 249.581L128.467 249.626Z" fill="#E6E6E6"/>
<path d="M133.404 293.915C133.404 289.801 130.372 286.487 126.579 286.487C121.5 286.243 116.333 286.155 111.049 286.155H109.402C104.127 286.155 98.9409 286.243 93.8714 286.487C90.1375 286.487 87.1056 289.811 87.1056 293.935C86.8716 297.201 86.7741 300.457 86.7839 303.684C86.7936 306.911 86.8716 310.206 87.0958 313.433C87.0958 317.557 90.1278 320.901 93.8617 320.901C99.1846 321.144 104.654 321.252 110.211 321.252C115.768 321.252 121.227 321.154 126.57 320.901C130.313 320.901 133.394 317.557 133.394 313.433C133.608 310.167 133.716 306.911 133.706 303.635C133.696 300.36 133.618 297.123 133.404 293.886L133.404 293.915ZM105.785 312.702V294.705L119.063 303.694L105.785 312.702Z" fill="#4285F4"/>
<path d="M479.318 448.317L19.8511 448.537C19.6258 448.536 19.4099 448.446 19.2509 448.286C19.0918 448.127 19.0024 447.911 19.0024 447.685C19.0024 447.46 19.0918 447.244 19.2509 447.085C19.4099 446.925 19.6258 446.835 19.8511 446.834L479.318 446.615C479.543 446.615 479.759 446.705 479.918 446.865C480.077 447.024 480.167 447.24 480.167 447.466C480.167 447.691 480.077 447.907 479.918 448.067C479.759 448.226 479.543 448.316 479.318 448.317V448.317Z" fill="#CACACA"/>
</g>
<defs>
<clipPath id="clip0_26_488">
<rect width="461.169" height="378.537" fill="white" transform="translate(19 70)"/>
</clipPath>
</defs>
</svg>
