<svg width="500" height="500" viewBox="0 0 500 500" fill="none" xmlns="http://www.w3.org/2000/svg">
<g clip-path="url(#clip0_23_61)">
<path d="M247.656 151.755C255.296 151.755 261.489 145.562 261.489 137.922C261.489 130.282 255.296 124.089 247.656 124.089C240.016 124.089 233.822 130.282 233.822 137.922C233.822 145.562 240.016 151.755 247.656 151.755Z" fill="#FD6584"/>
<path d="M278.616 131.372C278.225 130.093 277.47 128.955 276.441 128.1C275.413 127.245 274.157 126.709 272.828 126.559C272.797 126.556 272.766 126.556 272.735 126.559C272.698 126.547 272.66 126.538 272.621 126.533C267.99 125.932 262.84 127.393 259.374 130.574C258.087 131.736 257.058 133.155 256.353 134.739C255.711 133.862 254.864 133.154 253.886 132.677C252.909 132.201 251.83 131.97 250.742 132.004C249.34 132.097 248.001 132.619 246.907 133.501C245.813 134.383 245.017 135.581 244.629 136.931C244.586 137.096 244.598 137.27 244.662 137.428C244.727 137.586 244.841 137.718 244.986 137.806C245.403 138.163 245.899 138.415 246.432 138.542C247.577 138.786 248.732 139.008 249.888 139.21C252.146 139.604 254.417 139.924 256.7 140.169C258.208 140.33 259.719 140.457 261.234 140.552C264.363 140.749 267.508 140.796 270.642 140.697C272.196 140.646 273.689 140.594 275.108 139.91C276.143 139.401 277.026 138.631 277.673 137.677C278.281 136.759 278.681 135.718 278.844 134.629C279.006 133.54 278.929 132.428 278.616 131.372Z" fill="#E6E6E6"/>
<path d="M250.157 151.525C250.131 150.946 250.033 150.372 249.867 149.816C249.475 148.537 248.718 147.4 247.689 146.545C246.66 145.69 245.404 145.154 244.075 145.003C244.045 145 244.016 145 243.986 145.003C243.947 144.992 243.908 144.983 243.867 144.977C241.304 144.663 238.703 144.93 236.257 145.759C232.495 147.018 229.195 149.557 227.605 153.183C226.961 152.305 226.114 151.597 225.135 151.12C224.157 150.644 223.076 150.413 221.988 150.448C220.586 150.54 219.247 151.063 218.153 151.945C217.059 152.827 216.264 154.024 215.875 155.375C215.835 155.54 215.848 155.713 215.912 155.871C215.976 156.028 216.088 156.161 216.233 156.25C216.65 156.606 217.145 156.858 217.678 156.986C218.828 157.23 219.978 157.452 221.139 157.654C223.398 158.048 225.667 158.368 227.946 158.613C232.578 159.11 237.238 159.287 241.893 159.141C243.442 159.089 244.94 159.038 246.359 158.354C247.392 157.845 248.274 157.075 248.919 156.121C249.827 154.767 250.262 153.152 250.157 151.525V151.525Z" fill="#E6E6E6"/>
<path d="M430.322 319.38C430.52 328.812 429.219 338.215 426.466 347.239C426.369 347.567 426.254 347.894 426.138 348.222H369.379C370.19 344.227 371.478 340.343 373.216 336.654C377.939 326.629 385.651 318.05 393.266 309.528C403.754 297.787 413.992 286.142 415.611 270.872C419.769 277.21 423.087 284.06 425.482 291.251C422.549 292.338 419.857 293.988 417.559 296.109C416.922 296.707 416.247 297.575 416.575 298.404C416.884 299.098 417.732 299.329 418.484 299.483C420.296 299.83 422.108 300.177 423.921 300.505C425.347 300.794 426.793 301.064 428.239 301.334C429.51 307.269 430.208 313.312 430.322 319.38V319.38Z" fill="#F2F2F2"/>
<path d="M478 313.133C468.9 318.667 463.116 327.227 458.393 336.809C454.282 337.745 450.488 339.739 447.384 342.592C446.728 343.19 446.054 344.058 446.401 344.887C446.69 345.581 447.558 345.812 448.309 345.966C450.102 346.314 451.934 346.661 453.727 346.988C453.553 347.393 453.38 347.817 453.206 348.222H393.054C395.785 344.54 398.809 341.084 402.096 337.888C402.81 337.175 403.542 336.5 404.294 335.806C411.962 328.876 420.767 323.32 430.322 319.38C445.374 313.087 461.835 310.931 478 313.133Z" fill="#F2F2F2"/>
<path d="M403.08 348.222H349.521C349.228 343.933 349.254 339.629 349.598 335.343C351.738 308.873 366.14 283.655 387.868 268.385C385.092 278.276 386.518 288.108 389.41 297.98C389.006 298.115 388.601 298.23 388.234 298.384C385.301 299.471 382.609 301.122 380.311 303.243C379.674 303.841 378.999 304.708 379.327 305.537C379.616 306.231 380.484 306.463 381.236 306.617C383.048 306.964 384.86 307.311 386.653 307.639C388.099 307.928 389.545 308.198 390.991 308.487C391.666 308.603 392.341 308.738 393.016 308.872C393.112 309.104 393.17 309.316 393.266 309.528C396.66 318.879 400.361 328.306 402.096 337.888C402.526 340.293 402.822 342.719 402.983 345.157C403.041 346.179 403.08 347.2 403.08 348.222Z" fill="#F2F2F2"/>
<path d="M111.18 319.38C111.378 328.812 110.077 338.215 107.324 347.239C107.227 347.567 107.112 347.894 106.996 348.222H50.2368C51.0482 344.227 52.3363 340.343 54.0736 336.654C58.797 326.629 66.5088 318.05 74.1243 309.528C84.6124 297.787 94.8498 286.142 96.4694 270.872C100.627 277.21 103.945 284.06 106.34 291.251C103.407 292.338 100.715 293.988 98.4166 296.109C97.7803 296.707 97.1055 297.575 97.4333 298.404C97.7417 299.098 98.5901 299.329 99.342 299.483C101.154 299.83 102.967 300.177 104.779 300.505C106.205 300.794 107.651 301.064 109.097 301.334C110.368 307.269 111.066 313.312 111.18 319.38V319.38Z" fill="#F2F2F2"/>
<path d="M158.858 313.133C149.758 318.667 143.974 327.227 139.251 336.809C135.14 337.745 131.346 339.739 128.242 342.592C127.587 343.19 126.912 344.058 127.259 344.887C127.548 345.581 128.416 345.812 129.167 345.966C130.96 346.314 132.792 346.661 134.585 346.988C134.412 347.393 134.238 347.817 134.065 348.222H73.9122C76.6429 344.54 79.6668 341.084 82.9544 337.888C83.6677 337.175 84.4004 336.5 85.1523 335.806C92.8202 328.876 101.625 323.32 111.18 319.38C126.232 313.087 142.693 310.931 158.858 313.133V313.133Z" fill="#F2F2F2"/>
<path d="M83.9376 348.222H30.3788C30.0864 343.933 30.1122 339.629 30.456 335.343C32.596 308.873 46.9978 283.655 68.726 268.385C65.9497 278.276 67.3763 288.108 70.2683 297.98C69.8635 298.115 69.4586 298.23 69.0923 298.384C66.1591 299.471 63.4672 301.122 61.1684 303.243C60.5322 303.841 59.8574 304.708 60.1851 305.537C60.4743 306.231 61.3419 306.463 62.0938 306.617C63.906 306.964 65.7183 307.311 67.5113 307.639C68.9573 307.928 70.4033 308.198 71.8492 308.487C72.524 308.603 73.1988 308.738 73.8736 308.872C73.9699 309.104 74.0278 309.316 74.1242 309.528C77.5174 318.879 81.2191 328.306 82.9543 337.888C83.3838 340.293 83.6799 342.719 83.8412 345.157C83.899 346.179 83.9376 347.2 83.9376 348.222Z" fill="#F2F2F2"/>
<path d="M283.328 325.736L331.184 329.984L331.697 330.031V125.832C331.526 125.713 331.355 125.594 331.184 125.474C321.211 118.498 310.422 112.767 299.058 108.409L296.612 142.136L296.389 145.224L293.97 178.672L293.224 188.961L283.417 324.544L283.328 325.736Z" fill="#E6E6E6"/>
<path d="M164.982 122.029C164.64 122.247 164.298 122.464 163.956 122.692V330.031L164.982 329.938L212.32 325.736L212.231 324.544L202.424 188.961L201.678 178.672L199.258 145.224L199.036 142.136L196.471 106.766C185.412 110.6 174.843 115.723 164.982 122.029V122.029Z" fill="#E6E6E6"/>
<path d="M163.956 122.692C163.267 123.138 162.578 123.594 161.899 124.055V332.86C161.899 338.077 164.992 342.45 169.126 343.563C169.802 343.746 170.499 343.839 171.199 343.838H324.967C325.665 343.839 326.361 343.747 327.034 343.563C328.571 343.137 329.964 342.303 331.065 341.149C333.165 338.905 334.313 335.933 334.267 332.86V127.687C333.417 127.06 332.562 126.438 331.697 125.832C331.526 125.713 331.355 125.594 331.184 125.474V332.86C331.185 333.532 331.105 334.202 330.946 334.854C330.215 337.937 327.806 340.196 324.967 340.196H171.199C167.769 340.196 164.982 336.906 164.982 332.86V122.029C164.64 122.247 164.298 122.464 163.956 122.692Z" fill="#E6E6E6"/>
<path d="M332.725 142.138H163.439V145.226H332.725V142.138Z" fill="#E6E6E6"/>
<path d="M280.878 102.756C279.852 102.502 278.826 102.264 277.79 102.041V185.873H280.878V102.756Z" fill="#E6E6E6"/>
<path d="M218.376 101C217.345 101.192 216.314 101.389 215.288 101.601V185.873H218.376V101Z" fill="#E6E6E6"/>
<path d="M130.249 338.434C130.248 340.206 130.588 341.961 131.249 343.605C131.503 344.242 131.806 344.859 132.156 345.449C132.607 346.219 133.131 346.944 133.72 347.615C135.022 349.098 136.625 350.286 138.423 351.1C140.22 351.914 142.171 352.335 144.144 352.335H346.877C350.562 352.335 354.097 350.871 356.702 348.265C359.308 345.659 360.772 342.125 360.772 338.44C360.772 334.754 359.308 331.22 356.702 328.614C354.097 326.008 350.562 324.544 346.877 324.544H144.144C140.461 324.548 136.93 326.012 134.325 328.616C131.72 331.22 130.254 334.751 130.249 338.434V338.434Z" fill="#E6E6E6"/>
<path d="M163.439 188.962L331.696 188.962V178.671L163.439 178.671V188.962Z" fill="#E6E6E6"/>
<path d="M254.771 181.244H240.364C240.364 179.743 240.96 178.303 242.022 177.242C243.083 176.18 244.523 175.584 246.024 175.584H249.111C249.855 175.584 250.591 175.73 251.277 176.015C251.964 176.299 252.588 176.716 253.114 177.242C253.639 177.767 254.056 178.391 254.341 179.078C254.625 179.765 254.771 180.501 254.771 181.244V181.244H254.771Z" fill="#E6E6E6"/>
<path d="M22 346.371C26.5008 351.704 31.3688 356.716 36.5686 361.37H454.448C459.647 356.716 464.516 351.704 469.016 346.371H22Z" fill="#FBBC05"/>
<path d="M227.52 296.215V349.35H264.745V296.215C264.745 295.833 264.623 295.461 264.397 295.153C264.17 294.845 263.851 294.619 263.486 294.506C263.314 294.449 263.133 294.421 262.952 294.423H229.318C229.082 294.422 228.849 294.468 228.631 294.558C228.413 294.648 228.214 294.78 228.047 294.947C227.881 295.113 227.748 295.311 227.658 295.528C227.567 295.746 227.52 295.98 227.52 296.215V296.215ZM242.047 314.473C242.057 313.425 242.48 312.424 243.224 311.687C243.968 310.95 244.974 310.536 246.021 310.536C247.069 310.536 248.074 310.95 248.818 311.687C249.562 312.424 249.985 313.425 249.995 314.473V320.638C249.989 321.688 249.568 322.694 248.824 323.435C248.079 324.176 247.071 324.592 246.021 324.592C244.971 324.592 243.963 324.176 243.218 323.435C242.474 322.694 242.053 321.688 242.047 320.638V314.473Z" fill="#2F2E41"/>
<path d="M227.406 347.651V352.775C227.407 353.04 227.512 353.295 227.7 353.483C227.887 353.671 228.141 353.778 228.406 353.78H263.859C264.124 353.779 264.379 353.672 264.566 353.484C264.754 353.296 264.859 353.041 264.859 352.775V347.651H227.406Z" fill="#4285F4"/>
<path d="M168.961 216.161V313.178C168.962 314.414 169.453 315.599 170.327 316.474C171.202 317.348 172.387 317.839 173.623 317.84H317.393C318.629 317.839 319.815 317.348 320.689 316.474C321.563 315.599 322.055 314.414 322.056 313.178V216.161C322.053 214.925 321.56 213.741 320.686 212.869C319.812 211.996 318.628 211.504 317.393 211.503H173.623C172.388 211.504 171.204 211.996 170.33 212.869C169.456 213.742 168.964 214.925 168.961 216.161V216.161Z" fill="#4285F4"/>
<path d="M172.333 217.368V311.981C172.335 312.641 172.597 313.275 173.065 313.742C173.532 314.209 174.165 314.472 174.825 314.473H316.196C316.856 314.472 317.49 314.209 317.957 313.742C318.424 313.275 318.687 312.641 318.688 311.981V217.368C318.688 216.706 318.425 216.072 317.958 215.604C317.491 215.136 316.857 214.872 316.196 214.87H174.825C174.164 214.872 173.53 215.136 173.063 215.604C172.596 216.072 172.333 216.706 172.333 217.368Z" fill="#FBBC04"/>
<path d="M201.16 354.987C201.304 355.168 201.487 355.313 201.695 355.413C201.903 355.512 202.131 355.563 202.362 355.562H286.468C286.698 355.562 286.925 355.51 287.133 355.411C287.34 355.312 287.523 355.168 287.668 354.99C287.813 354.811 287.916 354.602 287.97 354.379C288.025 354.155 288.028 353.922 287.981 353.697L286.675 347.496C286.621 347.243 286.505 347.007 286.336 346.811C286.168 346.615 285.953 346.464 285.712 346.371C285.537 346.303 285.351 346.268 285.163 346.268H203.662C203.474 346.268 203.288 346.303 203.113 346.371C202.871 346.464 202.657 346.615 202.488 346.811C202.32 347.007 202.204 347.243 202.149 347.496L200.844 353.697C200.797 353.922 200.802 354.155 200.856 354.378C200.911 354.601 201.015 354.809 201.16 354.987Z" fill="#2F2E41"/>
<path d="M282.228 348.939H284.312C284.452 348.939 284.565 348.826 284.565 348.686V347.638C284.565 347.498 284.452 347.385 284.312 347.385H282.228C282.088 347.385 281.975 347.498 281.975 347.638V348.686C281.975 348.826 282.088 348.939 282.228 348.939Z" fill="#4285F4"/>
<path d="M277.047 348.939H279.131C279.271 348.939 279.384 348.826 279.384 348.686V347.638C279.384 347.498 279.271 347.385 279.131 347.385H277.047C276.907 347.385 276.794 347.498 276.794 347.638V348.686C276.794 348.826 276.907 348.939 277.047 348.939Z" fill="#4285F4"/>
<path d="M271.866 348.939H273.951C274.09 348.939 274.203 348.826 274.203 348.686V347.638C274.203 347.498 274.09 347.385 273.951 347.385H271.866C271.726 347.385 271.613 347.498 271.613 347.638V348.686C271.613 348.826 271.726 348.939 271.866 348.939Z" fill="#4285F4"/>
<path d="M266.685 348.939H268.77C268.909 348.939 269.022 348.826 269.022 348.686V347.638C269.022 347.498 268.909 347.385 268.77 347.385H266.685C266.545 347.385 266.432 347.498 266.432 347.638V348.686C266.432 348.826 266.545 348.939 266.685 348.939Z" fill="#4285F4"/>
<path d="M261.504 348.939H263.589C263.728 348.939 263.842 348.826 263.842 348.686V347.638C263.842 347.498 263.728 347.385 263.589 347.385H261.504C261.364 347.385 261.251 347.498 261.251 347.638V348.686C261.251 348.826 261.364 348.939 261.504 348.939Z" fill="#4285F4"/>
<path d="M256.323 348.939H258.408C258.548 348.939 258.661 348.826 258.661 348.686V347.638C258.661 347.498 258.548 347.385 258.408 347.385H256.323C256.184 347.385 256.07 347.498 256.07 347.638V348.686C256.07 348.826 256.184 348.939 256.323 348.939Z" fill="#4285F4"/>
<path d="M251.142 348.939H253.227C253.367 348.939 253.48 348.826 253.48 348.686V347.638C253.48 347.498 253.367 347.385 253.227 347.385H251.142C251.003 347.385 250.89 347.498 250.89 347.638V348.686C250.89 348.826 251.003 348.939 251.142 348.939Z" fill="#4285F4"/>
<path d="M245.962 348.939H248.046C248.186 348.939 248.299 348.826 248.299 348.686V347.638C248.299 347.498 248.186 347.385 248.046 347.385H245.962C245.822 347.385 245.709 347.498 245.709 347.638V348.686C245.709 348.826 245.822 348.939 245.962 348.939Z" fill="#4285F4"/>
<path d="M240.781 348.939H242.865C243.005 348.939 243.118 348.826 243.118 348.686V347.638C243.118 347.498 243.005 347.385 242.865 347.385H240.781C240.641 347.385 240.528 347.498 240.528 347.638V348.686C240.528 348.826 240.641 348.939 240.781 348.939Z" fill="#4285F4"/>
<path d="M235.6 348.939H237.684C237.824 348.939 237.937 348.826 237.937 348.686V347.638C237.937 347.498 237.824 347.385 237.684 347.385H235.6C235.46 347.385 235.347 347.498 235.347 347.638V348.686C235.347 348.826 235.46 348.939 235.6 348.939Z" fill="#4285F4"/>
<path d="M230.419 348.939H232.504C232.643 348.939 232.756 348.826 232.756 348.686V347.638C232.756 347.498 232.643 347.385 232.504 347.385H230.419C230.279 347.385 230.166 347.498 230.166 347.638V348.686C230.166 348.826 230.279 348.939 230.419 348.939Z" fill="#4285F4"/>
<path d="M225.238 348.939H227.323C227.462 348.939 227.576 348.826 227.576 348.686V347.638C227.576 347.498 227.462 347.385 227.323 347.385H225.238C225.098 347.385 224.985 347.498 224.985 347.638V348.686C224.985 348.826 225.098 348.939 225.238 348.939Z" fill="#4285F4"/>
<path d="M220.057 348.939H222.142C222.281 348.939 222.395 348.826 222.395 348.686V347.638C222.395 347.498 222.281 347.385 222.142 347.385H220.057C219.917 347.385 219.804 347.498 219.804 347.638V348.686C219.804 348.826 219.917 348.939 220.057 348.939Z" fill="#4285F4"/>
<path d="M214.876 348.939H216.961C217.101 348.939 217.214 348.826 217.214 348.686V347.638C217.214 347.498 217.101 347.385 216.961 347.385H214.876C214.737 347.385 214.623 347.498 214.623 347.638V348.686C214.623 348.826 214.737 348.939 214.876 348.939Z" fill="#4285F4"/>
<path d="M209.695 348.939H211.78C211.92 348.939 212.033 348.826 212.033 348.686V347.638C212.033 347.498 211.92 347.385 211.78 347.385H209.695C209.556 347.385 209.443 347.498 209.443 347.638V348.686C209.443 348.826 209.556 348.939 209.695 348.939Z" fill="#4285F4"/>
<path d="M204.515 348.939H206.599C206.739 348.939 206.852 348.826 206.852 348.686V347.638C206.852 347.498 206.739 347.385 206.599 347.385H204.515C204.375 347.385 204.262 347.498 204.262 347.638V348.686C204.262 348.826 204.375 348.939 204.515 348.939Z" fill="#4285F4"/>
<path d="M282.289 351.529H284.374C284.513 351.529 284.626 351.416 284.626 351.277V350.228C284.626 350.088 284.513 349.975 284.374 349.975H282.289C282.149 349.975 282.036 350.088 282.036 350.228V351.277C282.036 351.416 282.149 351.529 282.289 351.529Z" fill="#4285F4"/>
<path d="M277.108 351.529H279.193C279.332 351.529 279.446 351.416 279.446 351.277V350.228C279.446 350.088 279.332 349.975 279.193 349.975H277.108C276.968 349.975 276.855 350.088 276.855 350.228V351.277C276.855 351.416 276.968 351.529 277.108 351.529Z" fill="#4285F4"/>
<path d="M271.927 351.529H274.012C274.152 351.529 274.265 351.416 274.265 351.277V350.228C274.265 350.088 274.152 349.975 274.012 349.975H271.927C271.788 349.975 271.674 350.088 271.674 350.228V351.277C271.674 351.416 271.788 351.529 271.927 351.529Z" fill="#4285F4"/>
<path d="M266.746 351.529H268.831C268.97 351.529 269.084 351.416 269.084 351.277V350.228C269.084 350.088 268.97 349.975 268.831 349.975H266.746C266.607 349.975 266.493 350.088 266.493 350.228V351.277C266.493 351.416 266.607 351.529 266.746 351.529Z" fill="#4285F4"/>
<path d="M261.565 351.529H263.65C263.79 351.529 263.903 351.416 263.903 351.277V350.228C263.903 350.088 263.79 349.975 263.65 349.975H261.565C261.426 349.975 261.313 350.088 261.313 350.228V351.277C261.313 351.416 261.426 351.529 261.565 351.529Z" fill="#4285F4"/>
<path d="M256.385 351.529H258.469C258.609 351.529 258.722 351.416 258.722 351.277V350.228C258.722 350.088 258.609 349.975 258.469 349.975H256.385C256.245 349.975 256.132 350.088 256.132 350.228V351.277C256.132 351.416 256.245 351.529 256.385 351.529Z" fill="#4285F4"/>
<path d="M251.204 351.529H253.288C253.428 351.529 253.541 351.416 253.541 351.277V350.228C253.541 350.088 253.428 349.975 253.288 349.975H251.204C251.064 349.975 250.951 350.088 250.951 350.228V351.277C250.951 351.416 251.064 351.529 251.204 351.529Z" fill="#4285F4"/>
<path d="M246.023 351.529H248.107C248.247 351.529 248.36 351.416 248.36 351.277V350.228C248.36 350.088 248.247 349.975 248.107 349.975H246.023C245.883 349.975 245.77 350.088 245.77 350.228V351.277C245.77 351.416 245.883 351.529 246.023 351.529Z" fill="#4285F4"/>
<path d="M240.842 351.529H242.927C243.066 351.529 243.179 351.416 243.179 351.277V350.228C243.179 350.088 243.066 349.975 242.927 349.975H240.842C240.702 349.975 240.589 350.088 240.589 350.228V351.277C240.589 351.416 240.702 351.529 240.842 351.529Z" fill="#4285F4"/>
<path d="M235.661 351.529H237.746C237.885 351.529 237.999 351.416 237.999 351.277V350.228C237.999 350.088 237.885 349.975 237.746 349.975H235.661C235.521 349.975 235.408 350.088 235.408 350.228V351.277C235.408 351.416 235.521 351.529 235.661 351.529Z" fill="#4285F4"/>
<path d="M230.48 351.529H232.565C232.704 351.529 232.818 351.416 232.818 351.277V350.228C232.818 350.088 232.704 349.975 232.565 349.975H230.48C230.34 349.975 230.227 350.088 230.227 350.228V351.277C230.227 351.416 230.34 351.529 230.48 351.529Z" fill="#4285F4"/>
<path d="M225.299 351.529H227.384C227.523 351.529 227.637 351.416 227.637 351.277V350.228C227.637 350.088 227.523 349.975 227.384 349.975H225.299C225.16 349.975 225.046 350.088 225.046 350.228V351.277C225.046 351.416 225.16 351.529 225.299 351.529Z" fill="#4285F4"/>
<path d="M220.118 351.529H222.203C222.343 351.529 222.456 351.416 222.456 351.277V350.228C222.456 350.088 222.343 349.975 222.203 349.975H220.118C219.979 349.975 219.865 350.088 219.865 350.228V351.277C219.865 351.416 219.979 351.529 220.118 351.529Z" fill="#4285F4"/>
<path d="M214.938 351.529H217.022C217.162 351.529 217.275 351.416 217.275 351.277V350.228C217.275 350.088 217.162 349.975 217.022 349.975H214.938C214.798 349.975 214.685 350.088 214.685 350.228V351.277C214.685 351.416 214.798 351.529 214.938 351.529Z" fill="#4285F4"/>
<path d="M209.757 351.529H211.841C211.981 351.529 212.094 351.416 212.094 351.277V350.228C212.094 350.088 211.981 349.975 211.841 349.975H209.757C209.617 349.975 209.504 350.088 209.504 350.228V351.277C209.504 351.416 209.617 351.529 209.757 351.529Z" fill="#4285F4"/>
<path d="M204.576 351.529H206.66C206.8 351.529 206.913 351.416 206.913 351.277V350.228C206.913 350.088 206.8 349.975 206.66 349.975H204.576C204.436 349.975 204.323 350.088 204.323 350.228V351.277C204.323 351.416 204.436 351.529 204.576 351.529Z" fill="#4285F4"/>
<path d="M239.288 354.638H259.505C259.645 354.638 259.758 354.525 259.758 354.385V353.337C259.758 353.197 259.645 353.084 259.505 353.084H239.288C239.148 353.084 239.035 353.197 239.035 353.337V354.385C239.035 354.525 239.148 354.638 239.288 354.638Z" fill="#4285F4"/>
<path d="M181.929 227.904H314.209C314.347 227.901 314.478 227.844 314.574 227.746C314.67 227.647 314.724 227.515 314.724 227.378C314.724 227.24 314.67 227.108 314.574 227.01C314.478 226.912 314.347 226.855 314.209 226.852H181.929C181.792 226.855 181.661 226.912 181.565 227.01C181.469 227.108 181.415 227.24 181.415 227.378C181.415 227.515 181.469 227.647 181.565 227.746C181.661 227.844 181.792 227.901 181.929 227.904V227.904Z" fill="#4285F4"/>
<path d="M305.205 224.166C306.907 224.166 308.288 222.755 308.288 221.014C308.288 219.274 306.907 217.863 305.205 217.863C303.502 217.863 302.122 219.274 302.122 221.014C302.122 222.755 303.502 224.166 305.205 224.166Z" fill="#4285F4"/>
<path d="M294.555 224.166C296.258 224.166 297.638 222.755 297.638 221.014C297.638 219.274 296.258 217.863 294.555 217.863C292.852 217.863 291.472 219.274 291.472 221.014C291.472 222.755 292.852 224.166 294.555 224.166Z" fill="#4285F4"/>
<path d="M283.905 224.166C285.608 224.166 286.988 222.755 286.988 221.014C286.988 219.274 285.608 217.863 283.905 217.863C282.203 217.863 280.822 219.274 280.822 221.014C280.822 222.755 282.203 224.166 283.905 224.166Z" fill="#4285F4"/>
<path d="M187.778 219.217C187.777 219.292 187.792 219.366 187.82 219.435C187.848 219.503 187.889 219.566 187.942 219.619C187.994 219.672 188.057 219.714 188.125 219.743C188.194 219.772 188.268 219.787 188.342 219.787H195.906C196.056 219.784 196.198 219.722 196.303 219.615C196.407 219.508 196.466 219.364 196.466 219.215C196.466 219.065 196.407 218.921 196.303 218.814C196.198 218.707 196.056 218.646 195.906 218.642H188.342C188.191 218.644 188.047 218.705 187.941 218.813C187.836 218.921 187.777 219.066 187.778 219.217V219.217Z" fill="#4285F4"/>
<path d="M187.778 221.367C187.777 221.442 187.792 221.516 187.82 221.585C187.848 221.654 187.889 221.716 187.942 221.769C187.994 221.822 188.057 221.864 188.125 221.893C188.194 221.922 188.268 221.937 188.342 221.937H195.906C196.056 221.934 196.198 221.872 196.303 221.765C196.408 221.658 196.466 221.514 196.466 221.365C196.466 221.215 196.408 221.071 196.303 220.964C196.198 220.857 196.056 220.796 195.906 220.792H188.342C188.191 220.794 188.047 220.856 187.941 220.963C187.836 221.071 187.777 221.216 187.778 221.367V221.367Z" fill="#4285F4"/>
<path d="M187.778 223.512C187.777 223.663 187.836 223.808 187.941 223.916C188.047 224.024 188.191 224.085 188.342 224.087H195.906C196.056 224.084 196.198 224.022 196.303 223.915C196.407 223.808 196.466 223.664 196.466 223.515C196.466 223.365 196.407 223.222 196.303 223.115C196.198 223.008 196.056 222.946 195.906 222.942H188.342C188.268 222.943 188.194 222.958 188.125 222.986C188.057 223.015 187.994 223.057 187.942 223.11C187.889 223.163 187.848 223.226 187.82 223.295C187.792 223.364 187.777 223.438 187.778 223.512V223.512Z" fill="#4285F4"/>
<path d="M190.115 240.129H187.397C186.573 240.129 185.905 240.797 185.905 241.621C185.905 242.445 186.573 243.113 187.397 243.113H190.115C190.939 243.113 191.607 242.445 191.607 241.621C191.607 240.797 190.939 240.129 190.115 240.129Z" fill="#E6E6E6"/>
<path d="M221.201 240.129H218.483C217.659 240.129 216.991 240.797 216.991 241.621C216.991 242.445 217.659 243.113 218.483 243.113H221.201C222.025 243.113 222.693 242.445 222.693 241.621C222.693 240.797 222.025 240.129 221.201 240.129Z" fill="#E6E6E6"/>
<path d="M230.008 240.129H227.29C226.466 240.129 225.798 240.797 225.798 241.621C225.798 242.445 226.466 243.113 227.29 243.113H230.008C230.832 243.113 231.5 242.445 231.5 241.621C231.5 240.797 230.832 240.129 230.008 240.129Z" fill="#E6E6E6"/>
<path d="M212.745 239.88H195.853C195.029 239.88 194.361 240.548 194.361 241.372C194.361 242.196 195.029 242.864 195.853 242.864H212.745C213.569 242.864 214.237 242.196 214.237 241.372C214.237 240.548 213.569 239.88 212.745 239.88Z" fill="#E6E6E6"/>
<path d="M254.192 239.88H237.3C236.476 239.88 235.807 240.548 235.807 241.372C235.807 242.196 236.476 242.864 237.3 242.864H254.192C255.016 242.864 255.684 242.196 255.684 241.372C255.684 240.548 255.016 239.88 254.192 239.88Z" fill="#E6E6E6"/>
<path d="M198.405 246.864H195.687C194.863 246.864 194.195 247.532 194.195 248.356C194.195 249.18 194.863 249.848 195.687 249.848H198.405C199.229 249.848 199.897 249.18 199.897 248.356C199.897 247.532 199.229 246.864 198.405 246.864Z" fill="#E6E6E6"/>
<path d="M229.49 246.864H226.772C225.948 246.864 225.28 247.532 225.28 248.356C225.28 249.18 225.948 249.848 226.772 249.848H229.49C230.314 249.848 230.982 249.18 230.982 248.356C230.982 247.532 230.314 246.864 229.49 246.864Z" fill="#E6E6E6"/>
<path d="M238.297 246.864H235.579C234.755 246.864 234.087 247.532 234.087 248.356C234.087 249.18 234.755 249.848 235.579 249.848H238.297C239.121 249.848 239.79 249.18 239.79 248.356C239.79 247.532 239.121 246.864 238.297 246.864Z" fill="#E6E6E6"/>
<path d="M221.035 246.615H204.142C203.318 246.615 202.65 247.283 202.65 248.107C202.65 248.931 203.318 249.599 204.142 249.599H221.035C221.859 249.599 222.527 248.931 222.527 248.107C222.527 247.283 221.859 246.615 221.035 246.615Z" fill="#E6E6E6"/>
<path d="M262.482 246.615H245.589C244.765 246.615 244.097 247.283 244.097 248.107C244.097 248.931 244.765 249.599 245.589 249.599H262.482C263.306 249.599 263.974 248.931 263.974 248.107C263.974 247.283 263.306 246.615 262.482 246.615Z" fill="#E6E6E6"/>
<path d="M206.694 253.599H203.976C203.152 253.599 202.484 254.267 202.484 255.091C202.484 255.915 203.152 256.583 203.976 256.583H206.694C207.518 256.583 208.186 255.915 208.186 255.091C208.186 254.267 207.518 253.599 206.694 253.599Z" fill="#E6E6E6"/>
<path d="M237.779 253.599H235.061C234.237 253.599 233.569 254.267 233.569 255.091C233.569 255.915 234.237 256.583 235.061 256.583H237.779C238.603 256.583 239.271 255.915 239.271 255.091C239.271 254.267 238.603 253.599 237.779 253.599Z" fill="#E6E6E6"/>
<path d="M246.587 253.599H243.869C243.045 253.599 242.377 254.267 242.377 255.091C242.377 255.915 243.045 256.583 243.869 256.583H246.587C247.411 256.583 248.079 255.915 248.079 255.091C248.079 254.267 247.411 253.599 246.587 253.599Z" fill="#E6E6E6"/>
<path d="M229.324 253.35H212.431C211.607 253.35 210.939 254.018 210.939 254.843C210.939 255.667 211.607 256.335 212.431 256.335H229.324C230.148 256.335 230.816 255.667 230.816 254.843C230.816 254.018 230.148 253.35 229.324 253.35Z" fill="#E6E6E6"/>
<path d="M270.771 253.35H253.878C253.054 253.35 252.386 254.018 252.386 254.843C252.386 255.667 253.054 256.335 253.878 256.335H270.771C271.595 256.335 272.263 255.667 272.263 254.843C272.263 254.018 271.595 253.35 270.771 253.35Z" fill="#E6E6E6"/>
<path d="M214.983 260.334H212.266C211.441 260.334 210.773 261.002 210.773 261.826C210.773 262.65 211.441 263.318 212.266 263.318H214.983C215.808 263.318 216.476 262.65 216.476 261.826C216.476 261.002 215.808 260.334 214.983 260.334Z" fill="#E6E6E6"/>
<path d="M246.069 260.334H243.351C242.527 260.334 241.859 261.002 241.859 261.826C241.859 262.65 242.527 263.318 243.351 263.318H246.069C246.893 263.318 247.561 262.65 247.561 261.826C247.561 261.002 246.893 260.334 246.069 260.334Z" fill="#E6E6E6"/>
<path d="M254.876 260.334H252.158C251.334 260.334 250.666 261.002 250.666 261.826C250.666 262.65 251.334 263.318 252.158 263.318H254.876C255.7 263.318 256.368 262.65 256.368 261.826C256.368 261.002 255.7 260.334 254.876 260.334Z" fill="#E6E6E6"/>
<path d="M237.613 260.086H220.721C219.897 260.086 219.229 260.754 219.229 261.578C219.229 262.402 219.897 263.07 220.721 263.07H237.613C238.438 263.07 239.106 262.402 239.106 261.578C239.106 260.754 238.438 260.086 237.613 260.086Z" fill="#E6E6E6"/>
<path d="M221.201 287.116H218.483C217.659 287.116 216.991 287.784 216.991 288.608C216.991 289.432 217.659 290.1 218.483 290.1H221.201C222.025 290.1 222.693 289.432 222.693 288.608C222.693 287.784 222.025 287.116 221.201 287.116Z" fill="#E6E6E6"/>
<path d="M230.008 287.116H227.29C226.466 287.116 225.798 287.784 225.798 288.608C225.798 289.432 226.466 290.1 227.29 290.1H230.008C230.832 290.1 231.5 289.432 231.5 288.608C231.5 287.784 230.832 287.116 230.008 287.116Z" fill="#E6E6E6"/>
<path d="M254.192 287.365H237.3C236.476 287.365 235.807 288.033 235.807 288.857C235.807 289.681 236.476 290.349 237.3 290.349H254.192C255.016 290.349 255.684 289.681 255.684 288.857C255.684 288.033 255.016 287.365 254.192 287.365Z" fill="#E6E6E6"/>
<path d="M190.115 287.116H187.397C186.573 287.116 185.905 287.784 185.905 288.608C185.905 289.432 186.573 290.1 187.397 290.1H190.115C190.939 290.1 191.607 289.432 191.607 288.608C191.607 287.784 190.939 287.116 190.115 287.116Z" fill="#E6E6E6"/>
<path d="M212.745 287.365H195.853C195.029 287.365 194.361 288.033 194.361 288.857C194.361 289.681 195.029 290.349 195.853 290.349H212.745C213.569 290.349 214.237 289.681 214.237 288.857C214.237 288.033 213.569 287.365 212.745 287.365Z" fill="#E6E6E6"/>
<path d="M198.405 280.381H195.687C194.863 280.381 194.195 281.049 194.195 281.873C194.195 282.697 194.863 283.365 195.687 283.365H198.405C199.229 283.365 199.897 282.697 199.897 281.873C199.897 281.049 199.229 280.381 198.405 280.381Z" fill="#E6E6E6"/>
<path d="M229.49 280.381H226.772C225.948 280.381 225.28 281.049 225.28 281.873C225.28 282.697 225.948 283.365 226.772 283.365H229.49C230.314 283.365 230.982 282.697 230.982 281.873C230.982 281.049 230.314 280.381 229.49 280.381Z" fill="#E6E6E6"/>
<path d="M238.297 280.381H235.579C234.755 280.381 234.087 281.049 234.087 281.873C234.087 282.697 234.755 283.365 235.579 283.365H238.297C239.121 283.365 239.79 282.697 239.79 281.873C239.79 281.049 239.121 280.381 238.297 280.381Z" fill="#E6E6E6"/>
<path d="M221.035 280.63H204.142C203.318 280.63 202.65 281.298 202.65 282.122C202.65 282.946 203.318 283.614 204.142 283.614H221.035C221.859 283.614 222.527 282.946 222.527 282.122C222.527 281.298 221.859 280.63 221.035 280.63Z" fill="#E6E6E6"/>
<path d="M206.694 273.646H203.976C203.152 273.646 202.484 274.314 202.484 275.138C202.484 275.962 203.152 276.63 203.976 276.63H206.694C207.518 276.63 208.186 275.962 208.186 275.138C208.186 274.314 207.518 273.646 206.694 273.646Z" fill="#E6E6E6"/>
<path d="M237.779 273.646H235.061C234.237 273.646 233.569 274.314 233.569 275.138C233.569 275.962 234.237 276.63 235.061 276.63H237.779C238.603 276.63 239.271 275.962 239.271 275.138C239.271 274.314 238.603 273.646 237.779 273.646Z" fill="#E6E6E6"/>
<path d="M246.587 273.646H243.869C243.045 273.646 242.377 274.314 242.377 275.138C242.377 275.962 243.045 276.63 243.869 276.63H246.587C247.411 276.63 248.079 275.962 248.079 275.138C248.079 274.314 247.411 273.646 246.587 273.646Z" fill="#E6E6E6"/>
<path d="M229.324 273.895H212.431C211.607 273.895 210.939 274.563 210.939 275.387C210.939 276.211 211.607 276.879 212.431 276.879H229.324C230.148 276.879 230.816 276.211 230.816 275.387C230.816 274.563 230.148 273.895 229.324 273.895Z" fill="#E6E6E6"/>
<path d="M214.983 266.911H212.266C211.441 266.911 210.773 267.579 210.773 268.403C210.773 269.227 211.441 269.895 212.266 269.895H214.983C215.808 269.895 216.476 269.227 216.476 268.403C216.476 267.579 215.808 266.911 214.983 266.911Z" fill="#E6E6E6"/>
<path d="M246.069 266.911H243.351C242.527 266.911 241.859 267.579 241.859 268.403C241.859 269.227 242.527 269.895 243.351 269.895H246.069C246.893 269.895 247.561 269.227 247.561 268.403C247.561 267.579 246.893 266.911 246.069 266.911Z" fill="#E6E6E6"/>
<path d="M254.876 266.911H252.158C251.334 266.911 250.666 267.579 250.666 268.403C250.666 269.227 251.334 269.895 252.158 269.895H254.876C255.7 269.895 256.368 269.227 256.368 268.403C256.368 267.579 255.7 266.911 254.876 266.911Z" fill="#E6E6E6"/>
<path d="M237.613 267.159H220.721C219.897 267.159 219.229 267.828 219.229 268.652C219.229 269.476 219.897 270.144 220.721 270.144H237.613C238.438 270.144 239.106 269.476 239.106 268.652C239.106 267.828 238.438 267.159 237.613 267.159Z" fill="#E6E6E6"/>
<path d="M203.285 383.851C203.171 383.908 203.057 383.965 202.943 384.017C202.223 384.374 201.498 384.727 200.767 385.074C198.581 386.115 196.367 387.105 194.125 388.042C188.227 390.509 182.175 392.591 176.008 394.275C174.972 387.814 173.966 372.577 173.003 361.371C172.821 359.263 172.64 357.299 172.459 355.563C172.287 353.285 171.959 351.021 171.48 348.787C171.433 348.612 171.365 348.443 171.278 348.284C171.376 349.181 171.48 351.854 171.578 355.563C171.63 357.299 171.677 359.263 171.728 361.371C171.972 372.158 172.226 386.835 172.48 395.192C171.759 395.368 171.034 395.544 170.309 395.71C169.853 395.819 169.392 395.922 168.931 396.021C168.371 396.145 167.812 396.27 167.252 396.384C166.667 396.508 166.081 396.627 165.496 396.741C155.929 398.62 146.202 399.564 136.452 399.559C135.804 399.559 135.162 399.554 134.514 399.549C134.317 399.549 134.12 399.544 133.918 399.539C133.348 399.528 132.758 399.518 132.157 399.502C120.635 399.184 109.189 397.534 98.0459 394.586L98.4966 361.371L98.5744 355.563L98.6054 353.362C98.3488 354.07 98.1953 354.811 98.1495 355.563C97.9682 356.978 97.7817 358.983 97.5952 361.371C96.8854 370.572 96.1549 385.416 95.3985 393.86C86.4407 391.311 79.8921 388.985 71.7063 384.892C71.3903 384.737 71.0691 384.576 70.7531 384.416C70.81 384.017 70.8722 383.618 70.9292 383.209C71.8566 376.764 70.7634 368.376 71.7892 361.371C72.5715 355.968 73.3798 350.776 74.1932 346.373C75.1775 341.073 76.1774 336.907 77.167 334.881C78.3068 332.545 79.4466 330.245 80.5501 328.043C81.0268 327.095 81.4948 326.164 81.9541 325.25C82.2028 324.758 82.4515 324.271 82.695 323.794C83.8037 321.624 84.8502 319.619 85.8087 317.841C86.4822 316.593 87.1039 315.463 87.6738 314.474C88.3421 313.308 88.9328 312.345 89.4198 311.614C93.0168 306.161 98.369 302.102 104.589 300.107L104.745 300.066L104.895 300.128L105.066 300.206L114.941 296.595L119.35 285.979L141.995 284.585L145.653 287.368L147.523 288.792L149.518 290.31L153.186 293.103L154.227 293.424L155.776 293.901L166.371 297.154L166.48 297.108L166.635 297.149C172.296 298.961 177.251 302.492 180.81 307.252C181.163 307.708 181.489 308.179 181.805 308.656C182.665 309.93 183.826 311.946 185.193 314.474C185.758 315.515 186.354 316.645 186.981 317.841C187.359 318.562 190.623 328.747 193.799 339.15C196.767 348.89 199.658 358.822 200.037 361.371C200.104 361.843 200.176 362.319 200.244 362.791C200.674 365.739 201.099 368.707 201.508 371.603C202.114 375.898 202.705 380.043 203.269 383.747C203.275 383.784 203.28 383.815 203.285 383.851Z" fill="#4285F4"/>
<path opacity="0.2" d="M179.286 346.349L174.884 329.359L170.997 344.019L179.286 346.349Z" fill="black"/>
<path d="M30.201 346.152C30.4293 346.816 30.8623 347.391 31.4378 347.795C32.0133 348.198 32.7018 348.408 33.4044 348.395L47.1295 348.042C47.8372 348.028 48.5215 347.786 49.08 347.351C49.6385 346.916 50.0413 346.312 50.2281 345.63L52.1703 324.861C52.8594 325.173 53.6096 325.327 54.366 325.312C55.6931 325.279 56.9526 324.72 57.8674 323.758C58.7823 322.796 59.2775 321.51 59.2442 320.183C59.2109 318.855 58.6517 317.596 57.6898 316.681C56.7278 315.766 55.4418 315.271 54.1147 315.304C53.8124 315.303 53.5109 315.335 53.2152 315.398C52.8937 315.05 52.5029 314.773 52.068 314.586C51.6331 314.398 51.1637 314.304 50.6901 314.308L29.5777 314.853C29.4026 314.86 29.2283 314.882 29.057 314.918C28.594 315.004 28.1548 315.189 27.7691 315.459C27.3834 315.729 27.06 316.079 26.8208 316.485C26.5816 316.891 26.4321 317.343 26.3823 317.811C26.3325 318.279 26.3836 318.753 26.5322 319.2L30.201 346.152ZM52.5686 323.451L53.9507 318.502C54.1079 317.93 54.1116 317.327 53.9613 316.753C54.0283 316.753 54.0875 316.721 54.1545 316.721C55.1022 316.701 56.0189 317.058 56.7038 317.714C57.3886 318.369 57.7857 319.269 57.8078 320.217C57.83 321.164 57.4756 322.082 56.8221 322.769C56.1687 323.455 55.2697 323.855 54.3222 323.88C53.7095 323.899 53.1033 323.75 52.5686 323.451V323.451Z" fill="#2F2E41"/>
<path d="M29.0569 314.918C29.5067 317.49 34.5637 319.298 40.6444 318.984C46.2359 318.726 50.8079 316.763 51.6455 314.436C51.3355 314.344 51.0132 314.301 50.69 314.308L29.5777 314.853C29.4025 314.86 29.2283 314.882 29.0569 314.918V314.918Z" fill="#4285F4"/>
<path d="M41.7588 334.739C41.7866 334.732 41.8131 334.72 41.837 334.705L44.8177 332.754C44.8537 332.73 44.8833 332.698 44.9038 332.66C44.9243 332.623 44.935 332.58 44.935 332.537C44.9351 332.494 44.9244 332.452 44.9039 332.414C44.8834 332.376 44.8538 332.344 44.8178 332.321L41.7198 330.291C41.6913 330.273 41.6595 330.26 41.626 330.253C41.5925 330.247 41.5581 330.247 41.5247 330.254C41.4913 330.261 41.4596 330.274 41.4314 330.293C41.4032 330.312 41.3791 330.337 41.3604 330.365C41.3417 330.394 41.3288 330.426 41.3225 330.459C41.3162 330.493 41.3165 330.527 41.3235 330.561C41.3306 330.594 41.3441 330.626 41.3634 330.654C41.3827 330.682 41.4073 330.706 41.4359 330.724L44.203 332.537L41.5535 334.271C41.5022 334.305 41.4644 334.355 41.4469 334.414C41.4295 334.473 41.4334 334.536 41.458 334.592C41.4827 334.648 41.5264 334.694 41.5815 334.721C41.6366 334.748 41.6994 334.754 41.7588 334.739H41.7588Z" fill="#4285F4"/>
<path d="M37.051 334.956C37.1011 334.944 37.1462 334.916 37.1806 334.878C37.2149 334.839 37.2371 334.791 37.2441 334.74C37.2511 334.689 37.2427 334.637 37.2199 334.591C37.1972 334.545 37.1611 334.506 37.1163 334.48L34.3689 332.905L37.0244 330.933C37.0517 330.912 37.0747 330.887 37.0922 330.858C37.1096 330.829 37.1211 330.796 37.1261 330.763C37.1311 330.729 37.1293 330.695 37.1211 330.662C37.1128 330.629 37.0981 330.598 37.0778 330.571C37.0575 330.543 37.0321 330.52 37.0029 330.503C36.9737 330.485 36.9414 330.474 36.9078 330.469C36.8741 330.464 36.8399 330.466 36.8069 330.474C36.7739 330.482 36.7429 330.497 36.7156 330.517L33.7425 332.726C33.708 332.751 33.6803 332.785 33.6621 332.824C33.6439 332.863 33.6357 332.906 33.6383 332.949C33.6408 332.992 33.654 333.033 33.6766 333.07C33.6993 333.106 33.7307 333.137 33.768 333.158L36.8585 334.93C36.9168 334.963 36.9859 334.973 37.051 334.956V334.956Z" fill="#4285F4"/>
<path d="M41.4623 336.449C41.4874 336.443 41.5113 336.432 41.5333 336.419C41.5624 336.401 41.5877 336.378 41.6078 336.35C41.6279 336.323 41.6424 336.292 41.6505 336.259C41.6585 336.226 41.66 336.191 41.6548 336.158C41.6496 336.124 41.6378 336.092 41.6201 336.063L37.3948 329.116C37.3589 329.058 37.3013 329.016 37.2347 329C37.168 328.984 37.0978 328.995 37.0392 329.031C36.9807 329.066 36.9387 329.124 36.9224 329.19C36.9061 329.257 36.9168 329.327 36.9522 329.386L41.1774 336.333C41.2062 336.38 41.2495 336.417 41.3007 336.438C41.352 336.458 41.4086 336.462 41.4623 336.449V336.449Z" fill="#4285F4"/>
<path d="M428.776 384.415C428.46 384.575 428.139 384.736 427.823 384.891C419.637 388.984 413.088 391.31 404.131 393.859C403.374 385.414 402.644 370.571 401.934 361.37C401.747 358.982 401.561 356.977 401.38 355.562C401.334 354.81 401.18 354.069 400.924 353.36L400.955 355.562L401.032 361.37L401.483 394.585C390.34 397.533 378.894 399.183 367.372 399.501C366.771 399.517 366.181 399.527 365.611 399.538C365.409 399.543 365.212 399.548 365.015 399.548C364.367 399.553 363.725 399.558 363.077 399.558C350.935 399.567 338.838 398.101 327.05 395.191C327.303 386.834 327.557 372.157 327.801 361.37C327.853 359.261 327.899 357.298 327.951 355.562C328.049 351.853 328.153 349.179 328.251 348.283C328.164 348.442 328.096 348.611 328.049 348.786C327.57 351.02 327.242 353.284 327.07 355.562C326.889 357.298 326.708 359.261 326.526 361.37C325.563 372.576 324.557 387.813 323.521 394.274C317.354 392.59 311.302 390.508 305.404 388.041C302.295 386.746 299.242 385.349 296.244 383.85C296.814 380.12 297.41 375.939 298.021 371.602C298.498 368.24 298.99 364.784 299.492 361.37C300.27 356.096 326.671 299.143 332.894 297.148L333.049 297.106L333.158 297.153L343.753 293.899L345.302 293.423L346.343 293.102L350.011 290.309L352.006 288.791L353.876 287.366L357.534 284.584L380.179 285.978L384.588 296.594L394.463 300.205L394.634 300.127L394.784 300.065L394.94 300.106C401.16 302.101 406.512 306.16 410.109 311.613C410.596 312.343 411.187 313.307 411.855 314.473C412.425 315.462 413.047 316.592 413.72 317.84C414.679 319.617 415.725 321.622 416.834 323.793C417.078 324.27 417.326 324.757 417.575 325.249C418.036 326.161 418.504 327.092 418.979 328.041C420.082 330.243 421.222 332.544 422.362 334.88C423.352 336.906 424.352 341.071 425.336 346.371C426.149 350.775 426.957 355.966 427.74 361.37C428.766 368.375 427.672 376.762 428.6 383.207C428.657 383.617 428.719 384.016 428.776 384.415Z" fill="#4285F4"/>
<path d="M362.36 280.774C376.906 280.774 388.697 268.982 388.697 254.436C388.697 239.89 376.906 228.098 362.36 228.098C347.814 228.098 336.022 239.89 336.022 254.436C336.022 268.982 347.814 280.774 362.36 280.774Z" fill="#FFB6B6"/>
<path opacity="0.2" d="M320.242 346.349L324.644 329.359L328.531 344.019L320.242 346.349Z" fill="black"/>
<path d="M437.387 335.279C435.812 356.977 437.444 366.53 428.75 384.42C420.84 388.291 412.601 391.45 404.131 393.859C403.25 394.108 402.367 394.35 401.483 394.585C390.34 397.533 378.894 399.183 367.372 399.501C366.771 399.517 366.181 399.527 365.611 399.538C365.409 399.543 365.212 399.548 365.015 399.548C364.367 399.553 363.725 399.558 363.077 399.558C350.935 399.567 338.837 398.101 327.049 395.191C325.868 394.901 324.692 394.595 323.521 394.274C317.354 392.59 311.302 390.508 305.404 388.041C302.295 386.746 299.242 385.349 296.244 383.85C295.565 383.508 294.887 383.166 294.218 382.814C290.783 376.773 288.83 369.426 288.789 360.598C291.167 345.387 432.133 322.161 437.387 335.279Z" fill="#2F2E41"/>
<path opacity="0.2" d="M437.382 338.995C437.463 337.652 437.553 336.264 437.658 334.819C432.404 321.701 291.438 344.927 289.06 360.138C289.066 361.533 289.126 362.886 289.226 364.208C294.985 349.194 428.905 327.12 437.382 338.995Z" fill="black"/>
<path d="M285.283 336.303L296.854 330.517L287.211 304.483L284.67 291.353C284.34 289.648 283.568 288.058 282.431 286.745C281.294 285.431 279.833 284.438 278.192 283.866C276.552 283.294 274.79 283.163 273.082 283.485C271.375 283.807 269.782 284.572 268.463 285.703V285.703C266.508 287.378 265.281 289.748 265.04 292.311C264.799 294.874 265.564 297.431 267.172 299.441L276.605 311.232L285.283 336.303Z" fill="#FFB6B6"/>
<path d="M296.854 325.696L281.426 333.41L293.134 370.095C293.975 372.729 295.482 375.102 297.509 376.982C299.537 378.863 302.016 380.188 304.706 380.828C308.023 381.618 311.505 381.331 314.648 380.008C317.791 378.686 320.431 376.397 322.185 373.473L353.231 320.258C355.431 316.591 356.11 312.209 355.123 308.048C354.136 303.887 351.562 300.278 347.949 297.989V297.989C346.006 296.759 343.826 295.951 341.55 295.619C339.274 295.287 336.954 295.438 334.74 296.061C332.526 296.685 330.469 297.768 328.701 299.24C326.934 300.712 325.496 302.539 324.482 304.603L305.532 344.981L296.854 325.696Z" fill="#4285F4"/>
<path d="M130.543 278.956C146.548 278.956 159.522 265.982 159.522 249.977C159.522 233.972 146.548 220.998 130.543 220.998C114.538 220.998 101.564 233.972 101.564 249.977C101.564 265.982 114.538 278.956 130.543 278.956Z" fill="#A0616A"/>
<path d="M101.912 230.007C104.268 226.831 107.655 224.573 110.245 221.585C111.667 219.946 112.847 218.089 114.445 216.621C117.414 213.894 121.566 212.777 125.594 212.638C130.009 212.525 134.389 213.452 138.379 215.346C142.369 217.239 145.858 220.046 148.562 223.538C150.667 222.303 152.773 221.068 154.879 219.834C155.711 222.023 156.543 224.213 157.375 226.403C158.058 225.809 158.928 225.477 159.833 225.464C160.738 225.451 161.617 225.759 162.316 226.333C163.016 226.908 163.489 227.711 163.653 228.6C163.816 229.49 163.66 230.409 163.21 231.194C163.711 229.646 166.008 229.317 167.273 230.34C168.539 231.363 168.878 233.183 168.672 234.798C168.413 236.569 167.63 238.222 166.423 239.545C165.217 240.867 163.643 241.799 161.903 242.22C159.155 242.832 155.957 242.189 153.757 243.946C151.994 245.355 151.462 247.921 149.662 249.283C147.445 250.962 144.311 250.186 141.554 250.557C136.732 251.206 132.914 256.138 133.493 260.969C133.057 259.445 132.598 257.876 131.608 256.638C130.618 255.4 128.95 254.562 127.431 255.017C124.92 255.77 124.51 259.192 125.118 261.741C126.732 268.502 132.848 279.431 132.848 279.431C124.907 282.563 115.446 279.601 109.319 273.657C103.192 267.713 100.001 259.297 98.6105 250.874C97.4317 243.732 97.5988 235.821 101.912 230.007Z" fill="#2F2E41"/>
<path d="M395.366 268.955C400.879 256.314 397.756 244.683 391.035 238.512V238.507C388.393 232.585 384.88 228.016 380.86 226.943C378.917 225.694 377.031 224.228 374.938 223.482C373.963 223.117 372.924 222.953 371.884 223.001C370.844 223.048 369.824 223.305 368.887 223.757L367.819 223.472C366.913 221.156 365.851 221.109 364.669 222.633C360.121 220.514 356.022 219.565 352.375 219.565C340.48 219.565 333.444 229.637 331.579 241.812L341.521 244.46L344.977 238.952L343.381 244.957L348.868 246.413C357.219 257.287 347.225 282.373 334.558 296.331C337.573 295.496 340.577 294.792 343.568 294.217L354.437 278.28L347.702 292.787C351.199 292.274 355.66 292.766 360.535 293.756C362.177 291.611 363.043 288.751 362.193 286.202C363.582 288.89 364.54 291.78 365.032 294.766C375.321 297.279 389.356 298.569 396.92 299.522C403.032 297.527 403.048 274.996 395.366 268.955Z" fill="#2F2E41"/>
<path d="M398.953 225.958C402.991 235 394.843 238.889 387.378 238.78C380.633 238.68 374.901 233.942 374.556 227.205C374.391 223.97 375.517 220.801 377.688 218.397C379.859 215.992 382.896 214.548 386.131 214.383C392.868 214.039 396.202 219.798 398.953 225.958Z" fill="#2F2E41"/>
<path d="M211.611 373.156L204.959 362.061L227.077 345.281L236.273 335.572C237.467 334.31 238.972 333.384 240.637 332.887C242.301 332.389 244.067 332.337 245.759 332.736C247.45 333.135 249.006 333.97 250.273 335.159C251.54 336.348 252.473 337.849 252.978 339.511V339.511C253.727 341.974 253.489 344.632 252.316 346.924C251.142 349.215 249.124 350.961 246.687 351.793L232.397 356.672L211.611 373.156Z" fill="#A0616A"/>
<path d="M216.419 372.79L206.062 381.421L203.27 383.747L202.943 384.017C202.223 384.374 201.498 384.727 200.767 385.074C198.581 386.115 196.367 387.105 194.125 388.042C188.227 390.509 182.175 392.591 176.008 394.275C174.837 394.596 173.661 394.902 172.48 395.192C171.76 395.368 171.034 395.544 170.309 395.71C169.853 395.819 169.392 395.922 168.931 396.021C168.371 396.145 167.812 396.27 167.252 396.384C166.667 396.508 166.081 396.627 165.496 396.741C163.921 395.242 162.666 393.439 161.81 391.44C160.953 389.442 160.511 387.29 160.512 385.115C160.512 384.975 160.512 384.83 160.517 384.685L162.18 342.031L162.916 323.126C163.029 318.851 164.81 314.789 167.878 311.81C170.946 308.83 175.057 307.168 179.334 307.179C179.831 307.179 180.324 307.205 180.811 307.252C181.163 307.708 181.489 308.179 181.805 308.656C182.665 309.93 183.826 311.946 185.194 314.474C185.758 315.515 186.354 316.645 186.981 317.842C187.359 318.562 190.623 328.747 193.799 339.15L192.4 350.015L189.872 369.598L200.244 362.791L207.549 357.993L208.414 359.439L210.668 363.2L215.02 370.453L216.419 372.79Z" fill="#4285F4"/>
<path d="M210.74 360.599C210.735 361.48 210.714 362.345 210.668 363.2C210.56 365.558 210.286 367.906 209.849 370.225C209.134 374.121 207.858 377.892 206.062 381.421C205.824 381.893 205.57 382.359 205.311 382.815C204.642 383.167 203.964 383.509 203.285 383.851C203.171 383.908 203.057 383.965 202.943 384.017C200.057 385.452 197.118 386.794 194.125 388.042C188.227 390.509 182.175 392.591 176.008 394.275C174.837 394.596 173.661 394.902 172.479 395.192C170.174 395.762 167.846 396.278 165.496 396.741C155.929 398.62 146.201 399.564 136.452 399.56C135.804 399.56 135.162 399.554 134.514 399.549C134.317 399.549 134.12 399.544 133.918 399.539C133.348 399.528 132.758 399.518 132.157 399.503C120.635 399.184 109.189 397.534 98.0458 394.586C97.1599 394.353 96.2774 394.111 95.3984 393.861C86.9278 391.451 78.6887 388.292 70.7789 384.421C62.0853 366.531 63.7173 356.978 62.1423 335.28C65.3752 327.203 120.07 332.908 162.18 342.031C173.609 344.508 184.105 347.238 192.4 350.015C200.969 352.88 207.181 355.791 209.616 358.527C210.185 359.093 210.576 359.814 210.74 360.599V360.599Z" fill="#2F2E41"/>
<path opacity="0.2" d="M62.1455 338.995C62.0651 337.652 61.9751 336.264 61.8702 334.819C67.1236 321.701 208.09 344.927 210.468 360.138C210.462 361.533 210.402 362.886 210.302 364.208C204.543 349.194 70.6228 327.12 62.1455 338.995Z" fill="black"/>
</g>
<defs>
<clipPath id="clip0_23_61">
<rect width="456" height="298.559" fill="white" transform="translate(22 101)"/>
</clipPath>
</defs>
</svg>
